<?xml version="1.0" encoding="utf-8"?>
<!-- Generator: Adobe Illustrator 24.0.2, SVG Export Plug-In . SVG Version: 6.00 Build 0)  -->
<svg version="1.1" xmlns="http://www.w3.org/2000/svg" xmlns:xlink="http://www.w3.org/1999/xlink" x="0px" y="0px"
	 viewBox="0 0 1920 1080" style="enable-background:new 0 0 1920 1080;" xml:space="preserve">
<style type="text/css">
	.st0{fill:#FFFFFF;}
	.st1{clip-path:url(#SVGID_2_);}
	.st2{fill:url(#SVGID_3_);}
	.st3{fill:url(#SVGID_4_);}
	.st4{fill:none;stroke:url(#SVGID_5_);stroke-width:1.3819;stroke-miterlimit:10;}
	.st5{fill:none;stroke:#FFFFFF;stroke-width:1.3819;stroke-miterlimit:10;}
	.st6{fill:none;stroke:url(#SVGID_6_);stroke-width:2.7638;stroke-linecap:round;stroke-miterlimit:10;}
	.st7{fill:none;stroke:url(#SVGID_7_);stroke-width:2.7638;stroke-linecap:round;stroke-miterlimit:10;}
	.st8{fill:none;stroke:url(#SVGID_8_);stroke-width:2.7638;stroke-linecap:round;stroke-miterlimit:10;}
	.st9{fill:none;stroke:url(#SVGID_9_);stroke-width:2.7638;stroke-linecap:round;stroke-miterlimit:10;}
	.st10{fill:none;stroke:#FFFFFF;stroke-width:2.7638;stroke-linecap:round;stroke-miterlimit:10;}
	.st11{fill:url(#SVGID_10_);}
	.st12{fill:url(#SVGID_11_);}
	.st13{fill:url(#SVGID_12_);}
</style>
<g id="BACKGROUND">
	<rect class="st0" width="1920" height="1080"/>
</g>
<g id="OBJECTS">
	<g>
		<defs>
			<rect id="SVGID_1_" width="1920" height="1080"/>
		</defs>
		<clipPath id="SVGID_2_">
			<use xlink:href="#SVGID_1_"  style="overflow:visible;"/>
		</clipPath>
		<g class="st1">
			<linearGradient id="SVGID_3_" gradientUnits="userSpaceOnUse" x1="919.1491" y1="647.8823" x2="2008.0822" y2="647.8823">
				<stop  offset="0" style="stop-color:#64999F"/>
				<stop  offset="0.5731" style="stop-color:#426376"/>
				<stop  offset="1" style="stop-color:#2C3F5A"/>
			</linearGradient>
			<path class="st2" d="M1755.7,214.7l185,15.7l67.4,850.8H919.4c0,0-17-189.5,206.4-383.6l499.7-434.2
				C1661.7,231.9,1707.9,214.7,1755.7,214.7z"/>
			<linearGradient id="SVGID_4_" gradientUnits="userSpaceOnUse" x1="1263.8871" y1="679.2136" x2="1970.6591" y2="679.2136">
				<stop  offset="0" style="stop-color:#64999F"/>
				<stop  offset="0.5731" style="stop-color:#426376"/>
				<stop  offset="1" style="stop-color:#2C3F5A"/>
			</linearGradient>
			<path class="st3" d="M1829.2,310.7l114.5-33.4l27,803.8h-706.8c0,0,28.1-269.2,210.5-451.7c160.3-160.3,259.5-259.5,281.2-281.2
				c0.5-0.5,1.9-1.6,3.9-3.1C1780.5,329.7,1804.1,318,1829.2,310.7z"/>
			<g>
				<path class="st0" d="M1616.2,468.3v-19.3h69.5v19.3H1616.2z M1641.3,493.3v-69.5h19.3v69.5H1641.3z"/>
			</g>
			<g>
				<linearGradient id="SVGID_5_" gradientUnits="userSpaceOnUse" x1="658.8978" y1="902.7914" x2="729.762" y2="902.7914">
					<stop  offset="0" style="stop-color:#64999F"/>
					<stop  offset="0.5731" style="stop-color:#426376"/>
					<stop  offset="1" style="stop-color:#2C3F5A"/>
				</linearGradient>
				<path class="st4" d="M704,912.5v25.1h-19.3v-25.1 M684.7,893.1v-25.1H704v25.1 M684.7,912.5h-25.1v-19.3h25.1 M704,893.1h25.1
					v19.3H704"/>
			</g>
			<g>
				<path class="st5" d="M1669.4,464.7v25.1h-19.3v-25.1 M1650.1,445.4v-25.1h19.3v25.1 M1650.1,464.7H1625v-19.3h25.1
					 M1669.4,445.4h25.1v19.3h-25.1"/>
			</g>
			<linearGradient id="SVGID_6_" gradientUnits="userSpaceOnUse" x1="180.4764" y1="977.3453" x2="284.5887" y2="977.3453">
				<stop  offset="0" style="stop-color:#64999F"/>
				<stop  offset="0.5731" style="stop-color:#426376"/>
				<stop  offset="1" style="stop-color:#2C3F5A"/>
			</linearGradient>
			<line class="st6" x1="181.9" y1="926.7" x2="283.2" y2="1028"/>
			<linearGradient id="SVGID_7_" gradientUnits="userSpaceOnUse" x1="199.872" y1="1039.1245" x2="282.1452" y2="1039.1245">
				<stop  offset="0" style="stop-color:#64999F"/>
				<stop  offset="0.5731" style="stop-color:#426376"/>
				<stop  offset="1" style="stop-color:#2C3F5A"/>
			</linearGradient>
			<line class="st7" x1="201.3" y1="999.4" x2="280.8" y2="1078.9"/>
			<linearGradient id="SVGID_8_" gradientUnits="userSpaceOnUse" x1="1000.0546" y1="323.1273" x2="1104.1669" y2="323.1273">
				<stop  offset="0" style="stop-color:#64999F"/>
				<stop  offset="0.5731" style="stop-color:#426376"/>
				<stop  offset="1" style="stop-color:#2C3F5A"/>
			</linearGradient>
			<line class="st8" x1="1001.4" y1="272.5" x2="1102.8" y2="373.8"/>
			<linearGradient id="SVGID_9_" gradientUnits="userSpaceOnUse" x1="1019.4501" y1="384.9065" x2="1101.7234" y2="384.9065">
				<stop  offset="0" style="stop-color:#64999F"/>
				<stop  offset="0.5731" style="stop-color:#426376"/>
				<stop  offset="1" style="stop-color:#2C3F5A"/>
			</linearGradient>
			<line class="st9" x1="1020.8" y1="345.2" x2="1100.3" y2="424.7"/>
			<line class="st10" x1="1540" y1="774.5" x2="1641.3" y2="875.8"/>
			<line class="st10" x1="1559.4" y1="847.2" x2="1638.9" y2="926.7"/>
			<g>
				<linearGradient id="SVGID_10_" gradientUnits="userSpaceOnUse" x1="669.2716" y1="894.9225" x2="738.7624" y2="894.9225">
					<stop  offset="0" style="stop-color:#64999F"/>
					<stop  offset="0.5731" style="stop-color:#426376"/>
					<stop  offset="1" style="stop-color:#2C3F5A"/>
				</linearGradient>
				<path class="st11" d="M669.3,904.6v-19.3h69.5v19.3H669.3z M694.4,929.7v-69.5h19.3v69.5H694.4z"/>
			</g>
			<linearGradient id="SVGID_11_" gradientUnits="userSpaceOnUse" x1="1543.5483" y1="230.2738" x2="1575.2224" y2="230.2738">
				<stop  offset="0" style="stop-color:#64999F"/>
				<stop  offset="0.5731" style="stop-color:#426376"/>
				<stop  offset="1" style="stop-color:#2C3F5A"/>
			</linearGradient>
			<circle class="st12" cx="1559.4" cy="230.3" r="15.8"/>
			
				<ellipse transform="matrix(0.161 -0.987 0.987 0.161 -90.3026 1892.5151)" class="st0" cx="1067.9" cy="999.4" rx="15.8" ry="15.8"/>
			<linearGradient id="SVGID_12_" gradientUnits="userSpaceOnUse" x1="124.1516" y1="272.4596" x2="155.0158" y2="272.4596">
				<stop  offset="0" style="stop-color:#64999F"/>
				<stop  offset="0.5731" style="stop-color:#426376"/>
				<stop  offset="1" style="stop-color:#2C3F5A"/>
			</linearGradient>
			<circle class="st13" cx="139.6" cy="272.5" r="15.4"/>
		</g>
	</g>
</g>
<g id="TEXTS">
</g>
</svg>
