<svg xmlns="http://www.w3.org/2000/svg" viewBox="0 0 681.03 454.76"><defs><style>.cls-1{fill:#f5f5f5;}.cls-2{fill:#e0e0e0;}.cls-3{fill:#ebebeb;}.cls-4{fill:#fafafa;}.cls-5{fill:#fff;}.cls-6{fill:#263238;}.cls-7{fill:#ff725e;}.cls-8{fill:#455a64;}.cls-9{opacity:0.2;}.cls-10{fill:#9f7362;}.cls-11{fill:#65463c;}</style></defs><title>form</title><g id="Background_Complete" data-name="Background Complete"><rect class="cls-1" x="451.12" y="318.75" width="180.26" height="83.13"/><path class="cls-2" d="M631,403.71H459.18V328.87H631ZM460.3,402.59H629.9V330H460.3Z" transform="translate(-3.93 -5.75)"/><rect class="cls-2" x="631.38" y="318.75" width="44.04" height="83.13"/><path class="cls-2" d="M459.74,352H630.46a.23.23,0,0,0,0-.45H459.74a.23.23,0,0,0,0,.45Z" transform="translate(-3.93 -5.75)"/><path class="cls-2" d="M545.66,351.8a186.93,186.93,0,0,0,.05-22.58.23.23,0,0,0-.46,0,189,189,0,0,0,.06,22.58.18.18,0,0,0,.35,0Z" transform="translate(-3.93 -5.75)"/><path class="cls-2" d="M591.61,340.51a2.33,2.33,0,1,1-2.33-2.32A2.33,2.33,0,0,1,591.61,340.51Z" transform="translate(-3.93 -5.75)"/><path class="cls-2" d="M502,340.51a2.33,2.33,0,1,1-2.32-2.32A2.32,2.32,0,0,1,502,340.51Z" transform="translate(-3.93 -5.75)"/><path class="cls-2" d="M547.42,366.29A2.33,2.33,0,1,1,545.1,364,2.32,2.32,0,0,1,547.42,366.29Z" transform="translate(-3.93 -5.75)"/><polygon class="cls-2" points="472.68 401.88 463.39 454.07 468.62 454.07 485.73 401.88 472.68 401.88"/><polygon class="cls-2" points="618.63 401.88 626.39 454.16 621.17 454.16 605.58 401.88 618.63 401.88"/><polygon class="cls-2" points="653.48 401.88 662.27 454.16 657.05 454.16 640.43 401.88 653.48 401.88"/><path class="cls-2" d="M547.27,389.82a2.33,2.33,0,1,1-2.33-2.33A2.32,2.32,0,0,1,547.27,389.82Z" transform="translate(-3.93 -5.75)"/><path class="cls-2" d="M459.74,377.77H630.46a.23.23,0,0,0,0-.45H459.74a.23.23,0,0,0,0,.45Z" transform="translate(-3.93 -5.75)"/><rect class="cls-2" x="548.08" y="263.62" width="11.09" height="54.5" transform="translate(837.65 -270.02) rotate(89.7)"/><rect class="cls-1" x="548.41" y="285.43" width="17.24" height="60.75" transform="translate(865.96 -248.64) rotate(89.7)"/><path class="cls-2" d="M575.75,324.14a63.27,63.27,0,0,1-.3-8.62,63.27,63.27,0,0,1,.3-8.62,64.35,64.35,0,0,1,.29,8.62A64.35,64.35,0,0,1,575.75,324.14Z" transform="translate(-3.93 -5.75)"/><path class="cls-2" d="M578.3,324.14a64.35,64.35,0,0,1-.29-8.62,64.35,64.35,0,0,1,.29-8.62,63.27,63.27,0,0,1,.3,8.62A63.27,63.27,0,0,1,578.3,324.14Z" transform="translate(-3.93 -5.75)"/><path class="cls-2" d="M535.85,324.14c-.17,0-.3-3.86-.3-8.62s.13-8.62.3-8.62a64.35,64.35,0,0,1,.29,8.62A64.35,64.35,0,0,1,535.85,324.14Z" transform="translate(-3.93 -5.75)"/><path class="cls-2" d="M538.4,324.14a63.27,63.27,0,0,1-.3-8.62,63.27,63.27,0,0,1,.3-8.62,64.35,64.35,0,0,1,.29,8.62A64.35,64.35,0,0,1,538.4,324.14Z" transform="translate(-3.93 -5.75)"/><path class="cls-2" d="M544,315.8c0-.17,6.13-.3,13.68-.3s13.69.13,13.69.3-6.13.3-13.69.3S544,316,544,315.8Z" transform="translate(-3.93 -5.75)"/><rect class="cls-3" x="567.21" y="264.09" width="11.09" height="74.96" transform="translate(867.37 -278.52) rotate(89.7)"/><path class="cls-2" d="M599.53,305.55a3.59,3.59,0,1,1,3.54-3.59A3.57,3.57,0,0,1,599.53,305.55Z" transform="translate(-3.93 -5.75)"/><rect class="cls-2" x="563.59" y="276.87" width="2.22" height="50.18" transform="translate(862.73 -268.49) rotate(90)"/><path class="cls-3" d="M23.93,92.67s-6.37,4.86-.26,11.28a.54.54,0,0,0,.4.17l55.73-.32s4.76-5.34.81-11.49Z" transform="translate(-3.93 -5.75)"/><path class="cls-2" d="M67.49,97.74c0,.07-6.94.12-15.5.12s-15.5,0-15.5-.12,6.94-.11,15.5-.11S67.49,97.68,67.49,97.74Z" transform="translate(-3.93 -5.75)"/><path class="cls-2" d="M58.82,99.76c0,.06-3.27.11-7.29.11s-7.29-.05-7.29-.11,3.27-.11,7.29-.11S58.82,99.7,58.82,99.76Z" transform="translate(-3.93 -5.75)"/><path class="cls-2" d="M73.19,103.62s.12-.64.29-1.67a23.62,23.62,0,0,0,.32-4.07,22.46,22.46,0,0,0-.4-4.06c-.19-1-.36-1.66-.32-1.67a2.4,2.4,0,0,1,.16.43c.09.28.2.69.32,1.21a19.71,19.71,0,0,1,.08,8.19c-.11.51-.21.93-.3,1.21A3.2,3.2,0,0,1,73.19,103.62Z" transform="translate(-3.93 -5.75)"/><path class="cls-2" d="M77.34,92.24s.11.13.25.4a3.87,3.87,0,0,1,.25.5c.09.2.2.42.29.68a13.15,13.15,0,0,1,.53,1.85A14.15,14.15,0,0,1,78.9,98a13.25,13.25,0,0,1-.21,2.35,11.5,11.5,0,0,1-.5,1.86c-.08.26-.19.48-.27.68a4.78,4.78,0,0,1-.24.5,1.66,1.66,0,0,1-.24.41s.27-.62.6-1.65a12.72,12.72,0,0,0,.45-1.84A13.88,13.88,0,0,0,78.67,98a15,15,0,0,0-.22-2.31A13.79,13.79,0,0,0,78,93.88C77.63,92.85,77.31,92.26,77.34,92.24Z" transform="translate(-3.93 -5.75)"/><path class="cls-2" d="M32.73,103.69s-.11-.12-.26-.37a4.45,4.45,0,0,1-.26-.46,6.78,6.78,0,0,1-.3-.65,9.08,9.08,0,0,1-.54-1.75,10.6,10.6,0,0,1-.22-2.25A11.06,11.06,0,0,1,31.43,96,9.27,9.27,0,0,1,32,94.23a6.19,6.19,0,0,1,.31-.63,3.45,3.45,0,0,1,.28-.46,1.93,1.93,0,0,1,.26-.37s-.32.57-.71,1.52A10.52,10.52,0,0,0,31.63,96a11.36,11.36,0,0,0-.25,2.19,11.74,11.74,0,0,0,.19,2.21,10.2,10.2,0,0,0,.49,1.74C32.42,103.12,32.77,103.67,32.73,103.69Z" transform="translate(-3.93 -5.75)"/><path class="cls-2" d="M26.71,105.05a2.65,2.65,0,0,1-.29-.42c-.08-.14-.19-.31-.29-.52s-.23-.45-.33-.72a11.41,11.41,0,0,1-.64-2,13.64,13.64,0,0,1-.32-2.51,13.35,13.35,0,0,1,.21-2.53,10.44,10.44,0,0,1,.55-2c.09-.28.21-.52.3-.74a5.13,5.13,0,0,1,.27-.53,1.84,1.84,0,0,1,.27-.44s-.32.66-.69,1.76a12.64,12.64,0,0,0-.5,2,13.84,13.84,0,0,0-.18,2.48,13.14,13.14,0,0,0,.87,4.43C26.37,104.41,26.75,105,26.71,105.05Z" transform="translate(-3.93 -5.75)"/><path class="cls-3" d="M77.76,120.77v10.67H57.12V120.77Z" transform="translate(-3.93 -5.75)"/><path class="cls-2" d="M11.11,126.2c0,.1,0,.19,0,.28a6.12,6.12,0,0,0,6.14,5.73H78.72v-.77H64.13a5.34,5.34,0,0,1-5.33-5.34h0a5.33,5.33,0,0,1,5.33-5.33H78.72v-1.13l-61.48.21A6.14,6.14,0,0,0,11.11,126.2Z" transform="translate(-3.93 -5.75)"/><path class="cls-2" d="M77.76,126.25c0,.06-4.24.11-9.48.11s-9.47,0-9.47-.11,4.24-.12,9.47-.12S77.76,126.18,77.76,126.25Z" transform="translate(-3.93 -5.75)"/><path class="cls-2" d="M77.46,128.65c0,.06-4,.11-9,.11s-9,0-9-.11,4-.11,9-.11S77.46,128.59,77.46,128.65Z" transform="translate(-3.93 -5.75)"/><path class="cls-2" d="M77.76,130.85c0,.06-3.61.11-8.06.11s-8.07-.05-8.07-.11,3.61-.12,8.07-.12S77.76,130.78,77.76,130.85Z" transform="translate(-3.93 -5.75)"/><path class="cls-2" d="M77.76,124.09c0,.06-4.16.11-9.28.11s-9.29,0-9.29-.11,4.16-.12,9.29-.12S77.76,124,77.76,124.09Z" transform="translate(-3.93 -5.75)"/><path class="cls-2" d="M77.46,121.93c0,.06-3.7.11-8.26.11s-8.26-.05-8.26-.11,3.69-.12,8.26-.12S77.46,121.87,77.46,121.93Z" transform="translate(-3.93 -5.75)"/><path class="cls-1" d="M18.55,120a15.16,15.16,0,0,0-1.3,1.56,7.91,7.91,0,0,0,.11,9.14,13.89,13.89,0,0,0,1.34,1.52,2.36,2.36,0,0,1-.45-.33,7.2,7.2,0,0,1-1-1.1,7.76,7.76,0,0,1-.11-9.32,6.75,6.75,0,0,1,1-1.13A2.85,2.85,0,0,1,18.55,120Z" transform="translate(-3.93 -5.75)"/><path class="cls-1" d="M16.48,119.8a12.48,12.48,0,0,0-1.31,1.55,8.17,8.17,0,0,0-1.4,4.59,8.08,8.08,0,0,0,1.51,4.55A13.89,13.89,0,0,0,16.62,132a2.17,2.17,0,0,1-.44-.33,6.7,6.7,0,0,1-1-1.1,7.76,7.76,0,0,1-.11-9.32,7.23,7.23,0,0,1,1-1.13A2.17,2.17,0,0,1,16.48,119.8Z" transform="translate(-3.93 -5.75)"/><path class="cls-1" d="M58.24,120a14.35,14.35,0,0,0-1.31,1.56,7.91,7.91,0,0,0,.11,9.14,15.32,15.32,0,0,0,1.34,1.52,2.56,2.56,0,0,1-.44-.33,7.17,7.17,0,0,1-1-1.1,8,8,0,0,1-1.6-4.64,7.82,7.82,0,0,1,2.49-5.81A2.59,2.59,0,0,1,58.24,120Z" transform="translate(-3.93 -5.75)"/><path class="cls-1" d="M56.16,119.8a12.48,12.48,0,0,0-1.31,1.55,7.9,7.9,0,0,0,.11,9.14A15.32,15.32,0,0,0,56.3,132a2.56,2.56,0,0,1-.44-.33,7.17,7.17,0,0,1-1-1.1,7.8,7.8,0,0,1-.11-9.32,7.79,7.79,0,0,1,1-1.13A2.17,2.17,0,0,1,56.16,119.8Z" transform="translate(-3.93 -5.75)"/><path class="cls-1" d="M25.55,127.7l-.06-4.33a3,3,0,0,0-.15-1.12,1.08,1.08,0,0,0-.83-.7c-.54-.24-1.39.22-1.76.84a4.07,4.07,0,0,0-.43,2.13,30.13,30.13,0,0,0,.17,3.42,3.84,3.84,0,0,0,.4,1.57,1.47,1.47,0,0,0,1.32.8,1.49,1.49,0,0,0,1.16-1A4.29,4.29,0,0,0,25.55,127.7Z" transform="translate(-3.93 -5.75)"/><path class="cls-1" d="M49.42,126.45c0,.07-4.44.12-9.92.12s-9.93,0-9.93-.12,4.44-.11,9.93-.11S49.42,126.39,49.42,126.45Z" transform="translate(-3.93 -5.75)"/><polygon class="cls-1" points="17.51 113.85 17.39 103.74 22.89 103.74 23.08 113.85 17.51 113.85"/><path class="cls-2" d="M26.5,111.29a15.12,15.12,0,0,1-2.56.11,15.12,15.12,0,0,1-2.56-.11,13.42,13.42,0,0,1,2.56-.12A13.42,13.42,0,0,1,26.5,111.29Z" transform="translate(-3.93 -5.75)"/><path class="cls-2" d="M26.5,112.85a15.12,15.12,0,0,1-2.56.11,15.12,15.12,0,0,1-2.56-.11,14.47,14.47,0,0,1,2.56-.12A14.47,14.47,0,0,1,26.5,112.85Z" transform="translate(-3.93 -5.75)"/><path class="cls-2" d="M26.5,114.41a15.12,15.12,0,0,1-2.56.11,15.12,15.12,0,0,1-2.56-.11,14.47,14.47,0,0,1,2.56-.12A14.47,14.47,0,0,1,26.5,114.41Z" transform="translate(-3.93 -5.75)"/><path class="cls-2" d="M26.5,116a15.12,15.12,0,0,1-2.56.11,15.12,15.12,0,0,1-2.56-.11,15.12,15.12,0,0,1,2.56-.11A15.12,15.12,0,0,1,26.5,116Z" transform="translate(-3.93 -5.75)"/><path class="cls-2" d="M26.5,117.53a15.12,15.12,0,0,1-2.56.11,15.12,15.12,0,0,1-2.56-.11,15.12,15.12,0,0,1,2.56-.11A15.12,15.12,0,0,1,26.5,117.53Z" transform="translate(-3.93 -5.75)"/><path class="cls-3" d="M21,109.22H82a28.87,28.87,0,0,1,0,10.93H21.29v-.75H25a1.75,1.75,0,0,0,1.75-1.75v-6A1.75,1.75,0,0,0,25,109.85H21Z" transform="translate(-3.93 -5.75)"/><path class="cls-4" d="M35.44,114.69h1a.22.22,0,0,1,.22.22.15.15,0,0,1,0,.07c0,.08,0,.17-.07.26a3,3,0,0,1-.63,1.15,1.2,1.2,0,0,1-.87.45H35a1,1,0,0,1-.69-.5A2.25,2.25,0,0,1,34,115.1a3.26,3.26,0,0,1,.12-.87,2.82,2.82,0,0,1,.61-1.18,1.2,1.2,0,0,1,.91-.49.86.86,0,0,1,.39.09,1.26,1.26,0,0,1,.59.74.22.22,0,0,1,0,.1.2.2,0,0,1,0,.11.21.21,0,0,1-.19.11h-.07a.2.2,0,0,1-.14-.14h0a1.15,1.15,0,0,0-.12-.25.6.6,0,0,0-.49-.29.56.56,0,0,0-.34.13,1.76,1.76,0,0,0-.55.8,3,3,0,0,0-.24,1.14,2.08,2.08,0,0,0,.17.91.59.59,0,0,0,.53.39.72.72,0,0,0,.49-.29,2.71,2.71,0,0,0,.53-1h-.73a.25.25,0,0,1-.25-.24.26.26,0,0,1,0-.08A.22.22,0,0,1,35.44,114.69Z" transform="translate(-3.93 -5.75)"/><path class="cls-4" d="M38.91,112.7l0,.08c0,.15.28,1.41.71,3.78a.09.09,0,0,1,0,0,.2.2,0,0,1,0,.11.19.19,0,0,1-.18.12h0a.18.18,0,0,1-.17-.15L39,115.43H37.75l-.6,1.26a.08.08,0,0,1,0,0,.26.26,0,0,1-.19.11.28.28,0,0,1-.12,0,.24.24,0,0,1-.1-.18.19.19,0,0,1,0-.07c0-.09.1-.22.18-.41.88-1.92,1.4-3,1.58-3.39a.26.26,0,0,1,.21-.16A.26.26,0,0,1,38.91,112.7Zm-.28.85L38,115h.95Z" transform="translate(-3.93 -5.75)"/><path class="cls-4" d="M42.31,116.84H40.47a.28.28,0,0,1-.12,0,.35.35,0,0,1-.1-.23h0c0-.08.17-1.33.51-3.77a.25.25,0,0,1,0-.08.2.2,0,0,1,.2-.13l.1,0a.22.22,0,0,1,.11.2c0,.16-.06.51-.12,1l-.33,2.54h1.56a.27.27,0,0,1,.12,0,.2.2,0,0,1,.14.2s0,0,0,.07A.26.26,0,0,1,42.31,116.84Z" transform="translate(-3.93 -5.75)"/><path class="cls-4" d="M44.82,112.7l0,.08q.06.23.72,3.78a.09.09,0,0,1,0,0,.24.24,0,0,1-.21.23h0a.19.19,0,0,1-.17-.15l-.24-1.25H43.67l-.6,1.26a.08.08,0,0,0,0,0,.26.26,0,0,1-.19.11.21.21,0,0,1-.12,0,.21.21,0,0,1-.1-.18.17.17,0,0,1,0-.07l.19-.41c.88-1.92,1.4-3,1.57-3.39a.26.26,0,0,1,.21-.16A.24.24,0,0,1,44.82,112.7Zm-.27.85L43.87,115h1Z" transform="translate(-3.93 -5.75)"/><path class="cls-4" d="M47.75,114.87c.15.4.26.71.33.92.19.53.29.8.29.83a.19.19,0,0,1,0,.12.21.21,0,0,1-.18.1.23.23,0,0,1-.18-.15l0-.09c-.1-.23-.26-.67-.49-1.3l-1,1.42a.27.27,0,0,1-.19.12.27.27,0,0,1-.12,0,.22.22,0,0,1-.1-.19v0a.47.47,0,0,1,.11-.18c.35-.45.74-1,1.16-1.61,0-.12-.09-.24-.13-.35-.39-1-.59-1.59-.59-1.62a.27.27,0,0,1,0-.12.2.2,0,0,1,.18-.11.24.24,0,0,1,.2.13l.62,1.65,1.22-1.67a.25.25,0,0,1,.2-.1l.1,0a.22.22,0,0,1,.11.2.22.22,0,0,1,0,.1Z" transform="translate(-3.93 -5.75)"/><path class="cls-4" d="M52.3,112.61l.1,0a.22.22,0,0,1,.12.19c-.3,2.38-.47,3.66-.5,3.85a2.43,2.43,0,0,1-.39,1,1.44,1.44,0,0,1-1.22.6,1.34,1.34,0,0,1-.59-.16,1.28,1.28,0,0,1-.65-.57.18.18,0,0,1,0-.1.2.2,0,0,1,0-.11.19.19,0,0,1,.19-.11.19.19,0,0,1,.16.09,1.19,1.19,0,0,0,.94.53.9.9,0,0,0,.73-.37,2,2,0,0,0,.41-1.15,1,1,0,0,1-.27.28,1.07,1.07,0,0,1-.66.22h-.12a1,1,0,0,1-.7-.5,2.21,2.21,0,0,1-.31-1.22q0-.34,0-.69c0-.38.12-.9.25-1.59a.14.14,0,0,1,0-.06.2.2,0,0,1,.2-.15.19.19,0,0,1,.1,0,.18.18,0,0,1,.11.17,6.91,6.91,0,0,1-.1.84c-.09.66-.14,1.08-.14,1.28a2.58,2.58,0,0,0,.16,1c.13.3.31.45.55.45h.07a1,1,0,0,0,.55-.44,2.65,2.65,0,0,0,.45-1l.28-2.1a.32.32,0,0,1,0-.09A.2.2,0,0,1,52.3,112.61Z" transform="translate(-3.93 -5.75)"/><path class="cls-1" d="M79.73,120.29c-.07,0-.12-2.51-.12-5.61s0-5.6.12-5.6.11,2.51.11,5.6S79.79,120.29,79.73,120.29Z" transform="translate(-3.93 -5.75)"/><path class="cls-2" d="M29.82,120.29c-.07,0-.12-2.51-.12-5.61s.05-5.6.12-5.6.11,2.51.11,5.6S29.88,120.29,29.82,120.29Z" transform="translate(-3.93 -5.75)"/><path class="cls-1" d="M80.8,120.29c-.07,0-.12-2.51-.12-5.61s0-5.6.12-5.6.11,2.51.11,5.6S80.86,120.29,80.8,120.29Z" transform="translate(-3.93 -5.75)"/><path class="cls-2" d="M28.82,120.29c-.07,0-.12-2.51-.12-5.61s.05-5.6.12-5.6.11,2.51.11,5.6S28.88,120.29,28.82,120.29Z" transform="translate(-3.93 -5.75)"/><path class="cls-2" d="M64.94,110.93v0l6.44,5.2.06,0-.07,0-.86.23-5.44,1.43h0l-4.93-2.09-1.4-.6-.37-.16-.09,0,0,0,0,0,.1,0,.37.15,1.4.58,4.94,2.07h0l5.44-1.43.86-.23v.06L64.9,111h0" transform="translate(-3.93 -5.75)"/><polygon class="cls-2" points="66.86 109.55 67.22 109.88 67.69 109.78 67.48 110.22 67.72 110.63 67.25 110.57 66.92 110.93 66.83 110.46 66.39 110.26 66.82 110.03 66.86 109.55"/><polygon class="cls-2" points="60.68 111.6 60.92 111.8 61.22 111.72 61.11 112 61.28 112.27 60.97 112.24 60.77 112.49 60.7 112.19 60.41 112.08 60.67 111.91 60.68 111.6"/><polygon class="cls-2" points="53.85 108.8 54.23 108.82 54.47 108.52 54.57 108.89 54.93 109.02 54.6 109.23 54.59 109.61 54.29 109.37 53.92 109.47 54.07 109.11 53.85 108.8"/><polygon class="cls-2" points="69.75 105.26 70.14 105.28 70.37 104.98 70.47 105.35 70.83 105.48 70.51 105.69 70.49 106.07 70.2 105.83 69.83 105.94 69.97 105.58 69.75 105.26"/><polygon class="cls-2" points="60.7 105.01 60.94 105.02 61.09 104.83 61.16 105.07 61.38 105.15 61.18 105.28 61.17 105.53 60.98 105.37 60.74 105.44 60.84 105.21 60.7 105.01"/><path class="cls-2" d="M74.22,111.28s-2.09,0-4.66-.16-4.65-.22-4.65-.24,2.08,0,4.66.15S74.22,111.25,74.22,111.28Z" transform="translate(-3.93 -5.75)"/><path class="cls-2" d="M76.56,109.13H14.7c-.81-1.84-1-3.59,0-5.15H76.56A6,6,0,0,1,76.56,109.13Z" transform="translate(-3.93 -5.75)"/><rect class="cls-3" x="23.59" y="99.7" width="33.51" height="1.87"/><path class="cls-2" d="M17.08,109.15s-.24-.19-.49-.62A4.49,4.49,0,0,1,16,106.7a4.57,4.57,0,0,1,.24-1.89,1.7,1.7,0,0,1,.37-.7,4.2,4.2,0,0,1-.22.74,5.55,5.55,0,0,0-.16,1.83,5.37,5.37,0,0,0,.48,1.78C16.93,108.89,17.11,109.13,17.08,109.15Z" transform="translate(-3.93 -5.75)"/><path class="cls-2" d="M18.42,109.15s-.24-.19-.49-.62a4.49,4.49,0,0,1-.57-1.83,4.57,4.57,0,0,1,.24-1.89,1.7,1.7,0,0,1,.37-.7,4.2,4.2,0,0,1-.22.74,5.55,5.55,0,0,0-.16,1.83,5.13,5.13,0,0,0,.48,1.78C18.27,108.89,18.45,109.13,18.42,109.15Z" transform="translate(-3.93 -5.75)"/><path class="cls-1" d="M74.06,109a10.2,10.2,0,0,0,.43-2.51,10.82,10.82,0,0,0-.4-2.53,4.54,4.54,0,0,1,.63,2.53A4.45,4.45,0,0,1,74.06,109Z" transform="translate(-3.93 -5.75)"/><path class="cls-1" d="M72.91,109c-.07,0,.19-1.1.18-2.46s-.26-2.45-.19-2.47a6.09,6.09,0,0,1,.42,2.47A6.17,6.17,0,0,1,72.91,109Z" transform="translate(-3.93 -5.75)"/><rect class="cls-3" x="105.76" y="32.49" width="22.03" height="23.36" transform="translate(-4.16 -5.12) rotate(-0.31)"/><rect class="cls-1" x="127.68" y="32.37" width="22.03" height="23.36" transform="matrix(1, -0.01, 0.01, 1, -4.16, -5)"/><path class="cls-2" d="M105.73,39q22,.18,44-.2a.24.24,0,0,0,0-.47c-14.63-.08-29.31,0-43.94.27a.2.2,0,0,0,0,.4Z" transform="translate(-3.93 -5.75)"/><rect class="cls-3" x="92.01" y="55.51" width="40.02" height="19.04" transform="translate(-4.27 -5.15) rotate(-0.31)"/><rect class="cls-1" x="131.84" y="55.3" width="40.02" height="19.04" transform="translate(-4.27 -4.93) rotate(-0.31)"/><path class="cls-2" d="M92,60.91c26.58.3,53.26,0,79.84-.39a.24.24,0,0,0,0-.47c-26.58-.14-53.26-.13-79.84.46a.2.2,0,0,0,0,.4Z" transform="translate(-3.93 -5.75)"/><rect class="cls-3" x="55.89" y="163.28" width="40.02" height="19.04" transform="translate(-4.85 -5.34) rotate(-0.31)"/><rect class="cls-1" x="95.72" y="163.06" width="40.02" height="19.04" transform="translate(-4.85 -5.12) rotate(-0.31)"/><path class="cls-2" d="M55.87,168.68c26.58.3,53.26,0,79.84-.39a.24.24,0,0,0,0-.47c-26.59-.14-53.26-.13-79.84.46a.2.2,0,0,0,0,.4Z" transform="translate(-3.93 -5.75)"/><rect class="cls-2" x="32.19" y="24.5" width="10.09" height="50.23" transform="translate(-4.19 -5.55) rotate(-0.31)"/><rect class="cls-3" x="42.09" y="5.77" width="10.09" height="69.08" transform="translate(-4.14 -5.49) rotate(-0.31)"/><rect class="cls-1" x="52.23" y="18.65" width="15.69" height="55.98" transform="translate(-4.18 -5.42) rotate(-0.31)"/><path class="cls-2" d="M67.66,29.39a57,57,0,0,1-7.84.27A57,57,0,0,1,52,29.39a57,57,0,0,1,7.84-.27A57,57,0,0,1,67.66,29.39Z" transform="translate(-3.93 -5.75)"/><path class="cls-2" d="M67.66,27a57,57,0,0,1-7.84.27A57,57,0,0,1,52,27a57,57,0,0,1,7.84-.27A57,57,0,0,1,67.66,27Z" transform="translate(-3.93 -5.75)"/><path class="cls-2" d="M67.66,66.17a57,57,0,0,1-7.84.27A57,57,0,0,1,52,66.17a57,57,0,0,1,7.84-.27A57,57,0,0,1,67.66,66.17Z" transform="translate(-3.93 -5.75)"/><path class="cls-2" d="M67.66,63.82a57,57,0,0,1-7.84.27A57,57,0,0,1,52,63.82a56,56,0,0,1,7.84-.28A56,56,0,0,1,67.66,63.82Z" transform="translate(-3.93 -5.75)"/><path class="cls-2" d="M60.07,58.68c-.15,0-.27-5.64-.27-12.61s.12-12.62.27-12.62.27,5.65.27,12.62S60.22,58.68,60.07,58.68Z" transform="translate(-3.93 -5.75)"/><rect class="cls-3" x="63.91" y="26.61" width="17.07" height="42.26"/><path class="cls-2" d="M49.7,17.54a2.9,2.9,0,1,1-2.9-2.9A2.9,2.9,0,0,1,49.7,17.54Z" transform="translate(-3.93 -5.75)"/><rect class="cls-2" x="41.98" y="19.77" width="1.79" height="41.1"/><rect class="cls-2" y="126.81" width="177.72" height="6.08"/><rect class="cls-2" y="69.14" width="177.72" height="6.08"/><rect class="cls-2" x="36.27" y="176.71" width="141.45" height="5.74"/><rect class="cls-2" x="82.08" y="74.03" width="6.78" height="57.37"/><rect class="cls-2" x="36.31" y="126.81" width="6.78" height="55.62"/><path class="cls-1" d="M126.72,106.47l-4.17,6s9.38,2.6,9.38,10.94-5.73,9.89-12,9.89-12.24-1.82-12-10.15S116,111.68,116,111.68l-3.9-5.21Z" transform="translate(-3.93 -5.75)"/><rect class="cls-2" x="674.01" y="24.74" width="7.03" height="151.08"/><rect class="cls-1" x="572.08" y="25.9" width="100.86" height="150.12" rx="0.1"/><path class="cls-3" d="M677.93,182.94h-103a.1.1,0,0,1-.1-.1V30.58a.1.1,0,0,1,.1-.1h103a.1.1,0,0,1,.1.1V182.84A.1.1,0,0,1,677.93,182.94ZM577.27,180.6h98.32a.1.1,0,0,0,.11-.1V32.92a.11.11,0,0,0-.11-.1H577.27a.11.11,0,0,0-.1.1V180.5A.1.1,0,0,0,577.27,180.6Z" transform="translate(-3.93 -5.75)"/><rect class="cls-5" x="582.23" y="35.17" width="80.73" height="131.5" rx="0.1"/><rect class="cls-3" x="599.84" y="72.44" width="45.33" height="53.13" rx="0.06"/><path class="cls-2" d="M645.51,124.82c.06.17-2.18,1.15-6.43.65a15.82,15.82,0,0,1-7.24-2.89,14.75,14.75,0,0,1-5.62-8.84,12.71,12.71,0,0,1,4.3-12.09,11.24,11.24,0,0,1,3.26-1.91,8.68,8.68,0,0,1,4.08-.47,7.16,7.16,0,0,1,4.07,1.78,5.32,5.32,0,0,1,1.61,4.75,7.7,7.7,0,0,1-2.24,4.08,14.69,14.69,0,0,1-3.41,2.51,18.73,18.73,0,0,1-8.15,2.33,16.18,16.18,0,0,1-8.68-2,15.76,15.76,0,0,1-6.39-6.62,13.44,13.44,0,0,1-1.14-9.27,13.76,13.76,0,0,1,4.88-7.64,12,12,0,0,1,4.1-2.07,10.3,10.3,0,0,1,4.62-.15,7.49,7.49,0,0,1,4.18,2.37A6.87,6.87,0,0,1,633,93.83a8.42,8.42,0,0,1-1.09,4.26,11.31,11.31,0,0,1-2.58,3.11,17.39,17.39,0,0,1-6.42,3.41,16.45,16.45,0,0,1-6.76.52,13.71,13.71,0,0,1-5.88-2.25A12.71,12.71,0,0,1,604.61,94a10.71,10.71,0,0,1,2.08-7.63,9.05,9.05,0,0,1,3.85-3.07c1.05-.4,1.66-.39,1.68-.29s-.48.38-1.33,1a10.19,10.19,0,0,0-3,3.22,9.51,9.51,0,0,0-1.22,6.51,10.66,10.66,0,0,0,5,7,12.26,12.26,0,0,0,10.3,1,14.52,14.52,0,0,0,5.15-2.91,6.32,6.32,0,0,0,2.41-4.83,3.48,3.48,0,0,0-3.1-3.43,6.76,6.76,0,0,0-3,.14,8.57,8.57,0,0,0-2.8,1.47,10.15,10.15,0,0,0-3.53,5.62,9.85,9.85,0,0,0,.87,6.73,12.11,12.11,0,0,0,4.88,5.07,12.53,12.53,0,0,0,6.71,1.56,15.26,15.26,0,0,0,6.59-1.8,11.58,11.58,0,0,0,2.64-1.86,4.46,4.46,0,0,0,1.33-2.18,1.89,1.89,0,0,0-.54-1.75,4,4,0,0,0-2.18-1,5.55,5.55,0,0,0-2.57.22,8.31,8.31,0,0,0-2.39,1.31,9.92,9.92,0,0,0-3.65,9.24,12.74,12.74,0,0,0,4.32,7.66,15.16,15.16,0,0,0,6.21,3.09C643.18,124.94,645.48,124.49,645.51,124.82Z" transform="translate(-3.93 -5.75)"/><polygon class="cls-1" points="164.29 430.08 164.29 454.76 200.38 454.76 240.19 454.76 240.19 430.08 164.29 430.08"/><polygon class="cls-2" points="161.1 423.18 161.1 430.08 242.85 430.08 242.85 423.18 200.38 423.18 161.1 423.18"/><polygon class="cls-2" points="201.97 454.76 240.19 454.76 240.19 430.08 242.85 430.08 242.85 423.18 200.38 423.18 200.38 429.44 201.97 454.76"/><rect class="cls-2" x="174.9" y="434.06" width="15.39" height="3.72"/><rect class="cls-5" x="172.92" y="442.42" width="19.77" height="7.85"/><polygon class="cls-1" points="181.95 398.53 181.95 423.21 218.05 423.21 257.86 423.21 257.86 398.53 181.95 398.53"/><polygon class="cls-2" points="178.77 391.63 178.77 398.53 260.51 398.53 260.51 391.63 218.05 391.63 178.77 391.63"/><polygon class="cls-2" points="219.64 423.21 257.86 423.21 257.86 398.53 260.51 398.53 260.51 391.63 218.05 391.63 218.05 397.89 219.64 423.21"/><rect class="cls-2" x="192.57" y="402.51" width="15.39" height="3.72"/><rect class="cls-5" x="190.59" y="410.87" width="19.77" height="7.85"/><polygon class="cls-1" points="27.22 429.19 27.22 453.87 63.31 453.87 103.13 453.87 103.13 429.19 27.22 429.19"/><polygon class="cls-2" points="24.03 422.29 24.03 429.19 105.78 429.19 105.78 422.29 63.31 422.29 24.03 422.29"/><polygon class="cls-2" points="64.91 453.87 103.13 453.87 103.13 429.19 105.78 429.19 105.78 422.29 63.31 422.29 63.31 428.55 64.91 453.87"/><rect class="cls-2" x="37.83" y="433.17" width="15.39" height="3.72"/><rect class="cls-5" x="35.85" y="441.53" width="19.77" height="7.85"/></g><g id="Floor"><path class="cls-6" d="M653.44,459.7c0,.15-133.28.26-297.65.26s-297.67-.11-297.67-.26,133.25-.26,297.67-.26S653.44,459.56,653.44,459.7Z" transform="translate(-3.93 -5.75)"/></g><g id="Device"><path class="cls-2" d="M595.33,59.75l-.17,305.82A17.12,17.12,0,0,1,578,382.68l-453.77-.24a17.11,17.11,0,0,1-17.11-17.13l.16-305.82a17.13,17.13,0,0,1,17.13-17.11l453.77.24A17.13,17.13,0,0,1,595.33,59.75Z" transform="translate(-3.93 -5.75)"/><path class="cls-6" d="M595.33,59.75s0-.35-.07-1a10.64,10.64,0,0,0-.13-1.31,14.5,14.5,0,0,0-.36-1.79,16,16,0,0,0-2-4.73,17.27,17.27,0,0,0-4.86-5.15,16.39,16.39,0,0,0-3.8-2,15.89,15.89,0,0,0-4.63-1l-1.27-.06H366.87l-120.38,0-67.05,0h-53a28.87,28.87,0,0,0-4.47.19,16.65,16.65,0,0,0-11.19,6.75,19.65,19.65,0,0,0-1.22,1.89,18.85,18.85,0,0,0-.92,2,16.86,16.86,0,0,0-1,4.38c-.11,1.5-.08,3-.08,4.57v4.61q0,9.24,0,18.58,0,18.69,0,37.79,0,38.2,0,77.94c0,52.94,0,107.76-.08,163.9a19.08,19.08,0,0,0,.77,5.1,17.63,17.63,0,0,0,2.29,4.62A16.76,16.76,0,0,0,114,378.7a15.78,15.78,0,0,0,4.5,2.46c3.23,1.3,6.77,1,10.24,1H139.2l41.31,0,80.77.05,152.69.09,138.17.1h24a33.76,33.76,0,0,0,3.91-.13,16.65,16.65,0,0,0,3.76-.91,17,17,0,0,0,10.29-10.64c.19-.6.32-1.22.49-1.83s.21-1.24.26-1.87c.09-1.25.09-2.52.08-3.79,0-2.54,0-5.06,0-7.57q0-30.14,0-57.76c.07-73.6.13-133.15.17-174.31,0-20.57.06-36.55.07-47.39,0-5.41,0-9.54,0-12.32s0-4.2,0-4.2,0,1.42,0,4.2,0,6.91,0,12.32c0,10.84,0,26.82,0,47.39,0,41.16,0,100.71,0,174.31q0,27.6,0,57.76v7.57c0,1.26,0,2.53-.08,3.83-.06.64-.18,1.27-.27,1.91s-.3,1.26-.5,1.88A17.38,17.38,0,0,1,584,381.82a16.9,16.9,0,0,1-3.85.93,32.83,32.83,0,0,1-4,.14h-24L414,382.83l-152.69-.06-80.77,0-41.31,0H128.78c-1.74,0-3.47,0-5.23,0a17.2,17.2,0,0,1-9.83-3.55,17.06,17.06,0,0,1-3.67-3.82,17.93,17.93,0,0,1-2.36-4.76,19.16,19.16,0,0,1-.8-5.26c0-56.14.06-111,.09-163.9q0-39.7,0-77.94,0-19.09,0-37.79,0-9.35,0-18.58V62.45c0-1.53,0-3.06.08-4.61a17.77,17.77,0,0,1,1.07-4.51,18.14,18.14,0,0,1,1-2.11,20.83,20.83,0,0,1,1.25-1.95,17.23,17.23,0,0,1,11.52-6.93,30,30,0,0,1,4.53-.2l17.9,0,35.07,0,67.05,0,120.38.09,174.31.18,27.35,0h9.7l1.27.07a16.7,16.7,0,0,1,4.66,1,17,17,0,0,1,8.69,7.19,16.12,16.12,0,0,1,2,4.76,13.89,13.89,0,0,1,.34,1.8,8.68,8.68,0,0,1,.12,1.3C595.32,59.4,595.33,59.75,595.33,59.75Z" transform="translate(-3.93 -5.75)"/><rect class="cls-5" x="185.43" y="9.39" width="318.61" height="407.55" transform="matrix(0, -1, 1, 0, 127.46, 552.04)"/><path class="cls-6" d="M570.73,199.6a13,13,0,1,1-13.06,13A13.05,13.05,0,0,1,570.73,199.6Z" transform="translate(-3.93 -5.75)"/><rect class="cls-6" x="72.77" y="209.72" width="102.42" height="5.39" rx="1.22" transform="matrix(0, -1, 1, 0, -92.42, 330.53)"/><rect class="cls-1" x="168.15" y="318.5" width="159.37" height="26.4" rx="5.43"/><rect class="cls-1" x="166.79" y="261.95" width="159.37" height="26.4" rx="5.43"/><rect class="cls-1" x="338.06" y="261.95" width="159.37" height="26.4" rx="5.43"/><rect class="cls-1" x="342.32" y="101.27" width="153.44" height="26.4" rx="5.43"/><rect class="cls-1" x="168.15" y="153.7" width="331.23" height="26.4" rx="5.43"/><rect class="cls-1" x="167.91" y="101.27" width="159.37" height="26.4" rx="5.43"/><path class="cls-2" d="M182.89,120.85v1.8h-.74v-1.82l-2.06-3.38h.79l1.67,2.74,1.67-2.74H185Z" transform="translate(-3.93 -5.75)"/><path class="cls-2" d="M184.79,120.68a2.05,2.05,0,1,1,2.05,2A2,2,0,0,1,184.79,120.68Zm3.38,0a1.33,1.33,0,1,0-1.33,1.39A1.29,1.29,0,0,0,188.17,120.68Z" transform="translate(-3.93 -5.75)"/><path class="cls-2" d="M193.55,118.71v3.94h-.68v-.6a1.6,1.6,0,0,1-1.34.64,1.55,1.55,0,0,1-1.69-1.71v-2.27h.71v2.18c0,.78.39,1.16,1.07,1.16a1.15,1.15,0,0,0,1.21-1.31v-2Z" transform="translate(-3.93 -5.75)"/><path class="cls-2" d="M197,118.67v.69h-.17a1.18,1.18,0,0,0-1.24,1.34v2h-.71v-3.94h.68v.66A1.52,1.52,0,0,1,197,118.67Z" transform="translate(-3.93 -5.75)"/><path class="cls-2" d="M204.54,117.45v5.2h-.61l-3.13-3.88v3.88h-.74v-5.2h.61l3.12,3.87v-3.87Z" transform="translate(-3.93 -5.75)"/><path class="cls-2" d="M209.12,120.27v2.38h-.68v-.52a1.48,1.48,0,0,1-1.29.56c-.9,0-1.46-.47-1.46-1.16s.41-1.15,1.58-1.15h1.13v-.14c0-.6-.35-.95-1.05-.95a2,2,0,0,0-1.25.42l-.3-.53a2.62,2.62,0,0,1,1.63-.51C208.51,118.67,209.12,119.19,209.12,120.27Zm-.72,1.17v-.55h-1.1c-.7,0-.9.28-.9.61s.32.64.86.64A1.14,1.14,0,0,0,208.4,121.44Z" transform="translate(-3.93 -5.75)"/><path class="cls-2" d="M217,120.38v2.27h-.71v-2.19c0-.77-.38-1.15-1-1.15s-1.18.45-1.18,1.31v2h-.72v-2.19c0-.77-.37-1.15-1-1.15s-1.18.45-1.18,1.31v2h-.71v-3.94h.68v.59a1.59,1.59,0,0,1,1.36-.63,1.47,1.47,0,0,1,1.37.73,1.78,1.78,0,0,1,1.52-.73A1.51,1.51,0,0,1,217,120.38Z" transform="translate(-3.93 -5.75)"/><path class="cls-2" d="M221.86,120.92h-3.19a1.34,1.34,0,0,0,1.43,1.15,1.46,1.46,0,0,0,1.13-.48l.4.46a2.15,2.15,0,0,1-3.67-1.37,1.93,1.93,0,0,1,2-2,1.9,1.9,0,0,1,1.95,2A1.8,1.8,0,0,1,221.86,120.92Zm-3.19-.52h2.53a1.24,1.24,0,0,0-1.27-1.13A1.22,1.22,0,0,0,218.67,120.4Z" transform="translate(-3.93 -5.75)"/><path class="cls-6" d="M200.2,95.07v5.2h-.8l-2.87-3.52v3.52h-1v-5.2h.8l2.87,3.52V95.07Z" transform="translate(-3.93 -5.75)"/><path class="cls-6" d="M204.83,98v2.32H204v-.48a1.41,1.41,0,0,1-1.25.54c-.9,0-1.48-.5-1.48-1.19s.45-1.19,1.65-1.19h1v0c0-.55-.33-.87-1-.87a1.9,1.9,0,0,0-1.2.4l-.37-.68a2.78,2.78,0,0,1,1.68-.49C204.17,96.26,204.83,96.8,204.83,98ZM203.9,99v-.46h-1c-.63,0-.8.24-.8.53s.28.55.76.55A1,1,0,0,0,203.9,99Z" transform="translate(-3.93 -5.75)"/><path class="cls-6" d="M212.65,98v2.27h-.92V98.12c0-.71-.33-1.05-.9-1.05s-1,.4-1,1.19v2h-.93V98.12c0-.71-.33-1.05-.89-1.05s-1,.4-1,1.19v2H206v-4h.88v.51a1.64,1.64,0,0,1,1.3-.55,1.5,1.5,0,0,1,1.34.66,1.86,1.86,0,0,1,1.49-.66A1.52,1.52,0,0,1,212.65,98Z" transform="translate(-3.93 -5.75)"/><path class="cls-6" d="M217.6,98.59h-3.11a1.19,1.19,0,0,0,1.28,1,1.42,1.42,0,0,0,1.08-.43l.5.57a2,2,0,0,1-1.6.65,2,2,0,0,1-2.19-2,2,2,0,0,1,2.05-2,1.93,1.93,0,0,1,2,2A2.72,2.72,0,0,1,217.6,98.59ZM214.48,98h2.25a1.08,1.08,0,0,0-1.12-1A1.1,1.1,0,0,0,214.48,98Z" transform="translate(-3.93 -5.75)"/><path class="cls-6" d="M178.22,96.1v1.29h2.26v.9h-2.26v1.78H177.1V95.2h3.68v.9Z" transform="translate(-3.93 -5.75)"/><path class="cls-6" d="M181.26,95.2a.62.62,0,0,1,.67-.61.61.61,0,0,1,.68.59.62.62,0,0,1-.68.62A.61.61,0,0,1,181.26,95.2Zm.13,1.12h1.09v3.75h-1.09Z" transform="translate(-3.93 -5.75)"/><path class="cls-6" d="M185.81,96.27v1h-.25a.92.92,0,0,0-1,1v1.77h-1.09V96.32h1v.5A1.51,1.51,0,0,1,185.81,96.27Z" transform="translate(-3.93 -5.75)"/><path class="cls-6" d="M186.1,99.72l.37-.78a2.5,2.5,0,0,0,1.3.36c.5,0,.69-.13.69-.34,0-.61-2.27,0-2.27-1.48,0-.71.64-1.21,1.74-1.21a3.22,3.22,0,0,1,1.44.32l-.36.78a2.15,2.15,0,0,0-1.08-.28c-.49,0-.7.15-.7.35,0,.64,2.26,0,2.26,1.49,0,.7-.64,1.19-1.76,1.19A3.23,3.23,0,0,1,186.1,99.72Z" transform="translate(-3.93 -5.75)"/><path class="cls-6" d="M192.57,99.89a1.54,1.54,0,0,1-.88.23,1.23,1.23,0,0,1-1.4-1.34V97.24h-.58v-.83h.58V95.5h1.08v.91h.94v.83h-.94v1.53a.44.44,0,0,0,.47.49.74.74,0,0,0,.44-.14Z" transform="translate(-3.93 -5.75)"/><path class="cls-7" d="M222.38,94.46l-.85,1.12v0l1.35-.18V96l-1.35-.16v0l.86,1.07-.56.32L221.29,96h0l-.58,1.26-.51-.32.85-1.09v0l-1.32.17v-.6l1.31.17v0l-.84-1.09.55-.31.55,1.24h0l.54-1.25Z" transform="translate(-3.93 -5.75)"/><path class="cls-2" d="M183.91,282.47v1.79h-.73v-1.81l-2.07-3.39h.8l1.66,2.74,1.67-2.74H186Z" transform="translate(-3.93 -5.75)"/><path class="cls-2" d="M185.82,282.3a2,2,0,1,1,2.05,2A2,2,0,0,1,185.82,282.3Zm3.37,0a1.33,1.33,0,1,0-1.32,1.38A1.3,1.3,0,0,0,189.19,282.3Z" transform="translate(-3.93 -5.75)"/><path class="cls-2" d="M194.57,280.33v3.93h-.67v-.59a1.6,1.6,0,0,1-1.34.64,1.55,1.55,0,0,1-1.7-1.72v-2.26h.72v2.18c0,.77.38,1.16,1.06,1.16a1.16,1.16,0,0,0,1.22-1.31v-2Z" transform="translate(-3.93 -5.75)"/><path class="cls-2" d="M198.05,280.29V281h-.16a1.17,1.17,0,0,0-1.24,1.33v2h-.72v-3.93h.69V281A1.5,1.5,0,0,1,198.05,280.29Z" transform="translate(-3.93 -5.75)"/><path class="cls-2" d="M205.56,279.06v5.2H205l-3.12-3.87v3.87h-.74v-5.2h.61l3.12,3.88v-3.88Z" transform="translate(-3.93 -5.75)"/><path class="cls-2" d="M210.14,281.89v2.37h-.68v-.52a1.44,1.44,0,0,1-1.29.57c-.89,0-1.46-.48-1.46-1.16s.41-1.15,1.59-1.15h1.13v-.14c0-.61-.35-.95-1.06-.95a2,2,0,0,0-1.25.42l-.29-.54a2.63,2.63,0,0,1,1.62-.5C209.53,280.29,210.14,280.81,210.14,281.89Zm-.71,1.17v-.55h-1.1c-.71,0-.91.28-.91.61s.33.64.87.64A1.16,1.16,0,0,0,209.43,283.06Z" transform="translate(-3.93 -5.75)"/><path class="cls-2" d="M218,282v2.26h-.71v-2.18c0-.77-.37-1.15-1-1.15s-1.18.45-1.18,1.31v2h-.71v-2.18c0-.77-.37-1.15-1-1.15s-1.18.45-1.18,1.31v2h-.72v-3.93h.69v.58a1.59,1.59,0,0,1,1.36-.62,1.47,1.47,0,0,1,1.37.73,1.74,1.74,0,0,1,1.51-.73A1.51,1.51,0,0,1,218,282Z" transform="translate(-3.93 -5.75)"/><path class="cls-2" d="M222.89,282.53h-3.2a1.34,1.34,0,0,0,1.43,1.15,1.47,1.47,0,0,0,1.14-.47l.39.46A2.15,2.15,0,0,1,219,282.3a1.93,1.93,0,0,1,2-2,1.9,1.9,0,0,1,1.94,2A1.48,1.48,0,0,1,222.89,282.53Zm-3.2-.51h2.53a1.27,1.27,0,0,0-2.53,0Z" transform="translate(-3.93 -5.75)"/><path class="cls-7" d="M213.65,254l-.85,1.12h0l1.35-.17v.6l-1.35-.16v0l.86,1.07-.56.32-.54-1.25h0L212,256.8l-.51-.32.85-1.09v0l-1.32.17v-.6l1.31.17v0l-.84-1.09.55-.31.55,1.24h0l.54-1.25Z" transform="translate(-3.93 -5.75)"/><path class="cls-7" d="M370.66,256.22l-.85,1.11v0l1.35-.18v.61l-1.35-.16v0l.86,1.07-.56.32-.54-1.25h0L369,259l-.5-.32.84-1.09v0l-1.32.17v-.61l1.31.17v0l-.83-1.09.54-.31.55,1.24h0l.55-1.25Z" transform="translate(-3.93 -5.75)"/><path class="cls-2" d="M353.82,282.47v1.79h-.74v-1.81L351,279.06h.79l1.67,2.74,1.67-2.74h.73Z" transform="translate(-3.93 -5.75)"/><path class="cls-2" d="M355.72,282.3a2.05,2.05,0,1,1,2,2A2,2,0,0,1,355.72,282.3Zm3.38,0a1.33,1.33,0,1,0-1.33,1.38A1.3,1.3,0,0,0,359.1,282.3Z" transform="translate(-3.93 -5.75)"/><path class="cls-2" d="M364.48,280.33v3.93h-.68v-.59a1.6,1.6,0,0,1-1.34.64,1.55,1.55,0,0,1-1.69-1.72v-2.26h.71v2.18c0,.77.39,1.16,1.06,1.16a1.16,1.16,0,0,0,1.22-1.31v-2Z" transform="translate(-3.93 -5.75)"/><path class="cls-2" d="M368,280.29V281h-.17a1.18,1.18,0,0,0-1.24,1.33v2h-.71v-3.93h.68V281A1.52,1.52,0,0,1,368,280.29Z" transform="translate(-3.93 -5.75)"/><path class="cls-2" d="M375.46,279.06v5.2h-.6l-3.13-3.87v3.87H371v-5.2h.61l3.12,3.88v-3.88Z" transform="translate(-3.93 -5.75)"/><path class="cls-2" d="M380,281.89v2.37h-.67v-.52a1.46,1.46,0,0,1-1.29.57c-.9,0-1.46-.48-1.46-1.16S377,282,378.2,282h1.13v-.14c0-.61-.35-.95-1.05-.95a2,2,0,0,0-1.25.42l-.3-.54a2.68,2.68,0,0,1,1.63-.5C379.44,280.29,380,280.81,380,281.89Zm-.71,1.17v-.55h-1.1c-.7,0-.9.28-.9.61s.32.64.87.64A1.14,1.14,0,0,0,379.33,283.06Z" transform="translate(-3.93 -5.75)"/><path class="cls-2" d="M387.91,282v2.26h-.71v-2.18c0-.77-.38-1.15-1-1.15s-1.18.45-1.18,1.31v2h-.72v-2.18c0-.77-.37-1.15-1-1.15s-1.18.45-1.18,1.31v2h-.71v-3.93h.68v.58a1.61,1.61,0,0,1,1.36-.62,1.47,1.47,0,0,1,1.37.73,1.78,1.78,0,0,1,1.52-.73A1.51,1.51,0,0,1,387.91,282Z" transform="translate(-3.93 -5.75)"/><path class="cls-2" d="M392.79,282.53H389.6a1.34,1.34,0,0,0,1.43,1.15,1.45,1.45,0,0,0,1.13-.47l.4.46a2.15,2.15,0,0,1-3.67-1.37,1.92,1.92,0,0,1,2-2,1.9,1.9,0,0,1,1.95,2A1.49,1.49,0,0,1,392.79,282.53ZM389.6,282h2.53a1.24,1.24,0,0,0-1.27-1.13A1.22,1.22,0,0,0,389.6,282Z" transform="translate(-3.93 -5.75)"/><path class="cls-6" d="M182.13,152v.81h-3.9v-5.2H182v.81H179.2v1.35h2.51v.8H179.2V152Z" transform="translate(-3.93 -5.75)"/><path class="cls-6" d="M189.76,150.5v2.27h-.93v-2.15c0-.71-.33-1.05-.89-1.05s-1,.4-1,1.19v2H186v-2.15c0-.71-.32-1.05-.89-1.05s-1,.4-1,1.19v2h-.93v-4H184v.51a1.61,1.61,0,0,1,1.3-.55,1.48,1.48,0,0,1,1.33.66,1.86,1.86,0,0,1,1.49-.66A1.53,1.53,0,0,1,189.76,150.5Z" transform="translate(-3.93 -5.75)"/><path class="cls-6" d="M194.27,150.45v2.32h-.88v-.48a1.39,1.39,0,0,1-1.24.53c-.91,0-1.48-.49-1.48-1.18s.44-1.19,1.65-1.19h1v-.06c0-.54-.32-.86-1-.86a2,2,0,0,0-1.2.4l-.36-.68a2.76,2.76,0,0,1,1.68-.49C193.61,148.76,194.27,149.3,194.27,150.45Zm-.93,1.08v-.46h-1c-.63,0-.8.24-.8.53s.28.55.76.55A1,1,0,0,0,193.34,151.53Z" transform="translate(-3.93 -5.75)"/><path class="cls-6" d="M195.34,147.59a.56.56,0,0,1,.59-.55.55.55,0,0,1,.59.53.59.59,0,0,1-1.18,0Zm.12,1.21h.93v4h-.93Z" transform="translate(-3.93 -5.75)"/><path class="cls-6" d="M197.61,147.26h.93v5.51h-.93Z" transform="translate(-3.93 -5.75)"/><path class="cls-2" d="M183.91,174.22V176h-.73V174.2l-2.07-3.39h.8l1.66,2.75,1.67-2.75H186Z" transform="translate(-3.93 -5.75)"/><path class="cls-2" d="M185.82,174.05a2,2,0,1,1,2.05,2A2,2,0,0,1,185.82,174.05Zm3.37,0a1.33,1.33,0,1,0-1.32,1.39A1.3,1.3,0,0,0,189.19,174.05Z" transform="translate(-3.93 -5.75)"/><path class="cls-2" d="M194.57,172.08V176h-.67v-.59a1.6,1.6,0,0,1-1.34.64,1.55,1.55,0,0,1-1.7-1.72v-2.26h.72v2.18c0,.77.38,1.16,1.06,1.16a1.16,1.16,0,0,0,1.22-1.31v-2Z" transform="translate(-3.93 -5.75)"/><path class="cls-2" d="M198.05,172v.69h-.16a1.17,1.17,0,0,0-1.24,1.33v2h-.72v-3.93h.69v.66A1.5,1.5,0,0,1,198.05,172Z" transform="translate(-3.93 -5.75)"/><path class="cls-2" d="M204.86,175.37V176h-3.77v-5.2h3.67v.65h-2.93v1.6h2.61v.63h-2.61v1.68Z" transform="translate(-3.93 -5.75)"/><path class="cls-2" d="M212.5,173.75V176h-.71v-2.18c0-.77-.37-1.15-1-1.15s-1.18.45-1.18,1.31v2h-.71v-2.18c0-.77-.38-1.15-1-1.15s-1.18.45-1.18,1.31v2H206v-3.93h.69v.58A1.59,1.59,0,0,1,208,172a1.45,1.45,0,0,1,1.36.73,1.78,1.78,0,0,1,1.52-.73A1.51,1.51,0,0,1,212.5,173.75Z" transform="translate(-3.93 -5.75)"/><path class="cls-2" d="M216.94,173.64V176h-.67v-.52a1.47,1.47,0,0,1-1.3.57c-.89,0-1.45-.48-1.45-1.16s.41-1.15,1.58-1.15h1.13v-.14c0-.61-.35-1-1.06-1a2,2,0,0,0-1.24.42l-.3-.54a2.66,2.66,0,0,1,1.63-.5A1.47,1.47,0,0,1,216.94,173.64Zm-.71,1.17v-.55h-1.1c-.71,0-.91.28-.91.61s.33.64.87.64A1.15,1.15,0,0,0,216.23,174.81Z" transform="translate(-3.93 -5.75)"/><path class="cls-2" d="M218.14,170.86a.47.47,0,0,1,.48-.47.46.46,0,0,1,.49.45.47.47,0,0,1-.49.48A.46.46,0,0,1,218.14,170.86Zm.13,1.22H219V176h-.71Z" transform="translate(-3.93 -5.75)"/><path class="cls-2" d="M220.34,170.5h.71V176h-.71Z" transform="translate(-3.93 -5.75)"/><path class="cls-7" d="M204.46,147l-.85,1.12v0l1.35-.18v.6l-1.35-.16v0l.86,1.07-.56.32-.54-1.25h0l-.58,1.26-.5-.32.84-1.09v0l-1.32.17v-.6l1.31.17v0l-.83-1.09.54-.31.55,1.24h0l.55-1.25Z" transform="translate(-3.93 -5.75)"/><path class="cls-7" d="M245.07,200.93l-.85,1.12v0l1.35-.18v.6l-1.35-.16v0l.86,1.07-.56.32-.54-1.25h0l-.58,1.26-.51-.32.85-1.09v0l-1.32.17v-.6l1.31.17v0l-.84-1.09.55-.31.55,1.24h0l.54-1.25Z" transform="translate(-3.93 -5.75)"/><rect class="cls-1" x="167.67" y="209.72" width="331.71" height="26.4" rx="5.43"/><path class="cls-6" d="M350.32,93.08h1v4.39H354v.81h-3.69Z" transform="translate(-3.93 -5.75)"/><path class="cls-6" d="M358.05,96v2.32h-.88V97.8a1.41,1.41,0,0,1-1.25.54c-.9,0-1.48-.5-1.48-1.19s.45-1.18,1.65-1.18h1v-.06c0-.55-.33-.87-1-.87a1.9,1.9,0,0,0-1.2.4l-.37-.68a2.78,2.78,0,0,1,1.68-.49C357.39,94.27,358.05,94.81,358.05,96ZM357.12,97v-.46h-1c-.63,0-.8.24-.8.53s.28.55.76.55A1,1,0,0,0,357.12,97Z" transform="translate(-3.93 -5.75)"/><path class="cls-6" d="M358.79,97.89l.35-.71a2.69,2.69,0,0,0,1.38.4c.59,0,.84-.17.84-.44,0-.76-2.46,0-2.46-1.63,0-.75.68-1.24,1.75-1.24a3.24,3.24,0,0,1,1.49.34l-.36.71a2.21,2.21,0,0,0-1.14-.3c-.56,0-.83.19-.83.45,0,.8,2.45.09,2.45,1.64,0,.74-.68,1.23-1.8,1.23A3.13,3.13,0,0,1,358.79,97.89Z" transform="translate(-3.93 -5.75)"/><path class="cls-6" d="M365.45,98.07a1.45,1.45,0,0,1-.89.27A1.22,1.22,0,0,1,363.19,97V95.09h-.65v-.74h.65v-.91h.93v.91h1.06v.74h-1.06V97a.52.52,0,0,0,.55.59.83.83,0,0,0,.52-.16Z" transform="translate(-3.93 -5.75)"/><path class="cls-6" d="M373,93.08v5.2h-.79l-2.87-3.52v3.52h-1v-5.2h.79L372,96.6V93.08Z" transform="translate(-3.93 -5.75)"/><path class="cls-6" d="M377.61,96v2.32h-.87V97.8a1.43,1.43,0,0,1-1.25.54c-.91,0-1.48-.5-1.48-1.19s.45-1.18,1.65-1.18h1v-.06c0-.55-.32-.87-1-.87a2,2,0,0,0-1.21.4l-.36-.68a2.76,2.76,0,0,1,1.68-.49C377,94.27,377.61,94.81,377.61,96ZM376.68,97v-.46h-.95c-.64,0-.81.24-.81.53s.29.55.76.55A1,1,0,0,0,376.68,97Z" transform="translate(-3.93 -5.75)"/><path class="cls-6" d="M385.44,96v2.27h-.93V96.13c0-.71-.33-1-.89-1s-1,.4-1,1.19v2h-.93V96.13c0-.71-.33-1-.89-1s-1,.4-1,1.19v2h-.93v-4h.89v.5a1.64,1.64,0,0,1,1.3-.55,1.51,1.51,0,0,1,1.34.66,1.84,1.84,0,0,1,1.48-.66A1.53,1.53,0,0,1,385.44,96Z" transform="translate(-3.93 -5.75)"/><path class="cls-6" d="M390.39,96.6h-3.12a1.2,1.2,0,0,0,1.29,1,1.41,1.41,0,0,0,1.07-.43l.5.57a2,2,0,0,1-1.59.65,2,2,0,0,1-2.2-2,2,2,0,0,1,2.05-2,1.94,1.94,0,0,1,2,2C390.4,96.4,390.39,96.51,390.39,96.6ZM387.26,96h2.26a1.14,1.14,0,0,0-2.26,0Z" transform="translate(-3.93 -5.75)"/><path class="cls-2" d="M359.52,120.85v1.8h-.73v-1.82l-2.07-3.38h.8l1.66,2.74,1.67-2.74h.74Z" transform="translate(-3.93 -5.75)"/><path class="cls-2" d="M361.43,120.68a2,2,0,1,1,2.05,2A2,2,0,0,1,361.43,120.68Zm3.37,0a1.33,1.33,0,1,0-2.65,0,1.33,1.33,0,1,0,2.65,0Z" transform="translate(-3.93 -5.75)"/><path class="cls-2" d="M370.18,118.71v3.94h-.67v-.6a1.6,1.6,0,0,1-1.34.64,1.54,1.54,0,0,1-1.69-1.71v-2.27h.71v2.18c0,.78.39,1.16,1.06,1.16a1.16,1.16,0,0,0,1.22-1.31v-2Z" transform="translate(-3.93 -5.75)"/><path class="cls-2" d="M373.66,118.67v.69h-.16a1.18,1.18,0,0,0-1.24,1.34v2h-.71v-3.94h.68v.66A1.5,1.5,0,0,1,373.66,118.67Z" transform="translate(-3.93 -5.75)"/><path class="cls-2" d="M381.17,117.45v5.2h-.61l-3.12-3.88v3.88h-.74v-5.2h.61l3.12,3.87v-3.87Z" transform="translate(-3.93 -5.75)"/><path class="cls-2" d="M385.75,120.27v2.38h-.67v-.52a1.49,1.49,0,0,1-1.3.56c-.89,0-1.45-.47-1.45-1.16s.4-1.15,1.58-1.15H385v-.14c0-.6-.35-.95-1.06-.95a2,2,0,0,0-1.25.42l-.29-.53a2.59,2.59,0,0,1,1.62-.51C385.14,118.67,385.75,119.19,385.75,120.27Zm-.71,1.17v-.55h-1.1c-.71,0-.91.28-.91.61s.33.64.87.64A1.14,1.14,0,0,0,385,121.44Z" transform="translate(-3.93 -5.75)"/><path class="cls-2" d="M393.62,120.38v2.27h-.72v-2.19c0-.77-.37-1.15-1-1.15s-1.18.45-1.18,1.31v2H390v-2.19c0-.77-.37-1.15-1-1.15s-1.18.45-1.18,1.31v2h-.71v-3.94h.68v.59a1.57,1.57,0,0,1,1.36-.63,1.47,1.47,0,0,1,1.37.73,1.74,1.74,0,0,1,1.51-.73A1.52,1.52,0,0,1,393.62,120.38Z" transform="translate(-3.93 -5.75)"/><path class="cls-2" d="M398.5,120.92h-3.2a1.34,1.34,0,0,0,1.43,1.15,1.48,1.48,0,0,0,1.14-.48l.39.46a2.15,2.15,0,0,1-3.67-1.37,1.93,1.93,0,0,1,2-2,1.89,1.89,0,0,1,1.94,2A1.7,1.7,0,0,1,398.5,120.92Zm-3.2-.52h2.53a1.27,1.27,0,0,0-2.53,0Z" transform="translate(-3.93 -5.75)"/><path class="cls-7" d="M395.49,92.47l-.85,1.12v0l1.35-.18V94l-1.35-.16v0L395.5,95l-.56.32L394.4,94h0l-.58,1.26-.51-.32.85-1.09h0l-1.32.16v-.6l1.31.17v0l-.84-1.09.55-.31.55,1.24h0l.54-1.25Z" transform="translate(-3.93 -5.75)"/><path class="cls-6" d="M175.6,203.53a2.65,2.65,0,0,1,2.78-2.67,2.61,2.61,0,0,1,2.06.87l-.62.58a1.83,1.83,0,0,0-1.39-.61,1.83,1.83,0,1,0,0,3.66,1.8,1.8,0,0,0,1.39-.62l.62.6a2.81,2.81,0,0,1-4.84-1.81Z" transform="translate(-3.93 -5.75)"/><path class="cls-6" d="M180.81,204.15a2.12,2.12,0,1,1,2.11,2A2,2,0,0,1,180.81,204.15Zm3.29,0a1.18,1.18,0,1,0-1.18,1.24A1.16,1.16,0,0,0,184.1,204.15Z" transform="translate(-3.93 -5.75)"/><path class="cls-6" d="M189.84,203.86v2.27h-.93V204c0-.71-.35-1-.94-1a1.05,1.05,0,0,0-1.11,1.2v2h-.93v-4h.88v.52a1.72,1.72,0,0,1,1.37-.56A1.55,1.55,0,0,1,189.84,203.86Z" transform="translate(-3.93 -5.75)"/><path class="cls-6" d="M193.41,205.92a1.45,1.45,0,0,1-.89.27,1.23,1.23,0,0,1-1.37-1.34v-1.91h-.66v-.75h.66v-.9h.93v.9h1.06v.75h-1.06v1.89c0,.38.19.59.55.59a.85.85,0,0,0,.52-.16Z" transform="translate(-3.93 -5.75)"/><path class="cls-6" d="M197.5,203.81v2.32h-.88v-.48a1.41,1.41,0,0,1-1.25.54c-.91,0-1.48-.5-1.48-1.19s.45-1.19,1.65-1.19h1v-.06c0-.54-.33-.86-1-.86a1.9,1.9,0,0,0-1.2.4l-.37-.68a2.78,2.78,0,0,1,1.68-.49C196.83,202.12,197.5,202.66,197.5,203.81Zm-.93,1.08v-.46h-1c-.63,0-.8.24-.8.53s.28.55.75.55A1,1,0,0,0,196.57,204.89Z" transform="translate(-3.93 -5.75)"/><path class="cls-6" d="M198.4,204.15a2,2,0,0,1,2.14-2,1.8,1.8,0,0,1,1.7.92l-.71.42a1.13,1.13,0,0,0-1-.55,1.24,1.24,0,0,0,0,2.48,1.13,1.13,0,0,0,1-.55l.71.42a1.82,1.82,0,0,1-1.7.93A2,2,0,0,1,198.4,204.15Z" transform="translate(-3.93 -5.75)"/><path class="cls-6" d="M205.48,205.92a1.45,1.45,0,0,1-.89.27,1.23,1.23,0,0,1-1.37-1.34v-1.91h-.65v-.75h.65v-.9h.93v.9h1.06v.75h-1.06v1.89c0,.38.19.59.55.59a.85.85,0,0,0,.52-.16Z" transform="translate(-3.93 -5.75)"/><path class="cls-6" d="M214.18,200.93v5.2h-.79l-2.87-3.52v3.52h-1v-5.2h.79l2.87,3.52v-3.52Z" transform="translate(-3.93 -5.75)"/><path class="cls-6" d="M219.33,202.16v4h-.88v-.5a1.65,1.65,0,0,1-1.28.56,1.57,1.57,0,0,1-1.71-1.76v-2.27h.93v2.14c0,.73.34,1.07.93,1.07s1.08-.4,1.08-1.2v-2Z" transform="translate(-3.93 -5.75)"/><path class="cls-6" d="M227.19,203.86v2.27h-.93V204c0-.71-.33-1-.89-1s-1,.4-1,1.19v2h-.93V204c0-.71-.33-1-.89-1s-1,.4-1,1.19v2h-.93v-4h.89v.51a1.64,1.64,0,0,1,1.3-.55,1.51,1.51,0,0,1,1.34.66,1.84,1.84,0,0,1,1.48-.66A1.53,1.53,0,0,1,227.19,203.86Z" transform="translate(-3.93 -5.75)"/><path class="cls-6" d="M232.6,204.15a1.94,1.94,0,0,1-2,2,1.63,1.63,0,0,1-1.31-.57v.51h-.89v-5.51h.93v2a1.65,1.65,0,0,1,1.27-.53A1.93,1.93,0,0,1,232.6,204.15Zm-.95,0a1.18,1.18,0,1,0-1.17,1.24A1.15,1.15,0,0,0,231.65,204.15Z" transform="translate(-3.93 -5.75)"/><path class="cls-6" d="M237.2,204.45h-3.12a1.21,1.21,0,0,0,1.29,1,1.43,1.43,0,0,0,1.08-.43l.49.57a2,2,0,0,1-1.59.65,2,2,0,0,1-2.2-2,2,2,0,0,1,2.06-2,1.93,1.93,0,0,1,2,2A2.72,2.72,0,0,1,237.2,204.45Zm-3.12-.62h2.25a1.14,1.14,0,0,0-2.25,0Z" transform="translate(-3.93 -5.75)"/><path class="cls-6" d="M240.4,202.12V203l-.21,0a1.09,1.09,0,0,0-1.16,1.23v1.92h-.92v-4H239v.58A1.57,1.57,0,0,1,240.4,202.12Z" transform="translate(-3.93 -5.75)"/><path class="cls-6" d="M181.6,258.59H179l-.51,1.2h-1l2.34-5.2h1l2.34,5.2h-1Zm-.32-.76-1-2.27-1,2.27Z" transform="translate(-3.93 -5.75)"/><path class="cls-6" d="M187.56,254.28v5.51h-.89v-.51a1.65,1.65,0,0,1-1.32.56,2,2,0,0,1,0-4.06,1.64,1.64,0,0,1,1.28.53v-2Zm-.92,3.53a1.18,1.18,0,1,0-1.18,1.24A1.16,1.16,0,0,0,186.64,257.81Z" transform="translate(-3.93 -5.75)"/><path class="cls-6" d="M192.67,254.28v5.51h-.9v-.51a1.62,1.62,0,0,1-1.31.56,2,2,0,0,1,0-4.06,1.65,1.65,0,0,1,1.28.53v-2Zm-.92,3.53a1.18,1.18,0,1,0-1.18,1.24A1.16,1.16,0,0,0,191.75,257.81Z" transform="translate(-3.93 -5.75)"/><path class="cls-6" d="M196.18,255.78v.88l-.21,0a1.09,1.09,0,0,0-1.16,1.23v1.92h-.92v-4h.88v.58A1.57,1.57,0,0,1,196.18,255.78Z" transform="translate(-3.93 -5.75)"/><path class="cls-6" d="M200.65,258.11h-3.11a1.19,1.19,0,0,0,1.28.95,1.42,1.42,0,0,0,1.08-.43l.5.57a2,2,0,0,1-1.6.64,2,2,0,0,1-2.19-2,2,2,0,0,1,2-2,1.93,1.93,0,0,1,2,2C200.66,257.9,200.66,258,200.65,258.11Zm-3.12-.62h2.25a1.08,1.08,0,0,0-1.12-1A1.1,1.1,0,0,0,197.53,257.49Z" transform="translate(-3.93 -5.75)"/><path class="cls-6" d="M201.1,259.4l.36-.71a2.69,2.69,0,0,0,1.38.4c.59,0,.84-.17.84-.44,0-.76-2.46,0-2.46-1.63,0-.75.68-1.24,1.75-1.24a3.24,3.24,0,0,1,1.49.34l-.36.71a2.12,2.12,0,0,0-1.14-.3c-.56,0-.83.19-.83.45,0,.8,2.45.08,2.45,1.64,0,.74-.68,1.22-1.8,1.22A3.19,3.19,0,0,1,201.1,259.4Z" transform="translate(-3.93 -5.75)"/><path class="cls-6" d="M204.93,259.4l.36-.71a2.66,2.66,0,0,0,1.38.4c.59,0,.83-.17.83-.44,0-.76-2.45,0-2.45-1.63,0-.75.68-1.24,1.75-1.24a3.17,3.17,0,0,1,1.48.34l-.35.71a2.12,2.12,0,0,0-1.14-.3c-.56,0-.83.19-.83.45,0,.8,2.45.08,2.45,1.64,0,.74-.68,1.22-1.8,1.22A3.19,3.19,0,0,1,204.93,259.4Z" transform="translate(-3.93 -5.75)"/><path class="cls-2" d="M184.89,337.29l2.16,1.22-.56,1-2.21-1.29,0,2.48h-1.09l0-2.48-2.2,1.29-.57-1,2.19-1.22-2.19-1.2.57-1,2.2,1.29,0-2.45h1.09l0,2.45,2.21-1.29.56,1Z" transform="translate(-3.93 -5.75)"/><path class="cls-2" d="M192.53,337.29l2.16,1.22-.56,1-2.2-1.29,0,2.48h-1.1l0-2.48-2.2,1.29-.57-1,2.19-1.22-2.19-1.2.57-1,2.2,1.29,0-2.45H192l0,2.45,2.2-1.29.56,1Z" transform="translate(-3.93 -5.75)"/><path class="cls-2" d="M200.17,337.29l2.17,1.22-.57,1-2.2-1.29,0,2.48H198.5v-2.48l-2.2,1.29-.56-1,2.18-1.22-2.18-1.2.56-1,2.2,1.29v-2.45h1.09l0,2.45,2.2-1.29.57,1Z" transform="translate(-3.93 -5.75)"/><path class="cls-2" d="M207.81,337.29l2.17,1.22-.56,1-2.21-1.29,0,2.48h-1.09l0-2.48-2.2,1.29-.57-1,2.19-1.22-2.19-1.2.57-1,2.2,1.29,0-2.45h1.09l0,2.45,2.21-1.29.56,1Z" transform="translate(-3.93 -5.75)"/><path class="cls-2" d="M215.46,337.29l2.16,1.22-.56,1-2.2-1.29v2.48h-1.09l0-2.48-2.2,1.29-.57-1,2.19-1.22-2.19-1.2.57-1,2.2,1.29,0-2.45h1.09v2.45l2.2-1.29.56,1Z" transform="translate(-3.93 -5.75)"/><path class="cls-2" d="M223.1,337.29l2.17,1.22-.57,1-2.2-1.29,0,2.48h-1.09v-2.48l-2.2,1.29-.56-1,2.18-1.22-2.18-1.2.56-1,2.2,1.29v-2.45h1.09l0,2.45,2.2-1.29.57,1Z" transform="translate(-3.93 -5.75)"/><path class="cls-2" d="M230.74,337.29l2.17,1.22-.57,1-2.2-1.29,0,2.48h-1.09l0-2.48-2.21,1.29-.56-1,2.18-1.22-2.18-1.2.56-1,2.21,1.29,0-2.45h1.09l0,2.45,2.2-1.29.57,1Z" transform="translate(-3.93 -5.75)"/><path class="cls-6" d="M346.51,261.52l.33-.75a2.93,2.93,0,0,0,1.72.57c.81,0,1.15-.29,1.15-.68,0-1.12-3.09-.38-3.09-2.32,0-.84.67-1.55,2.09-1.55a3.3,3.3,0,0,1,1.74.46l-.31.75a3,3,0,0,0-1.43-.41c-.81,0-1.13.32-1.13.71,0,1.11,3.08.39,3.08,2.3,0,.83-.68,1.54-2.1,1.54A3.36,3.36,0,0,1,346.51,261.52Z" transform="translate(-3.93 -5.75)"/><path class="cls-6" d="M353.92,261.85a1.47,1.47,0,0,1-.89.27,1.22,1.22,0,0,1-1.37-1.34v-1.91H351v-.74h.66v-.91h.93v.91h1.06v.74h-1.06v1.89c0,.39.19.59.55.59a.85.85,0,0,0,.52-.16Z" transform="translate(-3.93 -5.75)"/><path class="cls-6" d="M358,259.74v2.33h-.88v-.49a1.38,1.38,0,0,1-1.25.54c-.91,0-1.48-.5-1.48-1.19s.45-1.18,1.65-1.18h1v-.06c0-.54-.33-.86-1-.86a2,2,0,0,0-1.21.39l-.36-.68a2.83,2.83,0,0,1,1.68-.49C357.34,258.05,358,258.6,358,259.74Zm-.93,1.09v-.47h-1c-.63,0-.8.24-.8.53s.28.55.75.55A1,1,0,0,0,357.08,260.83Z" transform="translate(-3.93 -5.75)"/><path class="cls-6" d="M361.58,261.85a1.45,1.45,0,0,1-.89.27,1.22,1.22,0,0,1-1.37-1.34v-1.91h-.65v-.74h.65v-.91h.93v.91h1.06v.74h-1.06v1.89c0,.39.2.59.55.59a.83.83,0,0,0,.52-.16Z" transform="translate(-3.93 -5.75)"/><path class="cls-6" d="M365.93,260.38h-3.11a1.19,1.19,0,0,0,1.28.95,1.42,1.42,0,0,0,1.08-.43l.5.57a2.23,2.23,0,0,1-3.79-1.39,2,2,0,0,1,2.05-2,1.94,1.94,0,0,1,2,2.05C366,260.18,365.94,260.29,365.93,260.38Zm-3.12-.62h2.25a1.07,1.07,0,0,0-1.12-1A1.09,1.09,0,0,0,362.81,259.76Z" transform="translate(-3.93 -5.75)"/><path class="cls-6" d="M180.32,313.28c0,1.14-.84,1.85-2.21,1.85h-1.18v1.5h-1v-5.2h2.14C179.48,311.43,180.32,312.13,180.32,313.28Zm-1,0c0-.66-.44-1-1.29-1h-1.13v2.07h1.13C178.91,314.31,179.35,313.93,179.35,313.28Z" transform="translate(-3.93 -5.75)"/><path class="cls-6" d="M184.49,314.3v2.33h-.88v-.48a1.4,1.4,0,0,1-1.25.53c-.91,0-1.48-.5-1.48-1.19s.45-1.18,1.65-1.18h1v-.06c0-.54-.33-.86-1-.86a2,2,0,0,0-1.2.39l-.37-.67a2.78,2.78,0,0,1,1.68-.49C183.83,312.62,184.49,313.16,184.49,314.3Zm-.93,1.09v-.46h-1c-.63,0-.8.23-.8.52s.28.55.75.55A1,1,0,0,0,183.56,315.39Z" transform="translate(-3.93 -5.75)"/><path class="cls-6" d="M185.22,316.23l.36-.7a2.69,2.69,0,0,0,1.38.39c.59,0,.84-.16.84-.44,0-.75-2.46,0-2.46-1.62,0-.75.68-1.24,1.75-1.24a3.12,3.12,0,0,1,1.49.34l-.36.7a2.2,2.2,0,0,0-1.14-.29c-.56,0-.83.18-.83.44,0,.8,2.45.09,2.45,1.64,0,.75-.68,1.23-1.8,1.23A3.1,3.1,0,0,1,185.22,316.23Z" transform="translate(-3.93 -5.75)"/><path class="cls-6" d="M189.05,316.23l.36-.7a2.66,2.66,0,0,0,1.38.39c.59,0,.83-.16.83-.44,0-.75-2.45,0-2.45-1.62,0-.75.68-1.24,1.75-1.24a3.05,3.05,0,0,1,1.48.34l-.35.7a2.2,2.2,0,0,0-1.14-.29c-.56,0-.83.18-.83.44,0,.8,2.45.09,2.45,1.64,0,.75-.68,1.23-1.8,1.23A3.1,3.1,0,0,1,189.05,316.23Z" transform="translate(-3.93 -5.75)"/><path class="cls-6" d="M199.45,312.66l-1.46,4h-.89l-1-2.74-1,2.74h-.89l-1.46-4h.88l1.05,2.93,1.09-2.93h.78l1.07,2.94,1.08-2.94Z" transform="translate(-3.93 -5.75)"/><path class="cls-6" d="M199.65,314.64a2.12,2.12,0,1,1,2.11,2A2,2,0,0,1,199.65,314.64Zm3.3,0a1.18,1.18,0,1,0-1.19,1.25A1.16,1.16,0,0,0,203,314.64Z" transform="translate(-3.93 -5.75)"/><path class="cls-6" d="M207.07,312.62v.88a.82.82,0,0,0-.21,0,1.07,1.07,0,0,0-1.15,1.22v1.93h-.93v-4h.88v.58A1.55,1.55,0,0,1,207.07,312.62Z" transform="translate(-3.93 -5.75)"/><path class="cls-6" d="M211.71,311.11v5.52h-.89v-.51a1.66,1.66,0,0,1-1.32.56,2,2,0,0,1,0-4.06,1.63,1.63,0,0,1,1.28.53v-2Zm-.91,3.53a1.19,1.19,0,1,0-1.18,1.25A1.17,1.17,0,0,0,210.8,314.64Z" transform="translate(-3.93 -5.75)"/><path class="cls-7" d="M479.46,350.65a9,9,0,0,0,1.56-.29,5.41,5.41,0,0,0,3.28-2.92,6.69,6.69,0,0,0,.46-3.21c0-1.21,0-2.53,0-3.94,0-2.84,0-6.06,0-9.62a7.63,7.63,0,0,0-.27-2.65,5.22,5.22,0,0,0-1.52-2.26,5,5,0,0,0-2.54-1.22,23.47,23.47,0,0,0-3.05-.08l-13.38,0-30.67,0a5.18,5.18,0,0,0-5.15,4.72c-.05,2.61,0,5.25,0,7.8v7.55a5.59,5.59,0,0,0,.78,3.38,5.19,5.19,0,0,0,2.59,2.13,9.2,9.2,0,0,0,3.37.33h9.89l11.66,0,16.89.08,4.59,0,1.19,0,.41,0-.41,0-1.19,0-4.59.05-16.89.08-11.66,0h-9.89c-.58,0-1.15,0-1.74,0a5.22,5.22,0,0,1-1.79-.34,5.69,5.69,0,0,1-2.85-2.32,6.12,6.12,0,0,1-.86-3.64q0-3.69,0-7.55c0-2.57,0-5.15,0-7.84a5.71,5.71,0,0,1,5.67-5.2l30.67,0,13.38,0a25.07,25.07,0,0,1,3.12.09,5.61,5.61,0,0,1,2.74,1.34,5.5,5.5,0,0,1,1.61,2.44,8,8,0,0,1,.28,2.77c0,3.56,0,6.78,0,9.62,0,1.41,0,2.73,0,3.94a6.82,6.82,0,0,1-.53,3.29,5.46,5.46,0,0,1-3.43,2.94A4.47,4.47,0,0,1,479.46,350.65Z" transform="translate(-3.93 -5.75)"/><path class="cls-7" d="M438.43,337.82a3,3,0,0,1,5.21-1.85l-.81.75a1.77,1.77,0,0,0-1.38-.64,1.75,1.75,0,0,0,0,3.49,1.75,1.75,0,0,0,1.38-.65l.81.75a3,3,0,0,1-5.21-1.85Z" transform="translate(-3.93 -5.75)"/><path class="cls-7" d="M443.94,338.46a2.31,2.31,0,1,1,2.31,2.16A2.16,2.16,0,0,1,443.94,338.46Zm3.38,0a1.08,1.08,0,1,0-1.07,1.16A1.06,1.06,0,0,0,447.32,338.46Z" transform="translate(-3.93 -5.75)"/><path class="cls-7" d="M453.65,338.15v2.4h-1.22v-2.21c0-.68-.31-1-.85-1s-1,.36-1,1.13v2.07h-1.21v-4.19h1.16v.49a1.84,1.84,0,0,1,1.39-.55A1.64,1.64,0,0,1,453.65,338.15Z" transform="translate(-3.93 -5.75)"/><path class="cls-7" d="M457.45,340.35a1.74,1.74,0,0,1-1,.27,1.39,1.39,0,0,1-1.57-1.51v-1.72h-.64v-.94h.64v-1h1.22v1h1v.94h-1v1.71a.49.49,0,0,0,.52.55.82.82,0,0,0,.49-.16Z" transform="translate(-3.93 -5.75)"/><path class="cls-7" d="M458,335.1a.69.69,0,0,1,.75-.68.68.68,0,0,1,.76.65.69.69,0,0,1-.76.7A.69.69,0,0,1,458,335.1Zm.14,1.26h1.22v4.19h-1.22Z" transform="translate(-3.93 -5.75)"/><path class="cls-7" d="M464.77,338.15v2.4h-1.22v-2.21c0-.68-.31-1-.85-1s-1,.36-1,1.13v2.07h-1.22v-4.19h1.16v.49a1.84,1.84,0,0,1,1.39-.55A1.64,1.64,0,0,1,464.77,338.15Z" transform="translate(-3.93 -5.75)"/><path class="cls-7" d="M470.09,336.36v4.19h-1.15v-.5a1.7,1.7,0,0,1-1.3.57,1.68,1.68,0,0,1-1.8-1.89v-2.37h1.22v2.19c0,.7.31,1,.85,1s1-.36,1-1.13v-2.07Z" transform="translate(-3.93 -5.75)"/><path class="cls-7" d="M475.31,338.8h-3.18a1.13,1.13,0,0,0,1.21.84,1.43,1.43,0,0,0,1.05-.4l.65.7a2.23,2.23,0,0,1-1.74.68,2.18,2.18,0,0,1-2.39-2.16,2.13,2.13,0,0,1,2.24-2.16,2.07,2.07,0,0,1,2.18,2.17C475.33,338.56,475.32,338.7,475.31,338.8Zm-3.19-.71h2.07a1,1,0,0,0-1-.87A1,1,0,0,0,472.12,338.09Z" transform="translate(-3.93 -5.75)"/><rect class="cls-7" x="356.74" y="318.5" width="57.05" height="26.4" rx="5.43"/><path class="cls-5" d="M379.91,340l.43-1a3.16,3.16,0,0,0,1.8.57c.75,0,1.05-.25,1.05-.58,0-1-3.17-.32-3.17-2.35,0-.93.75-1.7,2.3-1.7a3.74,3.74,0,0,1,1.89.48l-.39,1a3.14,3.14,0,0,0-1.51-.42c-.75,0-1,.28-1,.62,0,1,3.18.31,3.18,2.31,0,.92-.76,1.7-2.32,1.7A3.9,3.9,0,0,1,379.91,340Z" transform="translate(-3.93 -5.75)"/><path class="cls-5" d="M388.94,338.16v2.39H387.8V340a1.4,1.4,0,0,1-1.28.59c-1,0-1.57-.55-1.57-1.28s.52-1.25,1.8-1.25h1c0-.52-.31-.83-1-.83a2.06,2.06,0,0,0-1.21.39l-.43-.85a3.29,3.29,0,0,1,1.81-.5C388.2,336.3,388.94,336.89,388.94,338.16Zm-1.22,1.07v-.43h-.83c-.57,0-.75.21-.75.49s.25.51.68.51A.9.9,0,0,0,387.72,339.23Z" transform="translate(-3.93 -5.75)"/><path class="cls-5" d="M394.12,336.36l-1.77,4.19h-1.26l-1.76-4.19h1.26l1.16,2.85,1.2-2.85Z" transform="translate(-3.93 -5.75)"/><path class="cls-5" d="M398.59,338.8h-3.18a1.12,1.12,0,0,0,1.2.84,1.44,1.44,0,0,0,1.06-.4l.64.7a2.21,2.21,0,0,1-1.73.68,2.18,2.18,0,0,1-2.39-2.16,2.13,2.13,0,0,1,2.24-2.16,2.07,2.07,0,0,1,2.18,2.17C398.61,338.56,398.59,338.7,398.59,338.8Zm-3.19-.71h2.06a1,1,0,0,0-2.06,0Z" transform="translate(-3.93 -5.75)"/><path class="cls-2" d="M185.62,229.64v1.8h-.73v-1.82l-2.07-3.39h.8l1.66,2.75,1.67-2.75h.74Z" transform="translate(-3.93 -5.75)"/><path class="cls-2" d="M187.53,229.47a2,2,0,1,1,2.05,2A2,2,0,0,1,187.53,229.47Zm3.37,0a1.33,1.33,0,1,0-1.32,1.38A1.3,1.3,0,0,0,190.9,229.47Z" transform="translate(-3.93 -5.75)"/><path class="cls-2" d="M196.28,227.5v3.94h-.67v-.6a1.6,1.6,0,0,1-1.34.64,1.55,1.55,0,0,1-1.69-1.72V227.5h.71v2.18c0,.77.39,1.16,1.06,1.16a1.16,1.16,0,0,0,1.22-1.31v-2Z" transform="translate(-3.93 -5.75)"/><path class="cls-2" d="M199.76,227.46v.69h-.16a1.18,1.18,0,0,0-1.24,1.33v2h-.71V227.5h.68v.66A1.5,1.5,0,0,1,199.76,227.46Z" transform="translate(-3.93 -5.75)"/><path class="cls-2" d="M207.27,226.23v5.21h-.61l-3.12-3.88v3.88h-.74v-5.21h.61l3.12,3.88v-3.88Z" transform="translate(-3.93 -5.75)"/><path class="cls-2" d="M212.4,227.5v3.94h-.67v-.6a1.6,1.6,0,0,1-1.34.64,1.55,1.55,0,0,1-1.7-1.72V227.5h.72v2.18c0,.77.38,1.16,1.06,1.16a1.16,1.16,0,0,0,1.22-1.31v-2Z" transform="translate(-3.93 -5.75)"/><path class="cls-2" d="M220.3,229.17v2.27h-.71v-2.19c0-.77-.37-1.15-1-1.15s-1.18.45-1.18,1.31v2h-.71v-2.19c0-.77-.37-1.15-1-1.15s-1.18.45-1.18,1.31v2h-.72V227.5h.69v.58a1.59,1.59,0,0,1,1.36-.62,1.45,1.45,0,0,1,1.36.73,1.78,1.78,0,0,1,1.52-.73A1.51,1.51,0,0,1,220.3,229.17Z" transform="translate(-3.93 -5.75)"/><path class="cls-2" d="M225.7,229.47a1.92,1.92,0,0,1-2,2,1.63,1.63,0,0,1-1.4-.67v.63h-.69v-5.52h.71v2.17a1.7,1.7,0,0,1,1.38-.63A1.91,1.91,0,0,1,225.7,229.47Zm-.72,0a1.33,1.33,0,1,0-1.33,1.38A1.3,1.3,0,0,0,225,229.47Z" transform="translate(-3.93 -5.75)"/><path class="cls-2" d="M230.24,229.7H227a1.33,1.33,0,0,0,1.43,1.15,1.45,1.45,0,0,0,1.13-.47l.4.46a2.15,2.15,0,0,1-3.67-1.37,1.93,1.93,0,0,1,2-2,1.9,1.9,0,0,1,1.95,2C230.25,229.55,230.24,229.64,230.24,229.7Zm-3.2-.51h2.53a1.27,1.27,0,0,0-2.53,0Z" transform="translate(-3.93 -5.75)"/><path class="cls-2" d="M233.36,227.46v.69h-.16a1.17,1.17,0,0,0-1.24,1.33v2h-.72V227.5h.69v.66A1.5,1.5,0,0,1,233.36,227.46Z" transform="translate(-3.93 -5.75)"/><rect class="cls-7" x="136.83" y="47.58" width="407.96" height="24.97"/><path class="cls-5" d="M165.09,64.59v1.66H168v1.16h-2.89v2.27h-1.44V63.43h4.72v1.16Z" transform="translate(-3.93 -5.75)"/><path class="cls-5" d="M168.89,66.56a3.43,3.43,0,1,1,3.42,3.23A3.23,3.23,0,0,1,168.89,66.56Zm5.37,0a2,2,0,1,0-1.95,2A1.9,1.9,0,0,0,174.26,66.56Z" transform="translate(-3.93 -5.75)"/><path class="cls-5" d="M180.79,69.68l-1.2-1.74h-1.33v1.74h-1.45V63.43h2.71c1.67,0,2.71.87,2.71,2.27a2,2,0,0,1-1.28,2l1.4,2Zm-1.35-5.07h-1.18v2.18h1.18c.88,0,1.33-.41,1.33-1.09S180.32,64.61,179.44,64.61Z" transform="translate(-3.93 -5.75)"/><path class="cls-5" d="M189.06,69.68V65.93L187.21,69h-.65l-1.83-3v3.67h-1.36V63.43h1.2l2.34,3.89,2.3-3.89h1.19v6.25Z" transform="translate(-3.93 -5.75)"/><path class="cls-6" d="M548.59,54,141,54l.24-.23c-.05,95.08-.09,203.72-.15,318.58v0l-.26-.26,407.56.26-.22.22c.23-192.32.38-316.82.38-318.62,0,1.79,0,126.3,0,318.62v.21h-.21l-407.56-.17h-.26v-.29c.07-114.86.14-223.5.2-318.58v-.24H141Z" transform="translate(-3.93 -5.75)"/></g><g id="Plant"><rect class="cls-6" x="65.89" y="392.22" width="73.5" height="10.1"/><path class="cls-6" d="M143.45,408.2H69.69V397.85h73.76ZM69.94,408h73.25V398.1H69.94Z" transform="translate(-3.93 -5.75)"/><polygon class="cls-6" points="72.7 398.96 83.28 451.16 122.43 451.16 132.66 402.32 72.7 398.96"/><polygon class="cls-8" points="72.7 446.22 78.35 453.98 125.93 453.98 132.66 446.22 72.7 446.22"/><path class="cls-6" d="M103.81,406.23c-.15,0-.33-24.18-.42-54s0-54,.11-54,.33,24.18.42,54S104,406.23,103.81,406.23Z" transform="translate(-3.93 -5.75)"/><path class="cls-6" d="M120.18,345.72a2.13,2.13,0,0,1-.2.56c-.17.41-.38.93-.65,1.57-.15.34-.31.72-.48,1.13l-.49,1.37-.57,1.57c-.19.56-.35,1.17-.54,1.8a74.34,74.34,0,0,0-2.06,9A110.24,110.24,0,0,0,114.06,374a150.54,150.54,0,0,0,.58,20.56c.23,2.62.47,4.75.65,6.21.07.69.13,1.25.18,1.69a2.2,2.2,0,0,1,0,.59,2.45,2.45,0,0,1-.13-.58c-.08-.44-.17-1-.29-1.67-.23-1.46-.53-3.58-.81-6.2a135.18,135.18,0,0,1-.74-20.62,100.52,100.52,0,0,1,1.19-11.31,66.33,66.33,0,0,1,2.18-9c.2-.63.37-1.24.58-1.8s.41-1.07.61-1.57.36-.94.53-1.36.36-.78.52-1.11c.31-.62.55-1.13.75-1.53A3.3,3.3,0,0,1,120.18,345.72Z" transform="translate(-3.93 -5.75)"/><path class="cls-6" d="M118.3,326.16a4,4,0,0,1-.23.8l-.77,2.25c-.17.49-.35,1-.56,1.62l-.59,1.95c-.43,1.4-.93,3-1.37,4.78-.24.89-.48,1.83-.74,2.8s-.45,2-.69,3.05c-.51,2.11-.88,4.4-1.36,6.78-.81,4.81-1.52,10.12-2,15.72s-.67,11-.74,15.83.05,9.26.25,12.94c.06,1.84.18,3.51.28,5s.17,2.72.27,3.75.13,1.78.18,2.37a4.61,4.61,0,0,1,0,.82,6.43,6.43,0,0,1-.13-.81c-.07-.59-.16-1.38-.28-2.36s-.24-2.29-.36-3.75-.26-3.12-.35-5c-.25-3.68-.35-8.08-.36-13s.23-10.26.7-15.88,1.22-10.94,2.06-15.75c.49-2.39.88-4.68,1.41-6.79l.72-3.06c.27-1,.53-1.91.77-2.8.47-1.78,1-3.37,1.45-4.77l.64-1.94c.22-.58.42-1.12.6-1.61.36-.93.65-1.66.86-2.22A7.06,7.06,0,0,1,118.3,326.16Z" transform="translate(-3.93 -5.75)"/><path class="cls-6" d="M99.16,410.51a1.18,1.18,0,0,1,0-.28c0-.22,0-.49-.07-.83,0-.77-.13-1.84-.22-3.2-.17-2.83-.43-6.84-.74-11.78-.63-9.95-1.56-23.68-3.23-38.79C94,348.08,93,340.9,92,334.4c-.54-3.25-1-6.34-1.61-9.21s-1.07-5.55-1.58-8-1-4.63-1.46-6.56-.83-3.59-1.18-4.94-.58-2.36-.76-3.11l-.19-.82a.85.85,0,0,1,0-.28,2.16,2.16,0,0,1,.09.27c.07.21.14.47.24.8.21.74.49,1.78.86,3.09s.81,3,1.27,4.92,1,4.11,1.53,6.55,1.12,5.11,1.65,8,1.1,6,1.66,9.21c1.06,6.51,2.07,13.69,2.92,21.25,1.68,15.12,2.54,28.87,3.08,38.83.27,5,.46,9,.58,11.79,0,1.36.08,2.43.11,3.2,0,.34,0,.62,0,.84A1.16,1.16,0,0,1,99.16,410.51Z" transform="translate(-3.93 -5.75)"/><path class="cls-7" d="M103.21,309.85c-.32-3.43-3.78-6-7.22-6.05s-6.65,2-8.75,4.75A27.31,27.31,0,0,0,83,317.9c-2.32,8.07-3.58,16.55-2.59,24.89s4.37,16.55,10.36,22.44c1,1,2.23,1.92,3.56,1.63a4.31,4.31,0,0,0,1.89-1.16,55.69,55.69,0,0,0,18.07-42.36c-.09-3.17-.51-6.47-2.26-9.11s-5.85-5.44-8.84-4.38" transform="translate(-3.93 -5.75)"/><path class="cls-7" d="M77.52,282.41l-4.85,8.77c-.11.21-.26.44-.49.46s-.45-.22-.59-.44L58.78,271.54l2.95-1.67Z" transform="translate(-3.93 -5.75)"/><g class="cls-9"><path d="M77.52,282.41l-4.85,8.77c-.11.21-.26.44-.49.46s-.45-.22-.59-.44L58.78,271.54l2.95-1.67Z" transform="translate(-3.93 -5.75)"/></g><path class="cls-7" d="M103.5,298.22,59.8,272.43c-.44-.26-.93-.57-1.06-1.07a2,2,0,0,1,.78-1.75,30.12,30.12,0,0,1,23.35-9.18A26.68,26.68,0,0,1,104,273.56c4.22,7.54,4.36,17.51-.48,24.66" transform="translate(-3.93 -5.75)"/><path class="cls-6" d="M66.1,264.2a2.41,2.41,0,0,1,.57-.07c.38,0,.94-.09,1.66-.08a33.52,33.52,0,0,1,6.06.48A35,35,0,0,1,99.2,281.8a34.81,34.81,0,0,1,3.47,8.33,32.49,32.49,0,0,1,1.09,6,9.74,9.74,0,0,1,.06,1.28,2.14,2.14,0,0,1-.33.95,7.65,7.65,0,0,0,.07-2.21,37.82,37.82,0,0,0-1.24-5.9,35.71,35.71,0,0,0-28-25.33,35.71,35.71,0,0,0-6-.64C66.9,264.22,66.1,264.25,66.1,264.2Z" transform="translate(-3.93 -5.75)"/><path class="cls-6" d="M97.59,280.42a10.45,10.45,0,0,1-2.21,1c-1.39.54-3.34,1.25-5.51,1.94s-4.18,1.24-5.63,1.59a10.29,10.29,0,0,1-2.38.46,11.58,11.58,0,0,1,2.28-.81l5.57-1.74,5.55-1.79A11.81,11.81,0,0,1,97.59,280.42Z" transform="translate(-3.93 -5.75)"/><path class="cls-6" d="M90.71,261.94a18.28,18.28,0,0,1,.51,4.87,17.7,17.7,0,0,1-.27,4.9,32,32,0,0,1-.25-4.88A30.75,30.75,0,0,1,90.71,261.94Z" transform="translate(-3.93 -5.75)"/><path class="cls-6" d="M59.42,271.94a20.8,20.8,0,0,1,3.18-1.11c2-.61,4.75-1.39,7.83-2.13s5.9-1.31,7.94-1.67a19.4,19.4,0,0,1,3.34-.45,24.59,24.59,0,0,1-3.26.81c-2,.45-4.82,1.08-7.9,1.82s-5.84,1.45-7.85,2A22,22,0,0,1,59.42,271.94Z" transform="translate(-3.93 -5.75)"/><path class="cls-7" d="M85.07,302.41c-3.76-2.85-7.73-3.41-12.45-3.22A37.94,37.94,0,0,0,59,302.7c-7.37,3.23-14.29,8-18.7,14.72s-5.93,15.65-2.63,23a3.24,3.24,0,0,0,1.49,1.81,3.57,3.57,0,0,0,2.46-.19c8.39-2.74,16.83-5.5,24.53-9.78S80.87,322,85,314.23a15.48,15.48,0,0,0,2-6,7.41,7.41,0,0,0-1.92-5.84" transform="translate(-3.93 -5.75)"/><path class="cls-6" d="M85.15,301.53a3.19,3.19,0,0,1-.61.24l-1.75.61-1.28.42c-.46.17-1,.37-1.48.58-1.06.43-2.29.86-3.59,1.49l-2,.93c-.72.33-1.43.74-2.18,1.12-1.52.75-3.06,1.7-4.69,2.67A74.05,74.05,0,0,0,49,325.85c-1.17,1.5-2.31,2.91-3.25,4.32-.47.7-1,1.35-1.38,2s-.81,1.3-1.19,1.92c-.79,1.2-1.37,2.37-1.93,3.36-.28.51-.54,1-.77,1.4l-.58,1.21c-.34.68-.61,1.24-.82,1.67a3.29,3.29,0,0,1-.32.56,3.11,3.11,0,0,1,.22-.61c.19-.44.44-1,.74-1.71l.54-1.23c.21-.44.47-.91.73-1.42.54-1,1.1-2.2,1.87-3.42q.55-.94,1.17-1.95c.41-.68.89-1.34,1.37-2.05.92-1.43,2.06-2.85,3.22-4.37a71.8,71.8,0,0,1,18.61-16.37c1.66-1,3.21-1.91,4.75-2.65.76-.37,1.48-.77,2.2-1.09l2.08-.91c1.32-.61,2.56-1,3.64-1.42.54-.2,1-.39,1.5-.54l1.29-.39,1.79-.51A2.67,2.67,0,0,1,85.15,301.53Z" transform="translate(-3.93 -5.75)"/><path class="cls-6" d="M55.78,317.43a86.36,86.36,0,0,1-9.14,2.94,88.53,88.53,0,0,1-9.29,2.45,87.67,87.67,0,0,1,9.14-2.95A86.87,86.87,0,0,1,55.78,317.43Z" transform="translate(-3.93 -5.75)"/><path class="cls-6" d="M55.41,337.6a13.42,13.42,0,0,1-.21-2.85c0-1.76-.05-4.19,0-6.88s.22-5.12.37-6.87a15.21,15.21,0,0,1,.36-2.84A17.1,17.1,0,0,1,56,321c-.06,1.93-.13,4.27-.21,6.87s-.13,4.93-.17,6.86A17.18,17.18,0,0,1,55.41,337.6Z" transform="translate(-3.93 -5.75)"/><path class="cls-6" d="M72.69,328.8c-.15,0-.61-4.94-1-11.05s-.65-11.07-.5-11.08.6,4.93,1,11S72.83,328.79,72.69,328.8Z" transform="translate(-3.93 -5.75)"/><path class="cls-6" d="M51.18,306.19a14.53,14.53,0,0,1,2.93-.09c1.8,0,4.3.06,7,.15s5.25.21,7,.31a15.21,15.21,0,0,1,2.92.29,16.2,16.2,0,0,1-2.93.08c-1.8,0-4.3-.06-7.06-.15s-5.25-.21-7-.31A16.79,16.79,0,0,1,51.18,306.19Z" transform="translate(-3.93 -5.75)"/><path class="cls-6" d="M92.66,366.38a2.27,2.27,0,0,1-.06-.59c0-.44,0-1-.08-1.68-.07-1.46-.08-3.57,0-6.19s.22-5.72.54-9.16.83-7.22,1.53-11.15,1.6-7.63,2.49-11,1.85-6.31,2.73-8.78,1.63-4.46,2.2-5.8c.27-.63.49-1.15.67-1.55a3.06,3.06,0,0,1,.26-.53,2.4,2.4,0,0,1-.16.56l-.58,1.59c-.51,1.37-1.22,3.36-2,5.84s-1.72,5.46-2.61,8.79-1.72,7-2.44,10.95-1.21,7.68-1.57,11.1-.56,6.53-.65,9.14-.15,4.71-.15,6.17c0,.69,0,1.24,0,1.68A2.44,2.44,0,0,1,92.66,366.38Z" transform="translate(-3.93 -5.75)"/><path class="cls-6" d="M95,337.77a13.3,13.3,0,0,1-1.75,1.91c-1.13,1.13-2.73,2.64-4.57,4.25s-3.54,3-4.8,4a13.05,13.05,0,0,1-2.13,1.48,13.4,13.4,0,0,1,1.89-1.77l4.7-4.08L93,339.41A11.81,11.81,0,0,1,95,337.77Z" transform="translate(-3.93 -5.75)"/><path class="cls-6" d="M108.8,348.91a20,20,0,0,1-1.86-2.57c-1.19-1.75-2.68-3.91-4.32-6.3s-3.19-4.52-4.41-6.25a19.9,19.9,0,0,1-1.76-2.63,18.23,18.23,0,0,1,2.06,2.41c1.21,1.54,2.83,3.71,4.54,6.17s3.18,4.73,4.2,6.4A18.1,18.1,0,0,1,108.8,348.91Z" transform="translate(-3.93 -5.75)"/><path class="cls-6" d="M101.55,313.87c.08.12-4.52,3.21-10.26,6.91s-10.47,6.59-10.55,6.46S85.26,324,91,320.33,101.47,313.75,101.55,313.87Z" transform="translate(-3.93 -5.75)"/><path class="cls-6" d="M114.51,327.85a85,85,0,0,1-7-6.42,84.42,84.42,0,0,1-6.59-6.8,85,85,0,0,1,7,6.42A86.41,86.41,0,0,1,114.51,327.85Z" transform="translate(-3.93 -5.75)"/><path class="cls-7" d="M117.77,327.57l3.94-.33a19.63,19.63,0,0,0,8-2.43,30.67,30.67,0,0,1,3.71-1.87c4.88-2,10.32-1.61,15.56-1.87a64.57,64.57,0,0,0,24.77-6.33,2.5,2.5,0,0,0,1.08-1c.81-1.48-.7-2.79-2-3.59-6.65-4.09-13.41-8.24-20.95-10.27s-16.09-1.69-22.52,2.73c-7.55,5.2-10.3,15.87-11.57,24.94" transform="translate(-3.93 -5.75)"/><path class="cls-6" d="M174.89,313.27a3.34,3.34,0,0,1-.67-.31c-.48-.24-1.1-.57-1.87-1-1.62-.85-4-2.11-6.91-3.52a64.38,64.38,0,0,0-10.69-4.12,35.13,35.13,0,0,0-13.85-1.12,23.6,23.6,0,0,0-12.63,5.42,28.18,28.18,0,0,0-6.58,9.24c-1.38,2.95-2.24,5.47-2.86,7.19l-.7,2a3.76,3.76,0,0,1-.28.68A6,6,0,0,1,118,327c.15-.52.36-1.19.61-2a64,64,0,0,1,2.72-7.28,27.78,27.78,0,0,1,6.59-9.44,23.86,23.86,0,0,1,12.88-5.58,35.14,35.14,0,0,1,14,1.17,62.61,62.61,0,0,1,10.72,4.25c2.94,1.47,5.25,2.78,6.85,3.68l1.82,1.07A6.76,6.76,0,0,1,174.89,313.27Z" transform="translate(-3.93 -5.75)"/><path class="cls-6" d="M165.41,318.36c-.08.12-5.24-3.21-11.52-7.45s-11.31-7.77-11.23-7.89,5.24,3.22,11.52,7.46S165.49,318.24,165.41,318.36Z" transform="translate(-3.93 -5.75)"/><path class="cls-6" d="M159.91,302.75a12.51,12.51,0,0,1-3.76.68,13.28,13.28,0,0,1-3.83-.05,23.16,23.16,0,0,1,3.79-.39A25.22,25.22,0,0,1,159.91,302.75Z" transform="translate(-3.93 -5.75)"/><path class="cls-6" d="M137.33,299.81a10.21,10.21,0,0,1-1.7,2.64,11.31,11.31,0,0,1-2.14,2.44,10.12,10.12,0,0,1,1.69-2.65A11,11,0,0,1,137.33,299.81Z" transform="translate(-3.93 -5.75)"/><path class="cls-6" d="M142,321.4a13.48,13.48,0,0,1-2.48-1.34c-1.49-.91-3.51-2.23-5.66-3.8s-4.05-3-5.41-4.12a17,17,0,0,1-2.15-1.83,14,14,0,0,1,2.37,1.54l5.5,4c2.14,1.56,4.11,2.92,5.55,3.91A17.88,17.88,0,0,1,142,321.4Z" transform="translate(-3.93 -5.75)"/><path class="cls-7" d="M123.57,344.33c-3.76-1-8.24,2.66-9,6.48s.66,7.71,2.33,11.22a57.27,57.27,0,0,0,15.56,20.36c6.74,5.37,15.17,8.8,23.79,8.76-1.59-7.39.42-15.11-.47-22.61a29.4,29.4,0,0,0-26-25.79c-2.4-.26-5.18-.64-6.14,1.58" transform="translate(-3.93 -5.75)"/><path class="cls-6" d="M156.23,391.15a3,3,0,0,1-.54-.25,10.49,10.49,0,0,1-1.41-.95,14.6,14.6,0,0,1-3.71-5c-.6-1.17-1.27-2.43-1.93-3.83s-1.31-2.91-2-4.48a43.77,43.77,0,0,0-2.49-4.78,37.24,37.24,0,0,0-3.42-4.66c-2.58-3-5.34-5.64-7.74-8.14a53.12,53.12,0,0,1-5.89-7.08,25.21,25.21,0,0,1-2.88-5.5,16.6,16.6,0,0,1-.51-1.61,4.21,4.21,0,0,1-.12-.58c.05,0,.27.77.82,2.12a28,28,0,0,0,3,5.36,55.65,55.65,0,0,0,5.94,6.95c2.41,2.48,5.19,5.09,7.79,8.15a37,37,0,0,1,3.46,4.72,42.94,42.94,0,0,1,2.49,4.85l2,4.49c.63,1.4,1.28,2.68,1.86,3.85a15.12,15.12,0,0,0,3.52,5C155.51,390.75,156.26,391.1,156.23,391.15Z" transform="translate(-3.93 -5.75)"/><path class="cls-6" d="M136.77,385a11,11,0,0,1,.35-2.53c.29-1.55.78-3.68,1.43-6s1.35-4.38,1.91-5.86a11.77,11.77,0,0,1,1-2.34,13.72,13.72,0,0,1-.67,2.46c-.47,1.5-1.11,3.58-1.76,5.88s-1.18,4.41-1.57,5.94A13.42,13.42,0,0,1,136.77,385Z" transform="translate(-3.93 -5.75)"/><path class="cls-6" d="M155.51,366.87a14.65,14.65,0,0,1-2.65-.6c-1.62-.43-3.86-1-6.35-1.57s-4.76-1-6.4-1.31a16.36,16.36,0,0,1-2.66-.58,12.53,12.53,0,0,1,2.71.22c1.67.22,4,.6,6.47,1.16s4.74,1.2,6.34,1.72A13.22,13.22,0,0,1,155.51,366.87Z" transform="translate(-3.93 -5.75)"/><path class="cls-6" d="M122.81,372.14a15.51,15.51,0,0,1,.41-2.93c.33-1.79.86-4.26,1.56-7s1.45-5.11,2-6.84a14.37,14.37,0,0,1,1.08-2.75,18.4,18.4,0,0,1-.73,2.86c-.49,1.75-1.18,4.17-1.88,6.86s-1.29,5.14-1.71,6.91A17.75,17.75,0,0,1,122.81,372.14Z" transform="translate(-3.93 -5.75)"/><path class="cls-6" d="M146.88,351.07a101.53,101.53,0,0,1-10.49-.85A102.18,102.18,0,0,1,126,348.85c0-.14,4.71.24,10.49.85S146.9,350.93,146.88,351.07Z" transform="translate(-3.93 -5.75)"/><path class="cls-8" d="M143.44,408c0,.14-16.51.26-36.87.26s-36.88-.12-36.88-.26,16.51-.26,36.88-.26S143.44,407.88,143.44,408Z" transform="translate(-3.93 -5.75)"/><path class="cls-8" d="M132,429.28c0,.14-11.13.26-24.85.26s-24.84-.12-24.84-.26,11.12-.27,24.84-.27S132,429.13,132,429.28Z" transform="translate(-3.93 -5.75)"/><path class="cls-8" d="M131.52,432.31c0,.15-10.93.27-24.41.27s-24.41-.12-24.41-.27,10.93-.26,24.41-.26S131.52,432.17,131.52,432.31Z" transform="translate(-3.93 -5.75)"/><path class="cls-8" d="M132.39,426.77c0,.15-11.51.26-25.7.26s-25.7-.11-25.7-.26,11.51-.26,25.7-.26S132.39,426.63,132.39,426.77Z" transform="translate(-3.93 -5.75)"/></g><g id="Character"><path class="cls-7" d="M570.52,147.2s-8-1.3-12.67,2.43a19.32,19.32,0,0,0-7.34,13.5c-.58,5.13-4.28,24.92-4.28,24.92L539,178.27l-8,7s6.74,32.3,13.06,34.48,13.2-4.92,14.83-6.21S570.52,147.2,570.52,147.2Z" transform="translate(-3.93 -5.75)"/><path class="cls-7" d="M567.81,147s-10.52,15-11.74,18.84-10.08,10.76-9.92,19.84A88,88,0,0,0,547.26,198a19.16,19.16,0,0,1-.13,7L543,224.82a12.11,12.11,0,0,0,9.05,5.22c6.44.69,22.86,4.57,33.76,0l7.84-3.83V195.58l5.39-12.53,15.36-24.89s-7.84-5.43-15.16-7.78C591.57,147.92,579.13,147.7,567.81,147Z" transform="translate(-3.93 -5.75)"/><path class="cls-6" d="M543.84,220.86a3.94,3.94,0,0,1,.09-.69c.1-.49.22-1.15.37-2,.34-1.76.82-4.21,1.41-7.22.26-1.53.76-3.16,1-5l.21-1.37c0-.47.08-.94.13-1.42a26.43,26.43,0,0,0,.07-3,26.89,26.89,0,0,0-1.06-6.28,21.64,21.64,0,0,1-1.18-6.85,19.47,19.47,0,0,1,1.73-6.74,42.79,42.79,0,0,1,3-5.72c2.18-3.49,4.37-6.47,6.18-9l4.3-6,1.17-1.62a4.21,4.21,0,0,1,.43-.55,2.62,2.62,0,0,1-.35.6l-1.09,1.67c-1,1.45-2.39,3.52-4.18,6.06s-3.94,5.54-6.08,9a44.31,44.31,0,0,0-3,5.66,19.16,19.16,0,0,0-1.67,6.58,21.34,21.34,0,0,0,1.15,6.71,24.23,24.23,0,0,1,1,9.4c0,.49-.09,1-.13,1.44s-.16.93-.23,1.38c-.27,1.82-.79,3.45-1.07,5-.65,3-1.19,5.43-1.57,7.17q-.29,1.22-.45,1.95A3.12,3.12,0,0,1,543.84,220.86Z" transform="translate(-3.93 -5.75)"/><path class="cls-7" d="M609.28,155s19.15,6.85,11.88,30.73c-5.79,19-17.69,41.7-25.21,42.15-3.91.24-8.17.09-10.82-2-10.77-8.48-17.32-31.23-17.32-31.23l10.29-11.5,12.49,18.49c1.4-.6,9.71-26.21,9.71-26.21S606.27,155.78,609.28,155Z" transform="translate(-3.93 -5.75)"/><path class="cls-6" d="M600.18,177.55a2.85,2.85,0,0,1-.14.46l-.45,1.31c-.43,1.19-1,2.85-1.8,5l-6.53,17.59-.15.41-.25-.37-12.51-18.47.4,0-1.26,1.3-9.5,9.7.06-.25a120,120,0,0,0,5,13.67,63.35,63.35,0,0,0,5.55,10.06,54.87,54.87,0,0,0,4.68,5.94l1.41,1.45a4.54,4.54,0,0,1,.47.53,4.92,4.92,0,0,1-.53-.46L583.13,224a48.49,48.49,0,0,1-4.82-5.87,61.82,61.82,0,0,1-5.68-10.06,118.25,118.25,0,0,1-5.06-13.69l-.05-.15.11-.11,9.49-9.72,1.26-1.29.23-.23.17.27c4.54,6.73,8.79,13.05,12.46,18.51l-.4,0c2.75-7.21,5.06-13.24,6.7-17.52.81-2.08,1.46-3.73,1.91-4.91.22-.53.39-1,.53-1.29A2.53,2.53,0,0,1,600.18,177.55Z" transform="translate(-3.93 -5.75)"/><path class="cls-7" d="M553.59,428.33l1.28,19.46s-19.35,7.83-19.46,11.45l37.81-1.12-.74-30.4Z" transform="translate(-3.93 -5.75)"/><path class="cls-2" d="M566.51,445.8a1.54,1.54,0,0,1,1.12,1.73,1.48,1.48,0,0,1-1.7,1.13,1.64,1.64,0,0,1-1.18-1.84,1.55,1.55,0,0,1,1.91-1" transform="translate(-3.93 -5.75)"/><path class="cls-6" d="M573.28,459.46,573.2,456l-36.36,1.3s-1.66.79-1.43,2Z" transform="translate(-3.93 -5.75)"/><path class="cls-6" d="M554.25,447.61c0,.19.94.24,1.86.81s1.44,1.33,1.61,1.25-.14-1.14-1.28-1.8S554.21,447.44,554.25,447.61Z" transform="translate(-3.93 -5.75)"/><path class="cls-6" d="M550.33,449.37c0,.18.78.47,1.43,1.23s.85,1.59,1,1.57.27-1.06-.56-2S550.33,449.19,550.33,449.37Z" transform="translate(-3.93 -5.75)"/><path class="cls-6" d="M548.22,454.18c.17,0,.4-.89-.1-1.89s-1.38-1.37-1.46-1.22.48.68.88,1.51S548,454.17,548.22,454.18Z" transform="translate(-3.93 -5.75)"/><path class="cls-6" d="M554.45,443.15c.08.16.92-.12,2-.08s1.87.35,2,.19-.71-.8-1.94-.83S554.36,443,554.45,443.15Z" transform="translate(-3.93 -5.75)"/><path class="cls-7" d="M588.43,428.71l1.11,19.46s-19.41,7.67-19.56,11.29l37.83-.8-.49-30.4Z" transform="translate(-3.93 -5.75)"/><path class="cls-2" d="M601.2,446.29a1.55,1.55,0,0,1,1.11,1.74,1.5,1.5,0,0,1-1.72,1.11,1.64,1.64,0,0,1-1.16-1.85,1.56,1.56,0,0,1,1.92-1" transform="translate(-3.93 -5.75)"/><path class="cls-6" d="M607.85,459.46l0-2.95-36.37,1s-1.67.76-1.46,1.95Z" transform="translate(-3.93 -5.75)"/><path class="cls-6" d="M588.93,448c0,.19.93.25,1.85.83s1.42,1.34,1.59,1.26-.13-1.14-1.25-1.81S588.88,447.83,588.93,448Z" transform="translate(-3.93 -5.75)"/><path class="cls-6" d="M585,449.72c0,.18.77.48,1.41,1.24s.85,1.59,1,1.58.28-1.06-.54-2S585,449.54,585,449.72Z" transform="translate(-3.93 -5.75)"/><path class="cls-6" d="M582.84,454.51c.17,0,.41-.89-.09-1.89s-1.37-1.39-1.44-1.23.47.68.86,1.51S582.66,454.5,582.84,454.51Z" transform="translate(-3.93 -5.75)"/><path class="cls-6" d="M589.17,443.53c.08.17.92-.11,2-.06s1.87.36,2,.2-.7-.8-1.93-.84S589.07,443.39,589.17,443.53Z" transform="translate(-3.93 -5.75)"/><path class="cls-6" d="M594.21,225.54s9.63,10.11,14.69,22.56,2.83,72.36,2.83,72.36l-1.06,31.41s1.53,27,.36,46.25-2.48,40.57-2.48,40.57l-21,1L565.27,276.46l5.57,75.29c3.55,19.2,3.13,53.07,2.44,87.93l-22.24,0s-7.66-52.1-9.41-64.48c-2-14-7.8-52.46-7.8-52.46s-4.48-36.82-2.92-56.65,13.37-47.57,13.76-48.73l47.5,8.55" transform="translate(-3.93 -5.75)"/><path class="cls-8" d="M596.63,220.27l5.57,14.82s41.42,57.78,40.21,62.59S618.64,321.16,612,318.15s-23.77-15.35-29.49-27.69-22-46.94-22-46.94l-5.11-9.63,5.71-3.91Z" transform="translate(-3.93 -5.75)"/><path class="cls-8" d="M544.3,218.21h0c5,2.69,4.48,11.11,9.5,13.8-8.38,11.72-11.24,26.49-12.38,40.85s-.79,28.91-3.67,43l-10.39-.73a244.53,244.53,0,0,1,8.86-82.41A36.09,36.09,0,0,1,544.3,218.21Z" transform="translate(-3.93 -5.75)"/><path class="cls-6" d="M584.81,242.52a12.19,12.19,0,0,0,2.62-.61,54,54,0,0,0,6.09-2.2,55.25,55.25,0,0,0,5.8-2.91,12,12,0,0,0,2.24-1.49,18.16,18.16,0,0,0-2.41,1.17c-1.47.75-3.52,1.76-5.83,2.75s-4.45,1.79-6,2.34A16,16,0,0,0,584.81,242.52Z" transform="translate(-3.93 -5.75)"/><g class="cls-9"><path d="M611.66,286.5l1,.08a24.46,24.46,0,0,1-27.22,5c-3-1.42-6.05-4.05-5.92-7.4A61.09,61.09,0,0,0,611.66,286.5Z" transform="translate(-3.93 -5.75)"/></g><path class="cls-8" d="M560,233.93c3.87-.71,11.3,1.31,14,4.16s4.35,6.54,5.69,10.24c2.91,8,5,16.9,11.28,22.65,5.93,5.4,14.36,6.85,22.29,8.07.21,2.93.18,6.42-2.23,8.1a7.61,7.61,0,0,1-2.39,1,39.34,39.34,0,0,1-7.21,1.28c-11.29.93-23.25-3.62-29.88-12.8-8.38-11.63-9-25.59-13.79-39.11" transform="translate(-3.93 -5.75)"/><path class="cls-6" d="M557.73,237.51a2.46,2.46,0,0,0,.12.42l.38,1.24c.35,1.08.82,2.69,1.38,4.78s1.19,4.65,1.92,7.63,1.54,6.39,2.68,10.09a55.1,55.1,0,0,0,4.94,11.65,33.86,33.86,0,0,0,4.1,5.77,30.3,30.3,0,0,0,5.67,4.91,35.25,35.25,0,0,0,15,5.49,37.87,37.87,0,0,0,8.52.09,40.36,40.36,0,0,0,4.31-.72c.71-.15,1.42-.34,2.13-.54a7.79,7.79,0,0,0,2.1-.87,5,5,0,0,0,1.62-1.76,7.2,7.2,0,0,0,.74-2.21,17.55,17.55,0,0,0,.11-4.45v-.2l-.2,0c-5.31-.82-10.49-1.7-15.12-3.63a24.9,24.9,0,0,1-6.28-3.71,23.48,23.48,0,0,1-4.61-5.23A53.36,53.36,0,0,1,582,254.44a103.71,103.71,0,0,0-4-10.56,24.66,24.66,0,0,0-2.52-4.22,17.78,17.78,0,0,0-1.48-1.72,8.87,8.87,0,0,0-1.69-1.3,21.26,21.26,0,0,0-6.51-2.46,18.41,18.41,0,0,0-4.36-.44,6.76,6.76,0,0,0-1.51.19s.51-.08,1.51-.09a19.19,19.19,0,0,1,4.32.53,21.61,21.61,0,0,1,6.41,2.5,9.69,9.69,0,0,1,1.63,1.27,20.34,20.34,0,0,1,1.43,1.7,25.25,25.25,0,0,1,2.46,4.19,104.36,104.36,0,0,1,3.88,10.55,53.07,53.07,0,0,0,5.29,11.9,23.63,23.63,0,0,0,4.69,5.34,24.51,24.51,0,0,0,6.39,3.8c4.7,2,9.92,2.86,15.23,3.68l-.22-.23a17.89,17.89,0,0,1-.1,4.32,5.23,5.23,0,0,1-2.14,3.63,14.42,14.42,0,0,1-4.07,1.34,38.84,38.84,0,0,1-4.25.71A37.4,37.4,0,0,1,594,289a34.79,34.79,0,0,1-14.83-5.39,29,29,0,0,1-5.59-4.82,32.9,32.9,0,0,1-4.07-5.67,55.14,55.14,0,0,1-5-11.55c-1.16-3.68-2-7.07-2.75-10.05s-1.4-5.54-2-7.62-1.1-3.68-1.48-4.75c-.19-.52-.33-.93-.43-1.22A1.75,1.75,0,0,0,557.73,237.51Z" transform="translate(-3.93 -5.75)"/><path class="cls-6" d="M604.39,288.88a15.72,15.72,0,0,1-.72-5.72,15.52,15.52,0,0,1,1.88-5.45s-.54.43-1.09,1.37a10,10,0,0,0-1.3,4,10.26,10.26,0,0,0,.44,4.21A3.85,3.85,0,0,0,604.39,288.88Z" transform="translate(-3.93 -5.75)"/><path class="cls-6" d="M604.1,281.67a38.24,38.24,0,0,0,8.89.6,38.24,38.24,0,0,0-8.89-.6Z" transform="translate(-3.93 -5.75)"/><path class="cls-6" d="M603.27,284.9a21,21,0,0,0,4.6.35,20.47,20.47,0,0,0,4.61-.16,20.78,20.78,0,0,0-4.6-.35A21.26,21.26,0,0,0,603.27,284.9Z" transform="translate(-3.93 -5.75)"/><path class="cls-8" d="M550.43,236.44c-6.93,6.26-9.52,16.18-9.27,25.52s3,18.4,5.05,27.51,3.55,18.66,1.31,27.73l8.89,1.27a37.32,37.32,0,0,0,9.85-29.11c-.91-8.71-4.86-16.75-7.7-25s-4.51-17.63-.94-25.62" transform="translate(-3.93 -5.75)"/><path class="cls-6" d="M557.62,238.71a3.2,3.2,0,0,0-.19.39l-.49,1.16a25.25,25.25,0,0,0-1.19,4.73,31.37,31.37,0,0,0-.08,7.71,52.23,52.23,0,0,0,2.17,10c1.15,3.63,2.69,7.5,4.25,11.69a66.35,66.35,0,0,1,3.78,13.72,36.45,36.45,0,0,1-1.27,15.58,37,37,0,0,1-8.38,14.59l.23-.08-4.37-.63-4.52-.65.21.32a47.32,47.32,0,0,0,.66-17.05,133.59,133.59,0,0,0-3.12-15.55c-1.2-4.89-2.34-9.53-3.06-13.93a59.5,59.5,0,0,1-.87-12.31,34.84,34.84,0,0,1,4.94-16.94,26.13,26.13,0,0,1,2.94-3.83l.88-.89a2.19,2.19,0,0,0,.29-.32l-.32.28-.93.86a25.16,25.16,0,0,0-3,3.8,34.47,34.47,0,0,0-5.12,17,58.72,58.72,0,0,0,.81,12.4c.7,4.42,1.83,9.08,3,14a137.13,137.13,0,0,1,3.07,15.5,47,47,0,0,1-.66,16.87l-.07.27.28,0,4.52.65,4.37.63.14,0,.09-.1a37.46,37.46,0,0,0,8.48-14.8,36.92,36.92,0,0,0,1.25-15.79,65.55,65.55,0,0,0-3.85-13.79c-1.58-4.2-3.14-8-4.3-11.66a52.18,52.18,0,0,1-2.23-9.94,31.94,31.94,0,0,1,0-7.66A26.23,26.23,0,0,1,557,240.3l.44-1.18C557.58,238.85,557.62,238.71,557.62,238.71Z" transform="translate(-3.93 -5.75)"/><path class="cls-6" d="M549,310a26.93,26.93,0,0,1,12.23,1.64,5,5,0,0,0-1.63-.88,17.36,17.36,0,0,0-4.32-1.16,17.09,17.09,0,0,0-4.47,0A5.31,5.31,0,0,0,549,310Z" transform="translate(-3.93 -5.75)"/><path class="cls-6" d="M554.15,318.24a16.72,16.72,0,0,0,2.08-3.52,16,16,0,0,0,1.63-3.76,16.82,16.82,0,0,0-2.09,3.52A16.19,16.19,0,0,0,554.15,318.24Z" transform="translate(-3.93 -5.75)"/><path class="cls-6" d="M549.5,317.58a34.85,34.85,0,0,0,3.36-7.77,17.09,17.09,0,0,0-1.91,3.78A17.75,17.75,0,0,0,549.5,317.58Z" transform="translate(-3.93 -5.75)"/><path class="cls-6" d="M562.26,233.53c.06,0,.21-.19.28-.59a2.84,2.84,0,0,0-.21-1.56,2.8,2.8,0,0,0-1-1.22c-.35-.22-.6-.26-.63-.21s.73.63,1.15,1.63A10.4,10.4,0,0,1,562.26,233.53Z" transform="translate(-3.93 -5.75)"/><path class="cls-8" d="M550.7,231.37c1.2-1.89,4-2.53,6.26-2.79a5.46,5.46,0,0,1,5.62,4.8,6,6,0,0,1-4.38,6.14,6.75,6.75,0,0,1-7.14-2.81A5,5,0,0,1,550.7,231.37Z" transform="translate(-3.93 -5.75)"/><path class="cls-6" d="M555.69,229.63a3.18,3.18,0,0,0-1.19,1.4,5.95,5.95,0,0,0,2.13,7.92,3.2,3.2,0,0,0,1.72.62c0-.09-.64-.28-1.52-.92a6,6,0,0,1-2-7.46C555.27,230.19,555.75,229.69,555.69,229.63Z" transform="translate(-3.93 -5.75)"/><path class="cls-6" d="M551.26,230.66s-.39.27-.72.93a5.3,5.3,0,0,0-.46,2.8,5.23,5.23,0,0,0,1,2.65c.46.58.86.81.9.76s-.25-.38-.6-1a6.12,6.12,0,0,1-.54-5.1C551.1,231.08,551.33,230.71,551.26,230.66Z" transform="translate(-3.93 -5.75)"/><g class="cls-9"><path d="M550.58,236.43a9.22,9.22,0,0,0,6.75,3.08,4.63,4.63,0,0,1-3.49,2.41,3.58,3.58,0,0,1-3.26-5.49Z" transform="translate(-3.93 -5.75)"/></g><g class="cls-9"><path d="M582.22,245.14a8,8,0,0,1,3.71-2.16c5.15-1.86,10.71-5,15.86-6.91-4.7,4.17-9.79,9.09-15.18,12.31-1.3.78-3,1.52-4.24.64S581.3,246.27,582.22,245.14Z" transform="translate(-3.93 -5.75)"/></g><g class="cls-9"><path d="M539.55,254.4c.81-6.19,3.67-12.29,8.66-16-2.69,4.89-5.4,9.86-6.6,15.3-1.31,6-.35,9.81.25,15.9l-.58,3A45.19,45.19,0,0,1,539.55,254.4Z" transform="translate(-3.93 -5.75)"/></g><path class="cls-6" d="M585,249.42a3,3,0,0,0,.8-.39c.5-.28,1.2-.72,2.05-1.28a60.33,60.33,0,0,0,6.36-4.82,62.64,62.64,0,0,0,5.7-5.59c.68-.76,1.21-1.39,1.56-1.85s.53-.71.5-.73a28.84,28.84,0,0,0-2.33,2.33c-1.41,1.46-3.42,3.43-5.76,5.45s-4.58,3.73-6.23,4.91A26.22,26.22,0,0,0,585,249.42Z" transform="translate(-3.93 -5.75)"/><path class="cls-6" d="M559.56,99.79c-1.5-2.67-.57-6.26,1.64-8.37a11.78,11.78,0,0,1,8.48-2.85,35.12,35.12,0,0,1,9,1.86,9.77,9.77,0,0,1,17.14,3.23,6.21,6.21,0,0,1,8.34,7.14l-13,6.53-11.44,28a12,12,0,0,1-19.51-13.51,10.12,10.12,0,0,1-2.41-2.3,10.5,10.5,0,0,1-5.64-5.81C550.14,108.16,553.81,101.23,559.56,99.79Z" transform="translate(-3.93 -5.75)"/><path class="cls-10" d="M575.69,150.34a41.2,41.2,0,0,1,.41-4.64s-8.41-2.08-9.31-13.33c-.44-5.6.54-14.64,1.58-22,.94-6.63,6-14.47,12.59-13.25L601.3,104c2,.37,2.58,2.13,2.38,4.16l.09,1-3.44,31.76-1.07,9.54c-.63,6-6,12.18-12.12,12.09h0A11.34,11.34,0,0,1,575.69,150.34Z" transform="translate(-3.93 -5.75)"/><path class="cls-6" d="M570.5,120.51a1.43,1.43,0,0,0,1.26,1.55,1.37,1.37,0,0,0,1.57-1.17,1.43,1.43,0,0,0-1.26-1.55A1.37,1.37,0,0,0,570.5,120.51Z" transform="translate(-3.93 -5.75)"/><path class="cls-6" d="M570.24,116.35c.16.2,1.31-.52,2.84-.39s2.6,1,2.78.8-.07-.43-.53-.82a3.92,3.92,0,0,0-2.2-.87,3.79,3.79,0,0,0-2.28.54C570.35,115.93,570.16,116.26,570.24,116.35Z" transform="translate(-3.93 -5.75)"/><path class="cls-6" d="M583.72,121.28a1.43,1.43,0,0,0,1.26,1.55,1.37,1.37,0,0,0,1.57-1.17,1.43,1.43,0,0,0-1.26-1.55A1.37,1.37,0,0,0,583.72,121.28Z" transform="translate(-3.93 -5.75)"/><path class="cls-6" d="M584.92,117.2c.16.2,1.3-.52,2.84-.39s2.59,1,2.78.8-.07-.43-.53-.82a3.89,3.89,0,0,0-2.21-.88,3.72,3.72,0,0,0-2.28.55C585,116.78,584.84,117.11,584.92,117.2Z" transform="translate(-3.93 -5.75)"/><path class="cls-6" d="M578.58,127.63a10,10,0,0,0-2.46-.65c-.39-.07-.75-.17-.8-.45a2,2,0,0,1,.35-1.14l1.4-2.89c1.94-4.12,3.37-7.52,3.21-7.6s-1.88,3.2-3.82,7.32c-.47,1-.92,2-1.34,2.92a2.25,2.25,0,0,0-.33,1.52,1,1,0,0,0,.6.62,2.77,2.77,0,0,0,.66.15A10.77,10.77,0,0,0,578.58,127.63Z" transform="translate(-3.93 -5.75)"/><path class="cls-11" d="M576.1,145.7a28.32,28.32,0,0,0,15.2-2.81s-4.37,7.55-15.41,5.65Z" transform="translate(-3.93 -5.75)"/><path class="cls-6" d="M585.23,113c.15.42,1.69.21,3.5.41s3.27.69,3.5.31c.11-.18-.15-.57-.74-1a5.84,5.84,0,0,0-2.6-.89,5.93,5.93,0,0,0-2.74.34C585.49,112.5,585.16,112.84,585.23,113Z" transform="translate(-3.93 -5.75)"/><path class="cls-6" d="M570.54,111.87c.3.37,1.58.11,3.08.21s2.76.45,3.08.11c.14-.17,0-.54-.56-.91a4.93,4.93,0,0,0-2.46-.77,4.86,4.86,0,0,0-2.5.51C570.62,111.34,570.42,111.69,570.54,111.87Z" transform="translate(-3.93 -5.75)"/><path class="cls-6" d="M595.67,97.37a7.64,7.64,0,0,1-9.55,6.84c-1.67-.44-3.47-1.44-5-.65s-1.86,3.16-3.32,4.25c-2.09,1.55-5.09-.28-7.63.27-2,.42-3.3,2.17-4.7,3.62s-3.42,2.77-5.29,2.06a22.34,22.34,0,0,1,1.15-5.07,7.61,7.61,0,0,1,3.22-4,27.68,27.68,0,0,0,2.57-1.24c1.69-1.17,2.23-3.38,3.35-5.11a8.37,8.37,0,0,1,6.67-3.73c2.21-.06,4.41.77,6.59.39,1.6-.28,3.06-1.2,4.68-1.38,3.15-.35,5.87,2.1,8,4.49" transform="translate(-3.93 -5.75)"/><path class="cls-6" d="M585.38,101.05c1.42-.3,4.34-1,5.18-2.14a8.56,8.56,0,0,1,7.74-3.7,7.08,7.08,0,0,1,5.91,6,10.17,10.17,0,0,1,8.27,6.26,11.76,11.76,0,0,1-1.14,10.87A21,21,0,0,0,610,121a17.3,17.3,0,0,1,2.14,2.47c3,4.79-3,7.54-3,7.54.43,3.42-2.72,3.81-4.75,4.07s-2.44,5.78-4,5.77L599.76,124a2.18,2.18,0,0,1-.72.23c-3.8.56-3.74-6.77-2.74-8.8a21.58,21.58,0,0,1-3.45-4.22,15.67,15.67,0,0,1-1.15-7.68C590.34,103.5,584.75,101.17,585.38,101.05Z" transform="translate(-3.93 -5.75)"/><path class="cls-10" d="M599.31,125a3.25,3.25,0,0,1,5-2.41c1.08.74,1.84,2.11,1.55,4.62-.78,6.68-7.33,4.51-7.31,4.32S599,127.72,599.31,125Z" transform="translate(-3.93 -5.75)"/><path class="cls-11" d="M600.83,129.2s.11.09.29.21a1.19,1.19,0,0,0,.87.12,2.92,2.92,0,0,0,1.64-2.43,4.13,4.13,0,0,0-.13-1.7,1.38,1.38,0,0,0-.77-1,.61.61,0,0,0-.73.24c-.11.18-.08.31-.12.32s-.13-.13,0-.4a.72.72,0,0,1,.31-.38.86.86,0,0,1,.66-.1,1.65,1.65,0,0,1,1.09,1.18,3.89,3.89,0,0,1,.19,1.91,3,3,0,0,1-2,2.68,1.26,1.26,0,0,1-1-.3C600.82,129.36,600.81,129.21,600.83,129.2Z" transform="translate(-3.93 -5.75)"/><path class="cls-8" d="M563.45,120.42a20.31,20.31,0,0,1-1.6-1.28,9.54,9.54,0,0,1-2.67-4.76,9.27,9.27,0,0,1-.12-3.77,8,8,0,0,1,1.83-3.87,9.53,9.53,0,0,1,9-3c.32.06.61.17.92.25s.57.24.84.35l.43.17-.05-.44a3.29,3.29,0,0,1,.54-2.22,5.36,5.36,0,0,1,1.68-1.57,6.92,6.92,0,0,1,4.27-.87c2.86.27,5.37,1.23,7.63,1.2A7.18,7.18,0,0,0,591,99a4,4,0,0,0,.85-1.13,2.2,2.2,0,0,0,.17-.46,6.25,6.25,0,0,1-1.15,1.45,7.19,7.19,0,0,1-4.75,1.44,17.58,17.58,0,0,1-3.5-.54,30.09,30.09,0,0,0-4.09-.77,8.92,8.92,0,0,0-2.3.06,7.2,7.2,0,0,0-2.27.85,5.74,5.74,0,0,0-1.86,1.72,3.83,3.83,0,0,0-.62,2.57l.37-.27c-.29-.12-.59-.26-.9-.38s-.64-.2-1-.27a10,10,0,0,0-9.48,3.2,8.44,8.44,0,0,0-1.9,4.11,9.9,9.9,0,0,0,3.09,8.76,7,7,0,0,0,1.26.89A1.72,1.72,0,0,0,563.45,120.42Z" transform="translate(-3.93 -5.75)"/><path class="cls-8" d="M561.82,97.54a7,7,0,0,1,2-1,5.51,5.51,0,0,1,2.5-.1A5,5,0,0,1,569.09,98l.3.32.09-.42A7.63,7.63,0,0,1,575,92.54a9.79,9.79,0,0,1,6.11.94,27.13,27.13,0,0,0,5,1.81,7.47,7.47,0,0,0,3.58-.05,3.75,3.75,0,0,0,.91-.38c.19-.11.29-.18.28-.19s-.43.19-1.24.37a7.62,7.62,0,0,1-3.45-.12A28.45,28.45,0,0,1,581.32,93a16.15,16.15,0,0,0-3-1,7.78,7.78,0,0,0-3.43,0A8,8,0,0,0,569,97.78l.39-.1a5.22,5.22,0,0,0-3.06-1.59,5.67,5.67,0,0,0-2.64.21,4.92,4.92,0,0,0-1.5.81C561.94,97.37,561.8,97.53,561.82,97.54Z" transform="translate(-3.93 -5.75)"/><path class="cls-11" d="M579.54,130.87a2.2,2.2,0,0,1,1.7-.74,2.58,2.58,0,0,1,1.85,1l0,0,.07.07h0a1.2,1.2,0,0,1,.29.73,1.86,1.86,0,0,1-.87,1.5,2.35,2.35,0,0,1-2.68,0A1.91,1.91,0,0,1,579.54,130.87Z" transform="translate(-3.93 -5.75)"/><path class="cls-6" d="M583.51,129.61c-.09,0-.22.33-.55.8a3.64,3.64,0,0,1-3.83,1.48c-.56-.12-.89-.29-.94-.21s.22.37.82.61a3.4,3.4,0,0,0,4.31-1.67C583.6,130,583.58,129.62,583.51,129.61Z" transform="translate(-3.93 -5.75)"/><path class="cls-6" d="M609.23,111.17a1.57,1.57,0,0,0,.3-.22,9.81,9.81,0,0,0,.75-.74,8,8,0,0,0,1.8-3.43,6,6,0,0,0,0-2.71,5.54,5.54,0,0,0-1.49-2.72,4.46,4.46,0,0,0-3.18-1.29,4.12,4.12,0,0,0-3.31,1.57l.31.16,0-.07a9.17,9.17,0,0,0-.19-7,6.08,6.08,0,0,0-4.5-3.44,5,5,0,0,0-3.72,1,4.25,4.25,0,0,0-.72.79,2,2,0,0,0-.17.32,5.81,5.81,0,0,1,1-1,4.87,4.87,0,0,1,3.59-.91,5.8,5.8,0,0,1,4.25,3.33,9,9,0,0,1,.15,6.75l0,.07-.33,1,.64-.87a3.79,3.79,0,0,1,3-1.43,4.08,4.08,0,0,1,2.94,1.17,5.2,5.2,0,0,1,1.44,2.56,6,6,0,0,1,.05,2.59,8,8,0,0,1-1.67,3.39C609.6,110.82,609.21,111.15,609.23,111.17Z" transform="translate(-3.93 -5.75)"/><path class="cls-6" d="M513.39,172.56l6.48,24.49a3.06,3.06,0,0,0,3,2.27l33.56-.66a3,3,0,0,0,2.92-3.68l-4.94-23.45a3,3,0,0,0-3-2.42H516.05A2.75,2.75,0,0,0,513.39,172.56Z" transform="translate(-3.93 -5.75)"/><path class="cls-10" d="M510.57,178.09a2.45,2.45,0,0,1,0-3,3.8,3.8,0,0,1,2.88-1.37,8.32,8.32,0,0,1,3.21.67,20.83,20.83,0,0,1,3.63,1.81,3.47,3.47,0,0,1,1.81,2.12c.16.94-.87,2-1.7,1.55a4,4,0,0,1,2.35,2.79c.17,1.2-.47,1.84-1.63,2.18a1.8,1.8,0,0,1,1,2.31,2.08,2.08,0,0,1-2.59.79,6,6,0,0,1-2.25-1.9,5.53,5.53,0,0,1,.64,3.8,7.42,7.42,0,0,1-4.85-6,3.44,3.44,0,0,1-.94-4.22,3.54,3.54,0,0,1-2.11-3" transform="translate(-3.93 -5.75)"/><path class="cls-11" d="M521.08,184.82A7.78,7.78,0,0,1,520,184a7.53,7.53,0,0,0-2.92-1.49,4.06,4.06,0,0,0-1.77,0,3.2,3.2,0,0,0-1.29.65,3.75,3.75,0,0,0-.84,1.06s0-.14.09-.37a2.51,2.51,0,0,1,.62-.84,3.27,3.27,0,0,1,1.36-.75,4,4,0,0,1,1.89,0,6.8,6.8,0,0,1,3,1.62A5.71,5.71,0,0,1,521.08,184.82Z" transform="translate(-3.93 -5.75)"/><path class="cls-11" d="M520.8,180a5.3,5.3,0,0,1-1.34-.56c-.41-.19-.88-.42-1.43-.62a12.62,12.62,0,0,0-1.84-.48,5.36,5.36,0,0,0-1.87,0A3.22,3.22,0,0,0,512,180s0-.14.11-.38a2.4,2.4,0,0,1,.67-.85,3.33,3.33,0,0,1,1.45-.7,5.22,5.22,0,0,1,2,0,10.11,10.11,0,0,1,1.88.51,12,12,0,0,1,1.43.69A12.42,12.42,0,0,1,520.8,180Z" transform="translate(-3.93 -5.75)"/><path class="cls-5" d="M535.47,181l.18,0a1.67,1.67,0,1,1-.18,0Z" transform="translate(-3.93 -5.75)"/><path class="cls-10" d="M568.08,172.54s-3.56-6.95-4.61-6.54-2.43.43-1.76,3.06,2.42,4.43,2.32,6.49-1.72,6.69.07,8.84,4.83,8.64,4.83,8.64l7.89-8-1.77-2.59s3-4.1,3.54-6.49a14.69,14.69,0,0,0-.29-5.75,5.77,5.77,0,0,0-.86-3.51,25,25,0,0,0,.15-3.18c0-1.61-4.18-8.24-4.18-8.24a2.4,2.4,0,0,0-1.41,3,31.37,31.37,0,0,0,1.63,4.1l-4.84-1.85a2.7,2.7,0,0,0,1.31,3.74c2.57,1.39,3,2.55,3,2.55l-3.69.28s-.34,2,1.14,2.47L572,170Z" transform="translate(-3.93 -5.75)"/><path class="cls-11" d="M570.23,169.45l3.32.71h.05l0,.05a6,6,0,0,1,.65,3,5.44,5.44,0,0,1-1.54,3.28,12.77,12.77,0,0,1-3.29,2.11,8.11,8.11,0,0,0-2.53,1.81,3.91,3.91,0,0,0-.92,1.85c-.09.5,0,.78-.07.78a.69.69,0,0,1,0-.2,2.17,2.17,0,0,1,0-.59,3.9,3.9,0,0,1,.88-2,8.21,8.21,0,0,1,2.56-1.92,13.07,13.07,0,0,0,3.22-2.08,5.31,5.31,0,0,0,1.47-3.1,5.83,5.83,0,0,0-.58-2.83l.07.06A19.41,19.41,0,0,1,570.23,169.45Z" transform="translate(-3.93 -5.75)"/><path class="cls-11" d="M577.51,169.89a7,7,0,0,1-.35-.78,3.39,3.39,0,0,0-1.35-1.42,7.2,7.2,0,0,0-1.91-.67c-.51-.11-.84-.16-.83-.21a2.38,2.38,0,0,1,.87,0,5.17,5.17,0,0,1,2,.62,3.44,3.44,0,0,1,.91.75,3,3,0,0,1,.49.84A1.65,1.65,0,0,1,577.51,169.89Z" transform="translate(-3.93 -5.75)"/><path class="cls-11" d="M577.08,165.79c-.07.05-.62-.88-1.57-1.8s-1.87-1.46-1.83-1.54a6.15,6.15,0,0,1,3.4,3.34Z" transform="translate(-3.93 -5.75)"/></g></svg>