<svg xmlns="http://www.w3.org/2000/svg" viewBox="0 0 452.04 462.38"><defs><style>.cls-1{fill:#e0e0e0;}.cls-2{fill:#fafafa;}.cls-3{fill:#fff;}.cls-4{fill:#ebebeb;}.cls-5{fill:#f5f5f5;}.cls-6{fill:#263238;}.cls-7{fill:#ffbe9d;}.cls-8{fill:#eb996e;}.cls-9{fill:#455a64;}.cls-10{opacity:0.6;}.cls-11{fill:#ff725e;}.cls-12{opacity:0.3;}.cls-13{fill:#936760;}.cls-14{fill:#6f4c47;}.cls-15{fill:#ffc5b0;}.cls-16{fill:#f6957f;}</style></defs><title>img_doc1</title><g id="Background_Complete" data-name="Background Complete"><rect class="cls-1" x="167.19" y="25.93" width="6.99" height="31.32"/><rect class="cls-1" x="173.33" y="32.03" width="6.99" height="31.32" transform="translate(123 218.42) rotate(-90)"/><path class="cls-1" d="M202.84,47.76a2,2,0,0,1-.05-.42c0-.31,0-.72-.09-1.24,0-.27,0-.58-.06-.91s-.11-.69-.17-1.09a20.12,20.12,0,0,0-.55-2.69,25.16,25.16,0,0,0-2.91-6.9,25.86,25.86,0,0,0-31.08-11A26.4,26.4,0,0,0,164.56,25a27.41,27.41,0,0,0-3.17,2,28.69,28.69,0,0,0-2.93,2.5,29.16,29.16,0,0,0-2.53,3,25,25,0,0,0-3.69,7.12,27.77,27.77,0,0,0-1.34,8.15,27.44,27.44,0,0,0,1.34,8.15A25,25,0,0,0,155.93,63a30.39,30.39,0,0,0,2.53,3,29.91,29.91,0,0,0,2.93,2.49,28.91,28.91,0,0,0,3.17,2A27.81,27.81,0,0,0,167.93,72,26,26,0,0,0,199,61a25.41,25.41,0,0,0,2.9-6.9,19.81,19.81,0,0,0,.55-2.69c.06-.39.13-.75.17-1.09s0-.63.06-.91c0-.52.07-.93.09-1.24a2,2,0,0,1,.05-.42,2.21,2.21,0,0,1,0,.42c0,.31,0,.72,0,1.25,0,.27,0,.58,0,.92s-.1.7-.15,1.09a18.18,18.18,0,0,1-.51,2.72,24.48,24.48,0,0,1-2.84,7,26.3,26.3,0,0,1-17.69,12.46,26.42,26.42,0,0,1-13.84-1.11A28.08,28.08,0,0,1,164.31,71a27.15,27.15,0,0,1-3.23-2.07,27.62,27.62,0,0,1-3-2.54,30.42,30.42,0,0,1-2.59-3.05,25.78,25.78,0,0,1-3.78-7.27,28.26,28.26,0,0,1-1.36-8.32,27.89,27.89,0,0,1,1.37-8.32,25.5,25.5,0,0,1,3.77-7.27,30.42,30.42,0,0,1,2.59-3.05,27.62,27.62,0,0,1,3-2.54,27.15,27.15,0,0,1,3.23-2.07,26.56,26.56,0,0,1,3.44-1.5,26.21,26.21,0,0,1,13.84-1.11,26.25,26.25,0,0,1,17.69,12.45,24.59,24.59,0,0,1,2.84,7,18.42,18.42,0,0,1,.51,2.72c.05.4.12.76.15,1.1s0,.64,0,.91c0,.53,0,.94,0,1.25A2.21,2.21,0,0,1,202.84,47.76Z" transform="translate(-6.14 -6.1)"/><rect class="cls-1" x="5.28" y="15.62" width="77.61" height="80.9"/><rect class="cls-2" x="0.02" y="15.62" width="77.61" height="80.9"/><path class="cls-1" d="M83.8,102.64H6.14V21.69H83.8Zm-77.61,0H83.75V21.74H6.19Z" transform="translate(-6.14 -6.1)"/><rect class="cls-3" x="10.46" y="26.5" width="56.74" height="59.15"/><path class="cls-1" d="M16.6,92.13a8.74,8.74,0,0,1-1.4,1.63c-.91,1-2.18,2.25-3.61,3.66s-2.74,2.66-3.7,3.55a9.18,9.18,0,0,1-1.64,1.36,8.82,8.82,0,0,1,1.39-1.62c.9-1,2.18-2.25,3.61-3.66S14,94.38,15,93.49A9.38,9.38,0,0,1,16.6,92.13Z" transform="translate(-6.14 -6.1)"/><path class="cls-1" d="M73.34,92A9,9,0,0,1,75,93.39c1,.9,2.25,2.18,3.66,3.61s2.66,2.74,3.54,3.7a9.16,9.16,0,0,1,1.37,1.64A8.82,8.82,0,0,1,81.92,101c-1-.91-2.25-2.18-3.66-3.62s-2.67-2.74-3.56-3.71A9.38,9.38,0,0,1,73.34,92Z" transform="translate(-6.14 -6.1)"/><path class="cls-1" d="M73.19,32.75a9,9,0,0,1,1.4-1.63c.9-.95,2.18-2.25,3.6-3.65s2.74-2.66,3.71-3.55a9.16,9.16,0,0,1,1.64-1.37,8.94,8.94,0,0,1-1.39,1.62c-.91,1-2.18,2.26-3.62,3.67s-2.74,2.66-3.71,3.55A9.38,9.38,0,0,1,73.19,32.75Z" transform="translate(-6.14 -6.1)"/><path class="cls-1" d="M16.44,32.89a8.79,8.79,0,0,1-1.62-1.4c-1-.9-2.25-2.18-3.66-3.6S8.5,25.15,7.61,24.18a8.79,8.79,0,0,1-1.36-1.64,9.36,9.36,0,0,1,1.62,1.39c1,.91,2.25,2.19,3.66,3.62s2.67,2.74,3.56,3.71A9,9,0,0,1,16.44,32.89Z" transform="translate(-6.14 -6.1)"/><path class="cls-1" d="M73.19,91.74a1.64,1.64,0,0,1,0-.29c0-.2,0-.47,0-.82,0-.74,0-1.81,0-3.2,0-2.8,0-6.87-.06-12.05C73.05,65,73,50.26,73,32.59l.22.22-56.58,0h0l.25-.25c0,21.71,0,42,0,59.15l-.22-.22,41,.11,11.51.06,3,0h0l-3,0-11.46.06L16.6,92h-.22v-.22c0-17.13,0-37.44,0-59.15v-.25h.26l56.58,0h.22v.22c0,17.73-.09,32.54-.12,42.93,0,5.15,0,9.21-.05,12,0,1.37,0,2.42,0,3.16,0,.34,0,.6,0,.8S73.19,91.74,73.19,91.74Z" transform="translate(-6.14 -6.1)"/><rect class="cls-4" x="29.36" y="46.6" width="18.93" height="18.93"/><path class="cls-5" d="M448.4,6.1" transform="translate(-6.14 -6.1)"/><rect class="cls-5" x="259.74" y="76.68" width="41.86" height="82.99"/><rect class="cls-5" x="303.21" y="76.68" width="45.23" height="82.99"/><rect class="cls-5" x="303.21" y="165.47" width="45.23" height="80.18"/><polygon class="cls-5" points="354.24 75.25 401.88 75.25 401.88 1.63 403.49 1.63 403.49 75.25 442.26 75.25 442.26 0 354.24 0 354.24 75.25"/><rect class="cls-5" x="403.49" y="76.68" width="38.77" height="82.99"/><rect class="cls-5" x="403.49" y="165.47" width="38.77" height="80.18"/><rect class="cls-5" x="259.74" y="165.47" width="41.86" height="80.18"/><rect class="cls-5" x="354.24" y="165.47" width="47.64" height="80.18"/><rect class="cls-5" x="259.74" y="247.08" width="41.86" height="72.25"/><rect class="cls-5" x="403.49" y="247.08" width="38.77" height="72.25"/><polygon class="cls-5" points="301.6 75.25 301.6 1.63 303.21 1.63 303.21 75.25 348.45 75.25 348.45 0 259.74 0 259.74 75.25 301.6 75.25"/><rect class="cls-5" x="354.24" y="247.08" width="47.64" height="72.25"/><rect class="cls-5" x="303.21" y="247.08" width="45.23" height="72.25"/><rect class="cls-5" x="354.24" y="76.68" width="47.64" height="82.99"/><polygon class="cls-5" points="15.11 208.48 12.03 447.2 149.38 447.2 149.38 211.73 15.11 208.48"/><polygon class="cls-1" points="89.1 210.27 87.89 447.2 149.38 447.2 149.38 211.73 89.1 210.27"/><polygon class="cls-1" points="19.42 212.78 19.42 261.6 84.48 261.6 84.48 215.08 19.42 212.78"/><polygon class="cls-5" points="41.85 226.21 41.85 233.42 61.76 233.42 61.76 225.55 41.85 226.21"/><rect class="cls-5" x="41.85" y="239.48" width="20.56" height="2.95"/><polygon class="cls-1" points="19.42 383.88 19.42 432.7 84.48 432.7 84.48 386.18 19.42 383.88"/><polygon class="cls-5" points="41.85 397.31 41.85 404.52 61.76 404.52 61.76 396.65 41.85 397.31"/><rect class="cls-5" x="41.85" y="410.59" width="20.56" height="2.95"/><polygon class="cls-1" points="19.42 267.82 19.42 316.64 84.48 316.64 84.48 270.13 19.42 267.82"/><polygon class="cls-5" points="41.85 281.25 41.85 288.46 61.76 288.46 61.76 280.59 41.85 281.25"/><rect class="cls-5" x="41.85" y="294.53" width="20.56" height="2.95"/><rect class="cls-1" x="18.58" y="326.28" width="65.06" height="48.83"/><polygon class="cls-5" points="41.44 348.29 41.44 355.07 60.15 355.07 60.15 347.67 41.44 348.29"/><rect class="cls-5" x="41.44" y="360.77" width="19.32" height="2.77"/><path class="cls-1" d="M364.71,359.21a35,35,0,0,0-14.94-5.15c-2.44-.25-5.11-.18-7.06,1.3-.42.32-.83.78-.73,1.29a1.59,1.59,0,0,0,.69.89c6.08,4.63,15.27,5.22,22,1.67" transform="translate(-6.14 -6.1)"/><path class="cls-1" d="M364.33,358.78a71.61,71.61,0,0,1-9.65-8.49,24.29,24.29,0,0,1-6.05-11.18,4.52,4.52,0,0,1,.48-3.75c7.69,6,13.73,13.78,15.22,23.42" transform="translate(-6.14 -6.1)"/><path class="cls-1" d="M364.63,359.15a34.8,34.8,0,0,1,.18-12.67A17.05,17.05,0,0,1,371.56,336c1.32,3.1.75,6.68-.18,9.93A48.48,48.48,0,0,1,364.69,360" transform="translate(-6.14 -6.1)"/><path class="cls-1" d="M372.17,372.66c-4.58.55-8.56,3-12,6.06a22.57,22.57,0,0,0-6.85,11.76c4.49-.27,8.29-3.44,11.06-7s4.67-7.44,7.71-10.76" transform="translate(-6.14 -6.1)"/><path class="cls-1" d="M373.81,374.82a29.55,29.55,0,0,1,3.41-27.95c2.61,9.27,1.65,19.75-3.41,27.95" transform="translate(-6.14 -6.1)"/><path class="cls-1" d="M383.77,386.68a21.36,21.36,0,0,0-20.43,11.76c-.25.5-.48,1.15-.14,1.6a1.55,1.55,0,0,0,1.36.4c4-.26,7.59-2.69,10.53-5.44s5.51-5.95,8.77-8.33" transform="translate(-6.14 -6.1)"/><path class="cls-1" d="M383.45,386a38,38,0,0,1-.38-21.25c.75-2.74,2-5.62,4.54-6.9a.85.85,0,0,1,.69-.12.93.93,0,0,1,.44.51,12.81,12.81,0,0,1,1.07,6.09,39.13,39.13,0,0,1-1,6.18c-.79,3.77-1.22,7.82-3.29,11.08a21.83,21.83,0,0,0-1.31,2.43c-.39.83-.4,1.12-.76,1.78" transform="translate(-6.14 -6.1)"/><path class="cls-1" d="M409.82,390c-2-7.43.12-16.44,4.8-22.53.35-.45.8-.93,1.37-.88.86.08,1.08,1.23,1,2.1A40.75,40.75,0,0,1,409.82,390" transform="translate(-6.14 -6.1)"/><path class="cls-1" d="M412.2,391.59c9,2.35,19.38.06,26.89-5.47a21.77,21.77,0,0,0-14.56-1.79c-4.86,1.11-9.31,3.29-12.33,7.26" transform="translate(-6.14 -6.1)"/><path class="cls-1" d="M414.2,386.64c5.06-8.25,14.75-13.63,24.41-14.12-1.11,3.93-4.34,7-8,8.83s-7.71,2.65-11.72,3.43c-1.56.3-3.7.63-4.71,1.86" transform="translate(-6.14 -6.1)"/><path class="cls-1" d="M410.32,362.63a70.37,70.37,0,0,0,3.12-14.3c.38-4.87-.32-9.95-2.84-14.14-4.73,9.14-5.21,19.82-.42,28.93" transform="translate(-6.14 -6.1)"/><path class="cls-1" d="M426.22,354.59c5.53-10,16.79-18,28.2-19.18-4.4,10.95-16.4,19.42-28.2,19.18" transform="translate(-6.14 -6.1)"/><path class="cls-1" d="M422.75,356.56c8.23,1.25,15.25,6.51,22.95,9.7a10.23,10.23,0,0,0,5.19,1,4.06,4.06,0,0,0,2.54-7.19,10.83,10.83,0,0,0-3.77-2.28c-8.38-3.49-17.37-3.58-26.2-1.47" transform="translate(-6.14 -6.1)"/><path class="cls-1" d="M418,362.34c1.87.53,2.5,1.5,4,2.75a43,43,0,0,0,17.4,9c.67.16,1.54.23,1.87-.37s-.07-1.16-.45-1.63a23.94,23.94,0,0,0-10.51-7.14c-4-1.49-7.5-3.3-12.29-2.91" transform="translate(-6.14 -6.1)"/><path class="cls-1" d="M412.6,327.44A33,33,0,0,0,437.86,336a1.69,1.69,0,0,0,1.15-.41c.63-.69-.13-1.76-.87-2.33-7.43-5.79-16.42-8.19-25.54-5.85" transform="translate(-6.14 -6.1)"/><path class="cls-1" d="M419,325.11a35.19,35.19,0,0,1,31.51-5.2,25,25,0,0,1-15,6.59,47.58,47.58,0,0,1-16.5-1.39" transform="translate(-6.14 -6.1)"/><path class="cls-1" d="M416.44,309.07c-.73-7.41-.25-13.26-.77-20.7,0-.6-.17-1.31-.72-1.53-.78-.3-1.42.66-1.68,1.45a23.75,23.75,0,0,0,3.16,20.62" transform="translate(-6.14 -6.1)"/><path class="cls-1" d="M415.91,309.89A43.58,43.58,0,0,0,428.19,298c2.42-3.32,4.47-7.29,3.92-11.36a11.75,11.75,0,0,0-8.86,4.39,24.78,24.78,0,0,0-4.51,9.09c-1,3.26-1.68,6.61-2.83,9.81" transform="translate(-6.14 -6.1)"/><path class="cls-1" d="M428,306.54a98.79,98.79,0,0,0,30.21-17.81c-3.6-1.46-7.74-.59-11.34.87-8.25,3.33-15,8.94-19,16.86" transform="translate(-6.14 -6.1)"/><path class="cls-1" d="M419.3,314c5.58.61,11.24,1,16.78.08s10.58-3.07,15.66-5.2a1.83,1.83,0,0,0,1.06-.81,1.22,1.22,0,0,0-.38-1.34,3.27,3.27,0,0,0-1.33-.63c-5.53-1.54-11.49-.82-16.93,1A78.87,78.87,0,0,0,419.3,314" transform="translate(-6.14 -6.1)"/><path class="cls-1" d="M387.46,327.7c-3.81-7.68-3.56-16.65-.27-24.56,2.31,3.52,2.59,8,2.17,12.21s-1.7,8.51-1.78,12.73" transform="translate(-6.14 -6.1)"/><path class="cls-1" d="M372.26,320a34.29,34.29,0,0,0-25.46,10.84c4.74.75,9.63-.48,13.94-2.58a70.52,70.52,0,0,0,11.94-8" transform="translate(-6.14 -6.1)"/><path class="cls-1" d="M362,316.61c-4.65-.38-9.12-.95-13.59.42a16.31,16.31,0,0,0-10.36,8.78,24.5,24.5,0,0,0,12.74-2.41A72.9,72.9,0,0,0,362,316.61" transform="translate(-6.14 -6.1)"/><path class="cls-1" d="M377.17,316.77c-4.18-2.74-8.48-5.53-13.34-6.67s-10.51-.29-13.91,3.38c3.94,2.31,8.72,2.58,13.29,2.58s10.17-.06,14.48,1.47" transform="translate(-6.14 -6.1)"/><path class="cls-1" d="M377.19,317c-7.15-7-9.85-19.63-7-29.22a44.45,44.45,0,0,1,7,29.22" transform="translate(-6.14 -6.1)"/><path class="cls-1" d="M396.85,297.1c1.34-3.13,2.29-6.42,3.5-9.61a27.51,27.51,0,0,1,5-8.86A13.16,13.16,0,0,1,414.2,274,35.59,35.59,0,0,1,397,297.15" transform="translate(-6.14 -6.1)"/><path class="cls-1" d="M393.29,301.25c-2.23-3.07-4.81-7.24-7.83-9.53s-7-3.68-10.66-2.8a24.85,24.85,0,0,0,18.49,12.33" transform="translate(-6.14 -6.1)"/><path class="cls-1" d="M394,297.36a53.11,53.11,0,0,1-3.52-11.42,17.74,17.74,0,0,1,1.78-11.61c3.93,7.41,5.19,15.38,1.94,23.11" transform="translate(-6.14 -6.1)"/><path class="cls-1" d="M396.88,274.33c2.23-7.36,9-12.77,16.23-15.25a5.91,5.91,0,0,1,2.84-.43,2.47,2.47,0,0,1,2.1,1.75c.26,1.25-.77,2.37-1.74,3.2a55.24,55.24,0,0,1-19.43,10.73" transform="translate(-6.14 -6.1)"/><path class="cls-1" d="M397,268.31c.29-4.74.58-9.55,2.12-14s4.52-8.7,8.84-10.67c.74,4.79-1.38,9.55-3.92,13.67s-5.62,8-7.15,12.61" transform="translate(-6.14 -6.1)"/><path class="cls-1" d="M396.85,271.58c-1.84-5.36-2-12.17-5.24-16.83-2.24-3.27-5.83-5.49-7.77-8.95A13.58,13.58,0,0,0,384.3,256a29.25,29.25,0,0,0,5.93,8.5c2.38,2.54,4.41,4.45,6.62,7.13" transform="translate(-6.14 -6.1)"/><path class="cls-1" d="M396.88,429.38c-.14,0-.26-35.75-.27-79.83s.09-79.84.24-79.84.26,35.74.27,79.84S397,429.38,396.88,429.38Z" transform="translate(-6.14 -6.1)"/><path class="cls-1" d="M428.12,322.3a7.57,7.57,0,0,1-1.34.51l-3.7,1.24c-3.12,1.07-7.41,2.61-12.06,4.51s-8.94,3.58-11.41,5.72a8.34,8.34,0,0,0-2.3,3c-.35.84-.42,1.35-.46,1.34s0-.13,0-.37a6.5,6.5,0,0,1,.26-1.05,8.24,8.24,0,0,1,2.24-3.23,20.49,20.49,0,0,1,5-3.08c2-.92,4.18-1.89,6.51-2.85,4.66-1.91,9-3.4,12.13-4.37,1.58-.49,2.87-.86,3.76-1.1A8.32,8.32,0,0,1,428.12,322.3Z" transform="translate(-6.14 -6.1)"/><path class="cls-1" d="M438.36,297.15s-.12.15-.38.4l-1.14,1.08-4.29,3.89L418.3,315.21c-5.56,5-10.37,9.69-13.7,13.25-1.67,1.78-3,3.25-3.88,4.28l-1,1.18a3,3,0,0,1-.38.4s.09-.17.3-.46.53-.72,1-1.25c.86-1.07,2.13-2.58,3.77-4.4A180,180,0,0,1,418,314.83c5.58-4.94,10.66-9.38,14.35-12.58l4.39-3.77,1.21-1A2.36,2.36,0,0,1,438.36,297.15Z" transform="translate(-6.14 -6.1)"/><path class="cls-1" d="M412.3,320.25c-.15-.07,1-2.75,2.17-6.14s1.72-6.26,1.87-6.24a21.29,21.29,0,0,1-1.38,6.4,42.11,42.11,0,0,1-1.73,4.3A7,7,0,0,1,412.3,320.25Z" transform="translate(-6.14 -6.1)"/><path class="cls-1" d="M396.92,341.88a5.84,5.84,0,0,1-.86-1l-2.2-2.82c-1.84-2.38-4.39-5.68-7.25-9.28s-5.49-6.83-7.39-9.17L377,316.84a5.94,5.94,0,0,1-.77-1.06,7,7,0,0,1,.93.93c.57.62,1.38,1.54,2.37,2.68,2,2.28,4.65,5.47,7.51,9.08s5.37,6.94,7.14,9.38c.89,1.22,1.6,2.22,2.07,2.92A7.35,7.35,0,0,1,396.92,341.88Z" transform="translate(-6.14 -6.1)"/><path class="cls-1" d="M390.07,333.09a12.45,12.45,0,0,1-2.87-5.37,15.2,15.2,0,0,1-.65-5.42l.22,0c-.1.41-.17.63-.21.63s-.05-.24,0-.67l.23,0a24.67,24.67,0,0,0,.91,5.27A41.07,41.07,0,0,0,390.07,333.09Z" transform="translate(-6.14 -6.1)"/><path class="cls-1" d="M381.22,322a9,9,0,0,0-2-1.17,13.51,13.51,0,0,0-5.56-.44,34.9,34.9,0,0,0-5.6.9,18.48,18.48,0,0,1-2.31.56,8.2,8.2,0,0,1,2.21-.91,25.42,25.42,0,0,1,5.66-1.06,12.08,12.08,0,0,1,5.74.61A3.5,3.5,0,0,1,381.22,322Z" transform="translate(-6.14 -6.1)"/><path class="cls-1" d="M379.13,319.27c0,.08-1.17-.47-3.07-1.12A31.11,31.11,0,0,0,360.59,317c-2,.36-3.17.73-3.2.64a3.25,3.25,0,0,1,.81-.34,18.61,18.61,0,0,1,2.32-.65,27.19,27.19,0,0,1,15.66,1.19,20.36,20.36,0,0,1,2.2,1A3.43,3.43,0,0,1,379.13,319.27Z" transform="translate(-6.14 -6.1)"/><path class="cls-1" d="M396.85,307.87a62.76,62.76,0,0,1-2.24-7.77,62.77,62.77,0,0,1-1.74-7.91,64,64,0,0,1,2.24,7.78A63.25,63.25,0,0,1,396.85,307.87Z" transform="translate(-6.14 -6.1)"/><path class="cls-1" d="M397,307.87a37.44,37.44,0,0,0-2.48-4.65,20.71,20.71,0,0,0-3.65-3.77,3.4,3.4,0,0,1,1.41.73,11.43,11.43,0,0,1,2.66,2.74A10.36,10.36,0,0,1,397,307.87Z" transform="translate(-6.14 -6.1)"/><path class="cls-1" d="M396.88,410.32c-.05,0-.16-.86-.56-2.38a34,34,0,0,0-2.39-6.18c-2.47-5.05-7-11.45-12.67-17.86-2.83-3.23-5.58-6.28-7.91-9.2a65.8,65.8,0,0,1-5.65-8.15,39.63,39.63,0,0,1-2.85-6.05c-.27-.75-.46-1.33-.56-1.73a2.45,2.45,0,0,1-.15-.62c.05,0,.31.82.89,2.27a43.6,43.6,0,0,0,3,5.94,68.57,68.57,0,0,0,5.7,8c2.34,2.89,5.09,5.92,7.93,9.16,5.72,6.43,10.2,12.91,12.61,18a30.59,30.59,0,0,1,2.25,6.3,16.24,16.24,0,0,1,.32,1.79A2.71,2.71,0,0,1,396.88,410.32Z" transform="translate(-6.14 -6.1)"/><path class="cls-1" d="M425.11,378.44a12.16,12.16,0,0,1-1.48.83,31.6,31.6,0,0,0-3.84,2.54,45.25,45.25,0,0,0-5,4.59c-1.76,1.87-3.59,4-5.45,6.37-3.71,4.66-7.19,8.79-9.27,12.08-1.06,1.64-1.83,3-2.33,4a11.3,11.3,0,0,1-.82,1.49,1.6,1.6,0,0,1,.14-.42c.11-.26.26-.66.5-1.16a36.51,36.51,0,0,1,2.2-4.08c2-3.38,5.47-7.56,9.18-12.22,1.86-2.33,3.71-4.5,5.51-6.37a42.33,42.33,0,0,1,5.16-4.56,27.25,27.25,0,0,1,4-2.42c.49-.25.89-.4,1.15-.51S425.1,378.42,425.11,378.44Z" transform="translate(-6.14 -6.1)"/><path class="cls-1" d="M425.66,388.78a21,21,0,0,1-3.12.46,40.44,40.44,0,0,0-7.42,1.46,22.41,22.41,0,0,0-6.64,3.48c-1.53,1.18-2.25,2.16-2.32,2.1s.12-.28.46-.71a11.09,11.09,0,0,1,1.63-1.67,20.1,20.1,0,0,1,6.71-3.7,33.71,33.71,0,0,1,7.54-1.33A17,17,0,0,1,425.66,388.78Z" transform="translate(-6.14 -6.1)"/><path class="cls-1" d="M407.07,395.15c-.16-.09,1.25-2.25,2.34-5.14s1.26-5.48,1.45-5.45a5.29,5.29,0,0,1-.05,1.67,18,18,0,0,1-.92,3.95,18.76,18.76,0,0,1-1.81,3.63A5.26,5.26,0,0,1,407.07,395.15Z" transform="translate(-6.14 -6.1)"/><path class="cls-1" d="M434.25,350.67a1.9,1.9,0,0,1-.5.27l-1.47.66c-.64.28-1.42.63-2.3,1.1s-1.92.92-3,1.56l-1.71,1c-.59.34-1.17.75-1.8,1.14-1.25.76-2.51,1.7-3.86,2.66a72.71,72.71,0,0,0-8.06,7.09,72,72,0,0,0-6.81,8.3c-.91,1.38-1.81,2.67-2.53,3.95-.37.64-.75,1.24-1.07,1.84s-.62,1.18-.91,1.74c-.61,1.09-1,2.14-1.47,3s-.76,1.68-1,2.34l-.62,1.49a2,2,0,0,1-.25.51,2.85,2.85,0,0,1,.16-.55c.13-.4.31-.91.52-1.53s.53-1.47.94-2.38.81-2,1.4-3.09l.89-1.76c.31-.61.69-1.22,1.05-1.87.71-1.3,1.6-2.61,2.51-4a63.64,63.64,0,0,1,15-15.5c1.36-1,2.64-1.89,3.91-2.64.64-.39,1.23-.79,1.83-1.12l1.73-.95c1.09-.62,2.14-1.07,3-1.51s1.69-.76,2.35-1l1.51-.58A2,2,0,0,1,434.25,350.67Z" transform="translate(-6.14 -6.1)"/><path class="cls-1" d="M411.91,365.64a3.58,3.58,0,0,1,1.23-1.83,7.74,7.74,0,0,1,4.95-1.9,13.5,13.5,0,0,1,5.21,1,7.51,7.51,0,0,1,2,.95,11.07,11.07,0,0,1-2.09-.61,15.6,15.6,0,0,0-5.07-.84,8,8,0,0,0-4.73,1.66A14.59,14.59,0,0,0,411.91,365.64Z" transform="translate(-6.14 -6.1)"/><path class="cls-1" d="M408.57,369.08a18.47,18.47,0,0,0,1.41-4.57,18.1,18.1,0,0,0-.32-4.77c.06,0,.34.46.58,1.33a9.41,9.41,0,0,1-.8,6.85C409,368.71,408.62,369.12,408.57,369.08Z" transform="translate(-6.14 -6.1)"/><path class="cls-1" d="M372.2,415.44C373,429.1,377.08,443,383.41,457H411c6-13.9,9.87-27.78,10.55-41.6Z" transform="translate(-6.14 -6.1)"/><path class="cls-2" d="M417,437.55c0,.14-9.07.26-20.25.26s-20.25-.12-20.25-.26,9.07-.26,20.25-.26S417,437.4,417,437.55Z" transform="translate(-6.14 -6.1)"/><path class="cls-2" d="M416.42,442.5c0,.14-8.5.25-19,.25s-19-.11-19-.25,8.5-.26,19-.26S416.42,442.35,416.42,442.5Z" transform="translate(-6.14 -6.1)"/><path class="cls-2" d="M383.86,424.41a77.55,77.55,0,0,1,0,12.69,77.55,77.55,0,0,1,0-12.69Z" transform="translate(-6.14 -6.1)"/><path class="cls-2" d="M398.61,424.41a83.14,83.14,0,0,1,0,13.14,83.14,83.14,0,0,1,0-13.14Z" transform="translate(-6.14 -6.1)"/><path class="cls-2" d="M412.46,424.3a86.46,86.46,0,0,1,0,13.4,86.46,86.46,0,0,1,0-13.4Z" transform="translate(-6.14 -6.1)"/><path class="cls-2" d="M420.62,424.41c0,.14-10.63.26-23.74.26s-23.75-.12-23.75-.26,10.63-.26,23.75-.26S420.62,424.27,420.62,424.41Z" transform="translate(-6.14 -6.1)"/></g><g id="Floor"><path class="cls-6" d="M436,454c0,.14-93.25.26-208.25.26S19.5,454.1,19.5,454s93.23-.27,208.28-.27S436,453.81,436,454Z" transform="translate(-6.14 -6.1)"/></g><g id="Character_2" data-name="Character 2"><polygon class="cls-7" points="209.19 122.42 216.96 120.74 244.69 123.02 250.6 125.56 225.29 155.19 209.19 122.42"/><path class="cls-6" d="M232.45,126.13q-2.31-25.42-4.61-50.86l-20.05,3.4-2.67,18.82c-.46,3.29-.93,6.64-.32,9.9.56,3,2,5.73,2.5,8.71a14.78,14.78,0,0,1-3.49,12.2Z" transform="translate(-6.14 -6.1)"/><path class="cls-6" d="M260.67,84.42A31.51,31.51,0,0,0,249,62.92c-5.91-4.56-12.61-5.79-20.07-5.42-3.67.19-7.8,1.91-11,3.75-4.37,2.52-6.18,7.57-8.26,12.16-4.17,9.2-3.53,21.6-.63,25l52.34,30.85c6.74-3.58,5.86-15.58,3.55-22.86A127.4,127.4,0,0,1,260.67,84.42Z" transform="translate(-6.14 -6.1)"/><path class="cls-7" d="M248.08,69.88,223.93,63c-7.77-1.06-13.26,8.38-14,16.18-.81,8.68-1.47,19.31-.64,25.82C211,118.07,220.9,120,220.9,120s0,.2,0,4.08l-.18,5.63c2.95,10.67,23.61,8.9,25.8,1.37L252,74.66A4.59,4.59,0,0,0,248.08,69.88Z" transform="translate(-6.14 -6.1)"/><path class="cls-6" d="M212.81,91a1.68,1.68,0,0,0,1.56,1.74,1.59,1.59,0,0,0,1.77-1.45,1.67,1.67,0,0,0-1.55-1.74A1.61,1.61,0,0,0,212.81,91Z" transform="translate(-6.14 -6.1)"/><path class="cls-6" d="M212.22,86.71c.2.22,1.5-.68,3.3-.61s3.09,1,3.29.78-.1-.49-.66-.93a4.63,4.63,0,0,0-2.63-.9,4.42,4.42,0,0,0-2.63.76C212.32,86.22,212.12,86.61,212.22,86.71Z" transform="translate(-6.14 -6.1)"/><path class="cls-6" d="M229.1,90.74a1.68,1.68,0,0,0,1.56,1.74A1.6,1.6,0,0,0,232.43,91a1.68,1.68,0,0,0-1.56-1.74A1.61,1.61,0,0,0,229.1,90.74Z" transform="translate(-6.14 -6.1)"/><path class="cls-6" d="M229.81,86.77c.2.23,1.5-.67,3.29-.61s3.1,1,3.3.79-.1-.5-.66-.93a4.58,4.58,0,0,0-2.63-.9,4.35,4.35,0,0,0-2.63.76C229.91,86.28,229.71,86.67,229.81,86.77Z" transform="translate(-6.14 -6.1)"/><path class="cls-6" d="M223,99.39a12.1,12.1,0,0,0-2.91-.62c-.46-.06-.89-.16-1-.48a2.39,2.39,0,0,1,.35-1.35l1.47-3.46c2-4.92,3.54-9,3.34-9.06s-2,3.85-4.06,8.77l-1.41,3.48a2.69,2.69,0,0,0-.3,1.8,1.2,1.2,0,0,0,.74.69,3.59,3.59,0,0,0,.78.14A11.88,11.88,0,0,0,223,99.39Z" transform="translate(-6.14 -6.1)"/><path class="cls-8" d="M220.9,120a30.08,30.08,0,0,0,17.79-3.5s-4.8,8.86-17.81,7.23Z" transform="translate(-6.14 -6.1)"/><path class="cls-8" d="M228.89,103a2.39,2.39,0,0,0-2-1.14,3.08,3.08,0,0,0-2.88,1.31,2,2,0,0,0-.17,1.4c.1.24,0,.12.2.29a5.39,5.39,0,0,0,2.19,1.45,2.35,2.35,0,0,0,2.5-.83A2.39,2.39,0,0,0,228.89,103Z" transform="translate(-6.14 -6.1)"/><path class="cls-6" d="M228.57,100.88c-.29,0-.37,1.92-2.09,3.25s-3.8,1-3.82,1.3c0,.12.45.4,1.33.46a4.86,4.86,0,0,0,3.18-1,4.28,4.28,0,0,0,1.63-2.73C228.9,101.36,228.7,100.87,228.57,100.88Z" transform="translate(-6.14 -6.1)"/><path class="cls-6" d="M229.17,81.09c.13.5,1.94.43,4,.87s3.74,1.17,4.06.75c.14-.19-.12-.68-.76-1.21a7.15,7.15,0,0,0-6.15-1.24C229.54,80.5,229.11,80.85,229.17,81.09Z" transform="translate(-6.14 -6.1)"/><path class="cls-6" d="M212.31,82.76c.41.35,1.72-.28,3.36-.55s3.09-.2,3.34-.67c.11-.23-.17-.6-.84-.89a5.44,5.44,0,0,0-5.4,1C212.25,82.14,212.13,82.58,212.31,82.76Z" transform="translate(-6.14 -6.1)"/><path class="cls-6" d="M223.9,62.06a28.86,28.86,0,0,0,2.17,15.54,10.63,10.63,0,0,0,2.41,3.69,4.75,4.75,0,0,0,4.08,1.28,17.64,17.64,0,0,1-3.63-10.1c1.57,3.69,3.18,7.46,5.82,10.49s6.53,5.25,10.53,4.87L245,85.15a9.29,9.29,0,0,0,3.19,5,4.75,4.75,0,0,0,5.6.11c-1.37-6.53,2.6-13.63.07-19.8-1.75-4.28-6.2-6.82-10.61-8.2a36.88,36.88,0,0,0-19.25-.7" transform="translate(-6.14 -6.1)"/><path class="cls-6" d="M224.44,62.17l-.06.28,0,0C224.43,62.37,224.43,62.27,224.44,62.17Z" transform="translate(-6.14 -6.1)"/><path class="cls-6" d="M224.38,62.45l-.79-.33c-2.47-1.26-4.09-2.69-7.9.7a23.59,23.59,0,0,0-5.23,7.41,30.12,30.12,0,0,0-2.87,8,34.79,34.79,0,0,0-.24,10c2.21-1.47,3.33-4.1,4-6.66s1.11-5.24,2.4-7.57a20.2,20.2,0,0,0-.38,6.61,2.78,2.78,0,0,0,.73,1.64,1.16,1.16,0,0,0,1.62,0,14.16,14.16,0,0,1,0-7.85A39.85,39.85,0,0,1,218.67,67a38.87,38.87,0,0,0,.54,13.26A3.38,3.38,0,0,0,220,82a3.15,3.15,0,0,0,2.7.55,6.37,6.37,0,0,1,2.84-.13A37.52,37.52,0,0,1,224.38,62.45Z" transform="translate(-6.14 -6.1)"/><path class="cls-6" d="M244.76,121c.3-3-2.73-6.49-2.4-9.53.35-3.22,2.41-6,3.24-9.13,2-7.6-3.45-15.86-.89-23.3l10.06,1.32,6.66,48.89-23.3.9C240.19,127.21,244.4,124.63,244.76,121Z" transform="translate(-6.14 -6.1)"/><path class="cls-7" d="M168.58,173l-10.31,12.69-27-6.65-10.6,9.66s28,16.27,33.19,17.82c5.88,1.76,9.79.21,14.89-3.44s16.09-17.19,16.09-17.19Z" transform="translate(-6.14 -6.1)"/><path class="cls-7" d="M135,180.21l-5.64-2.72s-.64-5.37-1.66-7.59-7.95-10.22-7.95-10.22a2.64,2.64,0,0,0-1.41,3c.26.93,3.54,7.23,3.54,7.23h0c-.75.55-2.38.91-4.3-.39-2.37-1.61-5.15-3.43-5.55-3.61s-1.92-3.71-3-6.36c-.63-1.58-3.15-1.42-3.39.27a.81.81,0,0,0,0,.47s-2.68-1.28-1.92,3.37c0,0-2.11,3.08-.82,5.47,0,0-1,4.38-.36,6.32s12,10,12,10l12.67,7Z" transform="translate(-6.14 -6.1)"/><path class="cls-8" d="M123.23,179.05a13.72,13.72,0,0,1-1.29-1.81,7.3,7.3,0,0,1,.1-7.19l0-.09-.06-.11c-.73-1.32-1.33-2.59-1.79-3.42a5.08,5.08,0,0,0-.81-1.31,2.44,2.44,0,0,0,.15.38c.14.3.29.64.46,1,.42.89.93,2.1,1.71,3.54v-.19a7,7,0,0,0-.87,2.14,7.29,7.29,0,0,0-.06,3,7,7,0,0,0,.9,2.32,6.81,6.81,0,0,0,1,1.31C123,179,123.22,179.07,123.23,179.05Z" transform="translate(-6.14 -6.1)"/><path class="cls-8" d="M109.81,177a10.89,10.89,0,0,0-1.34-1.06,6.26,6.26,0,0,1-2.38-3.14c-.18-.75-.18-1.53-.38-2.24a2.44,2.44,0,0,0-1.1-1.58,1.48,1.48,0,0,0-1.29-.07c-.29.14-.37.31-.36.31s.14-.1.41-.18a1.42,1.42,0,0,1,1.11.17,2.25,2.25,0,0,1,.9,1.44c.17.65.16,1.42.36,2.24a4.89,4.89,0,0,0,1.14,2,9.14,9.14,0,0,0,1.43,1.22A5.72,5.72,0,0,0,109.81,177Z" transform="translate(-6.14 -6.1)"/><path class="cls-8" d="M113.49,173.63a16.33,16.33,0,0,0-1.91-1.23,10.79,10.79,0,0,1-3.83-3.74,6.14,6.14,0,0,1-.55-1.41,10.1,10.1,0,0,1-.2-1.42,3.14,3.14,0,0,0-1-2.31,1.37,1.37,0,0,0-1-.27,1.25,1.25,0,0,0-.71.28c-.33.29-.3.56-.29.55s.07-.22.38-.43a1.19,1.19,0,0,1,1.43.08,2.92,2.92,0,0,1,.83,2.13,8.85,8.85,0,0,0,.19,1.47,6,6,0,0,0,.58,1.51,10.14,10.14,0,0,0,4,3.78c.62.35,1.13.61,1.48.78A2.15,2.15,0,0,0,113.49,173.63Z" transform="translate(-6.14 -6.1)"/><path class="cls-8" d="M105.41,160a4.34,4.34,0,0,1,1.39,1.44,9.7,9.7,0,0,1,.82,2,11.67,11.67,0,0,0,1.06,2.57,9.9,9.9,0,0,0,3.56,3.53,8.56,8.56,0,0,0,1.39.64c.34.1.54.15.54.12s-.73-.31-1.79-1a10.53,10.53,0,0,1-3.38-3.5,11.93,11.93,0,0,1-1.06-2.48,8.55,8.55,0,0,0-.92-2.08A2.61,2.61,0,0,0,105.41,160Z" transform="translate(-6.14 -6.1)"/><path class="cls-9" d="M209.32,423.46l1,19s-19,6-19.14,9.55l36.92.76-.35-29.68Z" transform="translate(-6.14 -6.1)"/><g class="cls-10"><path class="cls-3" d="M221.72,440.67a1.51,1.51,0,0,1,1.07,1.7,1.46,1.46,0,0,1-1.68,1.08,1.58,1.58,0,0,1-1.12-1.81,1.5,1.5,0,0,1,1.87-.93" transform="translate(-6.14 -6.1)"/></g><g class="cls-10"><path class="cls-3" d="M228.11,452.77l0-3-35.68.51a2.57,2.57,0,0,0-1.4,2Z" transform="translate(-6.14 -6.1)"/></g><path class="cls-6" d="M209.73,442.28c0,.18.91.25,1.81.81s1.38,1.32,1.54,1.25-.12-1.12-1.22-1.78S209.69,442.12,209.73,442.28Z" transform="translate(-6.14 -6.1)"/><path class="cls-6" d="M205.88,444c0,.18.75.47,1.38,1.22s.81,1.56,1,1.55.28-1-.52-2S205.88,443.78,205.88,444Z" transform="translate(-6.14 -6.1)"/><path class="cls-6" d="M203.76,448.62c.17,0,.4-.87-.08-1.85s-1.33-1.35-1.4-1.2.46.67.84,1.48S203.58,448.61,203.76,448.62Z" transform="translate(-6.14 -6.1)"/><path class="cls-6" d="M210,437.93c.08.16.9-.1,1.92-.05s1.82.36,1.91.2-.68-.78-1.88-.83S209.89,437.79,210,437.93Z" transform="translate(-6.14 -6.1)"/><path class="cls-6" d="M209.85,434.09a3.55,3.55,0,0,0,1.84,0,8.61,8.61,0,0,0,1.93-.63,7.84,7.84,0,0,0,1-.58,2.14,2.14,0,0,0,.55-.45.79.79,0,0,0,.07-1,1,1,0,0,0-.8-.39,2.34,2.34,0,0,0-.69.1,6.4,6.4,0,0,0-1.14.42,6.48,6.48,0,0,0-1.69,1.15c-.84.8-1.12,1.48-1.06,1.52s.49-.52,1.35-1.19a7.71,7.71,0,0,1,1.63-1,8.22,8.22,0,0,1,1.06-.34c.39-.11.72-.12.82.05s0,.1,0,.21a2.17,2.17,0,0,1-.41.33,10,10,0,0,1-2.74,1.29A11.76,11.76,0,0,0,209.85,434.09Z" transform="translate(-6.14 -6.1)"/><path class="cls-6" d="M210.09,434.34a2.92,2.92,0,0,0,.45-1.79,6.15,6.15,0,0,0-.28-2,6.05,6.05,0,0,0-.49-1.12,1.55,1.55,0,0,0-1.2-.91.84.84,0,0,0-.76.53,2.46,2.46,0,0,0-.18.68,4,4,0,0,0,0,1.25,4.22,4.22,0,0,0,.82,1.89c.74.95,1.49,1.15,1.51,1.09s-.58-.43-1.14-1.34a4.21,4.21,0,0,1-.62-1.73,3.86,3.86,0,0,1,0-1.07c0-.39.19-.71.34-.67s.5.28.65.59a5.7,5.7,0,0,1,.48,1,6.91,6.91,0,0,1,.39,1.84C210.17,433.64,210,434.32,210.09,434.34Z" transform="translate(-6.14 -6.1)"/><path class="cls-9" d="M247.92,421.39l.7,24.54,6.16,19.25a2.52,2.52,0,0,1-1.79,3.21h0a2.49,2.49,0,0,1-2.24-.54c-3.93-3.39-18.32-16-18.27-17.75.06-2.08-2.46-25.84-2.46-25.84Z" transform="translate(-6.14 -6.1)"/><g class="cls-10"><path class="cls-3" d="M253,468.39,232.4,448.45l0,1a3.84,3.84,0,0,0,1,2.41c1.66,1.75,6.32,6.48,17.2,16a2.54,2.54,0,0,0,2.32.53Z" transform="translate(-6.14 -6.1)"/></g><g class="cls-10"><path class="cls-3" d="M237,440.28a1.51,1.51,0,0,1,.52,2,1.47,1.47,0,0,1-1.94.53,1.59,1.59,0,0,1-.54-2.08,1.52,1.52,0,0,1,2.08-.33" transform="translate(-6.14 -6.1)"/></g><path class="cls-6" d="M246.83,458c.14.06.63-1.26,2-2a7.62,7.62,0,0,1,2.79-.69c0-.06-.3-.23-.88-.29a3.9,3.9,0,0,0-2.17.51,3.82,3.82,0,0,0-1.57,1.59C246.79,457.58,246.77,458,246.83,458Z" transform="translate(-6.14 -6.1)"/><path class="cls-6" d="M248.74,461.16c.13.1.87-.74,2.12-1.17a20.74,20.74,0,0,1,2.38-.43,2.79,2.79,0,0,0-2.56-.08C249.26,460,248.61,461.1,248.74,461.16Z" transform="translate(-6.14 -6.1)"/><path class="cls-6" d="M243.36,453.93a24.56,24.56,0,0,1,3.15-2,24.9,24.9,0,0,1,3.59-1,5.61,5.61,0,0,0-3.82.54A5.55,5.55,0,0,0,243.36,453.93Z" transform="translate(-6.14 -6.1)"/><path class="cls-6" d="M242.52,446.48c.07.15,1.4-.49,3.16-.64s3.18.19,3.22,0a4.79,4.79,0,0,0-3.27-.58A4.9,4.9,0,0,0,242.52,446.48Z" transform="translate(-6.14 -6.1)"/><path class="cls-6" d="M242.13,439.29a7.93,7.93,0,0,1,6.56-.12c0-.05-.24-.34-.82-.64a5.53,5.53,0,0,0-4.93.08C242.37,438.93,242.09,439.23,242.13,439.29Z" transform="translate(-6.14 -6.1)"/><path class="cls-6" d="M245.29,437.16a2.11,2.11,0,0,0,0-.93,6.33,6.33,0,0,0-.86-2.39,2.86,2.86,0,0,0-1.3-1.3,1,1,0,0,0-1.12.28,1.62,1.62,0,0,0-.33,1.13,3.55,3.55,0,0,0,3.28,3.12,4.11,4.11,0,0,0,3.93-2.36,1.41,1.41,0,0,0,0-1.19,1,1,0,0,0-1.07-.47,3.4,3.4,0,0,0-1.57.92,7.09,7.09,0,0,0-1.57,2,2.09,2.09,0,0,0-.33.87,11.21,11.21,0,0,1,2.15-2.57,3.19,3.19,0,0,1,1.39-.77.53.53,0,0,1,.58.25,1,1,0,0,1-.05.78,3.68,3.68,0,0,1-3.43,2,3.08,3.08,0,0,1-2.83-2.61,1.21,1.21,0,0,1,.2-.8A.55.55,0,0,1,243,433a2.65,2.65,0,0,1,1.12,1.08A9.82,9.82,0,0,1,245.29,437.16Z" transform="translate(-6.14 -6.1)"/><polygon class="cls-11" points="215.23 259.24 220.05 429.78 246.25 431.89 268.11 255.32 215.23 259.24"/><path class="cls-11" d="M186,263.16s3.55,54.13,6.93,74.42,11.63,93.58,15.5,95.27,26.34-.6,26.34-.6l8-167.36Z" transform="translate(-6.14 -6.1)"/><g class="cls-12"><polygon points="180.63 267.69 180.86 270.74 222.57 276 234.62 269.14 258.79 267.9 180.63 267.69"/></g><path class="cls-6" d="M225.29,434.18c-.14,0,.52-34.91,1.46-78s1.83-78,2-78-.51,34.9-1.46,78S225.44,434.18,225.29,434.18Z" transform="translate(-6.14 -6.1)"/><path class="cls-11" d="M159.09,179.57s28.19-40.47,30.54-41,27.94-11.75,27.94-11.75L233,157.9,256.46,131s21.93,16.45,23.24,20.1S263,207.24,263,207.24s8.09,12.53,9.66,26.63-1.57,40.72-1.57,40.72l-89-.81s-.94-39.33,5.83-59.84c3.65-11,7.7-24.19,7.7-24.19l-2.09-7.57-14.62,16.45Z" transform="translate(-6.14 -6.1)"/><path class="cls-6" d="M239.15,170.65a3.21,3.21,0,0,1,.47-.18,7.32,7.32,0,0,1,1.44-.31,14.24,14.24,0,0,1,5.53.6c2.33.62,5.07,1.62,8.22,2.69,1.57.53,3.26,1.07,5.06,1.54a24.69,24.69,0,0,0,5.71.92h.29l-.05.26c-1.35,7.47-2.92,16.21-4.6,25.52-.09.48-.17.95-.26,1.42l-.06.32-.3-.14c-2.13-1-4.26-1.89-6.36-2.73a50.06,50.06,0,0,0-6.23-2.15,86.32,86.32,0,0,0-12-1.56l-.23,0,0-.23c1-7.79,1.79-14.28,2.36-18.88.29-2.23.52-4,.68-5.24.08-.58.15-1,.2-1.37a2.12,2.12,0,0,1,.08-.46,3.07,3.07,0,0,1,0,.5c0,.35-.08.82-.14,1.41-.13,1.26-.33,3-.57,5.29-.52,4.58-1.26,11-2.14,18.8l-.2-.24a84.89,84.89,0,0,1,12.05,1.53,48.44,48.44,0,0,1,6.31,2.15q3.17,1.28,6.39,2.74l-.36.18c.08-.46.17-.93.26-1.41,1.7-9.31,3.3-18,4.66-25.51l.24.26a23.77,23.77,0,0,1-5.85-1c-1.82-.48-3.51-1-5.08-1.59-3.15-1.1-5.87-2.13-8.16-2.78a14.85,14.85,0,0,0-5.45-.72A18.89,18.89,0,0,0,239.15,170.65Z" transform="translate(-6.14 -6.1)"/><polygon class="cls-11" points="273.56 145.02 287.13 196.19 259.64 206.14 256.85 201.15 273.56 145.02"/><path class="cls-6" d="M182.11,263.9a.51.51,0,0,1,.23,0l.66.11,2.52.42c2.19.35,5.37.84,9.32,1.12a42.22,42.22,0,0,0,6.46,0,15.14,15.14,0,0,0,1.74-.24c.29-.06.59-.11.88-.19l.85-.28c1.16-.32,1.79-1.53,2.31-2.68a20.76,20.76,0,0,0,1.17-3.8c.3-1.33.54-2.71.74-4.12.4-2.82.65-5.77.84-8.78.39-6.6.45-12.88.35-18.43l.23.22-18.36-.38-5.22-.15-1.38-.06-.47,0a1.43,1.43,0,0,1,.47,0l1.39,0,5.21,0,18.37.2h.22V227c.12,5.57.09,11.86-.31,18.48-.19,3-.45,6-.86,8.82-.2,1.42-.44,2.81-.75,4.16a22.45,22.45,0,0,1-1.21,3.88,8.51,8.51,0,0,1-1,1.74,4.77,4.77,0,0,1-.7.72,3.3,3.3,0,0,1-.9.45l-.9.29c-.3.08-.61.13-.91.19a15.82,15.82,0,0,1-1.78.24,42.49,42.49,0,0,1-6.52-.06,89.42,89.42,0,0,1-9.33-1.29c-1.1-.2-1.94-.38-2.51-.51l-.65-.16Z" transform="translate(-6.14 -6.1)"/><path class="cls-6" d="M210.16,233.46c0,.14-5.86.25-13.08.25S184,233.6,184,233.46s5.86-.26,13.08-.26S210.16,233.32,210.16,233.46Z" transform="translate(-6.14 -6.1)"/><path class="cls-6" d="M222,176.35c.11.08-6.61,9.15-15,20.24s-15.31,20-15.42,19.94,6.61-9.15,15-20.25S221.88,176.26,222,176.35Z" transform="translate(-6.14 -6.1)"/><path class="cls-6" d="M193.55,182.18a8.48,8.48,0,0,1-.29-1.56c-.15-1-.34-2.47-.54-4.28a139,139,0,0,1-.83-14.22,122.23,122.23,0,0,1,.73-14.24c.21-1.81.41-3.27.58-4.28a10.94,10.94,0,0,1,.31-1.55,9.22,9.22,0,0,1-.11,1.58c-.11,1-.25,2.48-.42,4.29-.32,3.62-.62,8.64-.58,14.19s.38,10.57.68,14.19c.16,1.75.28,3.19.38,4.3A10.27,10.27,0,0,1,193.55,182.18Z" transform="translate(-6.14 -6.1)"/><path class="cls-6" d="M213.42,165.76a6.66,6.66,0,0,1-.46,1.38c-.33.88-.84,2.13-1.48,3.68-1.28,3.09-3.15,7.32-5.37,11.91s-4.37,8.69-6,11.62c-.81,1.46-1.48,2.64-2,3.44a8.53,8.53,0,0,1-.79,1.23,8,8,0,0,1,.61-1.32c.47-.92,1.08-2.1,1.82-3.52,1.53-3,3.63-7.08,5.84-11.67s4.13-8.79,5.5-11.84l1.62-3.6A8.54,8.54,0,0,1,213.42,165.76Z" transform="translate(-6.14 -6.1)"/><path class="cls-6" d="M263,136a5.25,5.25,0,0,1-.45.67l-1.38,1.88-5.18,6.9-17.59,23.14-.07.1H227l-.07-.15c-5-10.67-9.53-20.15-12.77-27l-3.76-8.07-1-2.19-.25-.57c-.05-.13-.07-.2-.07-.2s0,0,.12.18l.29.55,1.07,2.15c.94,1.92,2.26,4.64,3.9,8,3.28,6.84,7.82,16.3,12.92,27l-.23-.15h11l-.2.1,17.72-23,5.3-6.8,1.45-1.83A6.24,6.24,0,0,1,263,136Z" transform="translate(-6.14 -6.1)"/><path class="cls-6" d="M261,229.53a5.21,5.21,0,0,1-.71-.83c-.43-.54-1-1.36-1.72-2.41a53.42,53.42,0,0,1-7.58-17.9c-.27-1.22-.45-2.21-.54-2.91a4.16,4.16,0,0,1-.09-1.08c.08,0,.36,1.5,1,3.91a63.66,63.66,0,0,0,7.54,17.79C260.18,228.22,261.07,229.48,261,229.53Z" transform="translate(-6.14 -6.1)"/><path class="cls-6" d="M254.16,214.88c-.09-.13,2.28-1.77,5-4.07s4.69-4.38,4.8-4.28a23.41,23.41,0,0,1-4.47,4.67A23.69,23.69,0,0,1,254.16,214.88Z" transform="translate(-6.14 -6.1)"/><path class="cls-6" d="M266.73,214.19a1.75,1.75,0,0,1-.22-.34l-.58-1c-.53-1-1.24-2.29-2.13-3.94l0-.05,0-.06c1.43-5.5,3.85-14.54,6.62-24.73l6-21.59c.77-2.71,1.4-4.93,1.86-6.53l.53-1.77a3.36,3.36,0,0,1,.22-.61,3.19,3.19,0,0,1-.12.64c-.11.46-.26,1.05-.44,1.79-.42,1.61-1,3.84-1.7,6.57-1.51,5.59-3.55,13.21-5.82,21.64-2.77,10.19-5.27,19.2-6.83,24.68v-.11l2,4c.21.43.37.78.51,1.07S266.75,214.18,266.73,214.19Z" transform="translate(-6.14 -6.1)"/><g class="cls-12"><path d="M216,177.23a210.8,210.8,0,0,0-22.85,36.94l.68-.34,6.48-9,15.87-22.07a6.49,6.49,0,0,0,1.45-3A2.25,2.25,0,0,0,216,177.23Z" transform="translate(-6.14 -6.1)"/></g><g class="cls-12"><path d="M193.55,182.18a34.61,34.61,0,0,1-1.13-29.65S192.54,177.36,193.55,182.18Z" transform="translate(-6.14 -6.1)"/></g><path class="cls-6" d="M264.29,181.64a4.55,4.55,0,0,1-1.05-.09c-.66-.09-1.63-.25-2.81-.46-2.37-.42-5.63-1.09-9.2-2s-6.77-1.81-9.06-2.54c-1.15-.36-2.07-.67-2.7-.9a4.14,4.14,0,0,1-1-.41,4,4,0,0,1,1,.22l2.75.75c2.32.64,5.52,1.51,9.08,2.39s6.8,1.6,9.15,2.11l2.78.61A3.6,3.6,0,0,1,264.29,181.64Z" transform="translate(-6.14 -6.1)"/><g class="cls-12"><path d="M236.05,196.63s17.39,8.45,24.66,6.43C260.71,203.06,248.31,196.12,236.05,196.63Z" transform="translate(-6.14 -6.1)"/></g><g class="cls-12"><path d="M264.72,206.53s13.41-8.39,10.85-41.31Z" transform="translate(-6.14 -6.1)"/></g><path class="cls-6" d="M267.63,273.78c0,.14-19,.26-42.33.26s-42.34-.12-42.34-.26,18.95-.26,42.34-.26S267.63,273.64,267.63,273.78Z" transform="translate(-6.14 -6.1)"/><path class="cls-7" d="M284.54,205.48s1.93,31.9,1.15,36.86-3.59,27.41-3.59,27.41l-11.29-2.35-3.08-55.83Z" transform="translate(-6.14 -6.1)"/><path class="cls-7" d="M282.22,269l-.19-.43-11.29-2.35s-4.08,11.23-4.47,13,.26,6.95-.51,9.65,1,2.83,2.11,2.83,5.22-12.23,5.22-12.23l.78,5.67-2.58,5.66s.52,3.48,1.29,3.36,3.77-2.46,3.77-2.46l.47,1.81s-1.41.77.65.64,3.48-2.32,3.48-2.32l1.08,1.68,4.45-4.9s.65-7.46.65-7.94S283.14,271.09,282.22,269Z" transform="translate(-6.14 -6.1)"/></g><g id="Character_3" data-name="Character 3"><path class="cls-11" d="M321.14,420.8l1.44,24.08-4.34,19.37a2.47,2.47,0,0,0,2,3h0a2.49,2.49,0,0,0,2.15-.72c3.55-3.67,16.3-17.1,16.25-18.6-.07-1.94.24-25.87.24-25.87Z" transform="translate(-6.14 -6.1)"/><path class="cls-6" d="M320.27,467.24l18.41-22.09,0,1.8a2.93,2.93,0,0,1-.49,2.2,206.74,206.74,0,0,1-15.53,17.74,2.79,2.79,0,0,1-2.43.35Z" transform="translate(-6.14 -6.1)"/><path class="cls-3" d="M333.45,438.33a1.5,1.5,0,0,0-.34,2,1.44,1.44,0,0,0,1.95.35,1.58,1.58,0,0,0,.34-2.08,1.48,1.48,0,0,0-2.06-.14" transform="translate(-6.14 -6.1)"/><path class="cls-6" d="M325.39,456.5a7.43,7.43,0,0,0-2.18-1.8,7.62,7.62,0,0,0-2.8-.43s.28-.25.84-.35a3.74,3.74,0,0,1,2.17.3,3.81,3.81,0,0,1,1.68,1.42C325.4,456.12,325.45,456.48,325.39,456.5Z" transform="translate(-6.14 -6.1)"/><path class="cls-6" d="M323.79,459.79a19.7,19.7,0,0,0-2.17-1,19.42,19.42,0,0,0-2.36-.21,2.7,2.7,0,0,1,2.49-.3C323.19,458.68,323.92,459.72,323.79,459.79Z" transform="translate(-6.14 -6.1)"/><path class="cls-6" d="M328.43,452.24a12.69,12.69,0,0,0-6.86-2.4,6.76,6.76,0,0,1,6.86,2.4Z" transform="translate(-6.14 -6.1)"/><path class="cls-6" d="M328.61,444.89c-.06.14-1.42-.36-3.15-.36s-3.09.47-3.15.32a6.14,6.14,0,0,1,6.3,0Z" transform="translate(-6.14 -6.1)"/><path class="cls-6" d="M328.36,437.81a12.09,12.09,0,0,0-3.27-.46,12,12,0,0,0-3.16.92s.21-.36.75-.7a5.18,5.18,0,0,1,2.38-.75,5.28,5.28,0,0,1,2.45.4C328.1,437.48,328.39,437.75,328.36,437.81Z" transform="translate(-6.14 -6.1)"/><path class="cls-6" d="M325.09,436a2.07,2.07,0,0,1-.07-.91,6.3,6.3,0,0,1,.64-2.42,2.79,2.79,0,0,1,1.15-1.38,1,1,0,0,1,1.13.18,1.62,1.62,0,0,1,.42,1.07,3.51,3.51,0,0,1-2.94,3.35,4.08,4.08,0,0,1-4.06-2,1.44,1.44,0,0,1-.11-1.17,1,1,0,0,1,1-.55,3.45,3.45,0,0,1,1.62.76,7.12,7.12,0,0,1,1.72,1.81,2.15,2.15,0,0,1,.4.82,11.16,11.16,0,0,0-2.33-2.32,3.25,3.25,0,0,0-1.43-.64.55.55,0,0,0-.55.3,1,1,0,0,0,.12.77,3.61,3.61,0,0,0,3.54,1.66,3,3,0,0,0,2.53-2.8,1.2,1.2,0,0,0-.26-.76.53.53,0,0,0-.62-.11,2.58,2.58,0,0,0-1,1.16A9.32,9.32,0,0,0,325.09,436Z" transform="translate(-6.14 -6.1)"/><path class="cls-11" d="M360.37,422.11,359.54,442s20,7.53,20.18,11.22L341,453.05l0-31.09Z" transform="translate(-6.14 -6.1)"/><path class="cls-3" d="M347.59,440.29a1.58,1.58,0,0,0-1.1,1.8,1.51,1.51,0,0,0,1.77,1.11,1.66,1.66,0,0,0,1.15-1.91,1.58,1.58,0,0,0-2-1" transform="translate(-6.14 -6.1)"/><path class="cls-6" d="M341,453.05v-2.83l37.29,1.08s1.31.88,1.39,2Z" transform="translate(-6.14 -6.1)"/><path class="cls-6" d="M360.17,441.84c0,.19-.95.27-1.89.87s-1.43,1.4-1.6,1.32.11-1.16,1.25-1.87S360.21,441.67,360.17,441.84Z" transform="translate(-6.14 -6.1)"/><path class="cls-6" d="M364.22,443.54c0,.19-.78.5-1.43,1.3s-.83,1.64-1,1.63-.3-1.08.52-2.05S364.21,443.36,364.22,443.54Z" transform="translate(-6.14 -6.1)"/><path class="cls-6" d="M366.49,448.41c-.17,0-.43-.9.07-1.93s1.37-1.44,1.45-1.29-.47.71-.86,1.57S366.68,448.4,366.49,448.41Z" transform="translate(-6.14 -6.1)"/><path class="cls-6" d="M359.85,437.28c-.08.17-.94-.09-2,0s-1.9.39-2,.23.71-.83,2-.89S360,437.13,359.85,437.28Z" transform="translate(-6.14 -6.1)"/><path class="cls-6" d="M374.65,329.11s-10,90.93-13.35,105.43H321.49S310,354.87,308.14,332.93Z" transform="translate(-6.14 -6.1)"/><path class="cls-9" d="M339.76,340.5c-.14,0-.25,21.05-.25,47s.11,47,.25,47,.25-21.05.25-47S339.9,340.5,339.76,340.5Z" transform="translate(-6.14 -6.1)"/><path class="cls-3" d="M387.14,241.34c-1.81-10.13-9.77-89.77-9.77-89.77l-19.56-7-8.42-9.78-24.33,3.42-8,8s-15.34,4.82-19.21,7.55c0,0-8.37,5.67-11.11,14.61-2.1,6.84-12.15,40.67-12.15,40.67s-2.74,8.25-1.84,13.83c.52,3.18,2.7,9.5,7.94,12.28a19.51,19.51,0,0,0,14.12,1.41l-5.26,90.22s.45,9.09,24.56,13S395.47,332,395.47,332,389,251.47,387.14,241.34Z" transform="translate(-6.14 -6.1)"/><path class="cls-6" d="M387.14,241.34s.4,2.15.87,6.26,1.12,10.19,1.86,18c1.49,15.66,3.48,38.32,5.79,66.32v.17l-.17,0c-7.61,1.51-15.68,2.93-24.16,4.25s-17.37,2.5-26.65,3.36-19,1.51-28.93.38A68,68,0,0,1,301,336.62a29.92,29.92,0,0,1-6.93-3.56,16.06,16.06,0,0,1-2.91-2.68,7.61,7.61,0,0,1-1.8-3.62h0v0c1.57-26.94,3.27-56.23,5-86.62q.11-1.81.21-3.6l.33.27a20.26,20.26,0,0,1-8.48.49,17.59,17.59,0,0,1-4.09-1.12,14.2,14.2,0,0,1-3.69-2.1,16.9,16.9,0,0,1-4.85-6.8,20.91,20.91,0,0,1-1.2-4,18.16,18.16,0,0,1-.22-4.16,40.63,40.63,0,0,1,1.39-8.09l2.31-7.77q2.31-7.71,4.56-15.26L285.12,173a69,69,0,0,1,2.39-7.29,27.21,27.21,0,0,1,4.05-6.42,35.72,35.72,0,0,1,5.38-5.2,16,16,0,0,1,3.19-1.92c1.11-.54,2.24-1,3.37-1.47,4.52-1.81,9.05-3.34,13.53-4.78l-.09.06c2.72-2.72,5.36-5.35,8-8L325,138H325l24.34-3.4h.11l.08.08,8.4,9.79-.08-.06,19.55,7,.11,0v.12c2.77,27.76,5.09,50.21,6.76,65.73.84,7.75,1.53,13.77,2,17.85.26,2,.44,3.6.6,4.64s.21,1.57.21,1.57-.4-2.12-.92-6.19-1.25-10.1-2.11-17.85c-1.74-15.51-4.12-38-6.93-65.71l.12.16-19.56-7-.05,0,0,0c-2.71-3.16-5.49-6.39-8.42-9.78l.19.08-24.33,3.42.13-.06-8,8,0,0-.06,0c-4.47,1.43-9,3-13.49,4.78-1.12.46-2.25.92-3.34,1.46a15.73,15.73,0,0,0-3.1,1.86,34.78,34.78,0,0,0-5.3,5.14,26.43,26.43,0,0,0-4,6.3,69.49,69.49,0,0,0-2.37,7.23q-2.2,7.38-4.45,14.94t-4.56,15.27c-.77,2.56-1.53,5.15-2.3,7.74a40.72,40.72,0,0,0-1.37,8,18.08,18.08,0,0,0,.2,4,20.61,20.61,0,0,0,1.18,3.9,16.49,16.49,0,0,0,4.69,6.6c4.37,3.31,10.47,4.1,15.79,2.63l.36-.1,0,.36-.21,3.6c-1.78,30.39-3.49,59.68-5.07,86.62v0a7.34,7.34,0,0,0,1.69,3.33,15.8,15.8,0,0,0,2.82,2.6,29.07,29.07,0,0,0,6.81,3.5,67.48,67.48,0,0,0,14.67,3.5c9.87,1.13,19.57.43,28.83-.36s18.15-2,26.63-3.33,16.54-2.7,24.15-4.2l-.15.2c-2.26-28-4.19-50.67-5.62-66.33-.71-7.83-1.32-13.91-1.75-18-.24-2.05-.4-3.63-.56-4.67S387.14,241.34,387.14,241.34Z" transform="translate(-6.14 -6.1)"/><path class="cls-3" d="M374,166.65l-.22,22.74L376.28,213,356,215.32l1.41,26.92S383.52,242,396,237s9.51-17.46,8.62-23c-1.47-9.23-15.74-54.12-18.64-57.3-3.49-3.84-9.47-5.38-9.47-5.38Z" transform="translate(-6.14 -6.1)"/><path class="cls-11" d="M347.58,134.81a9.75,9.75,0,0,1,2.27,7.51c-.46,4.77-3.87,13.81-5.91,16.54s-14.56,26-14.56,26L323,151.57l-.41-10.9,2.45-2.44Z" transform="translate(-6.14 -6.1)"/><path class="cls-6" d="M332.39,184.22a3.52,3.52,0,0,0,.55-.36l1.53-1.11L340,178.6l8.21-6.21,4.84-3.68A4.35,4.35,0,0,0,355,166a7.45,7.45,0,0,0-.66-3.34,41.7,41.7,0,0,0-3.34-6.26l-.3.36,8.67,3.85.36.16,0-.38c-.54-4.68-1-8.59-1.31-11.4-.17-1.33-.31-2.39-.41-3.18a8.07,8.07,0,0,0-.18-1.12,5.66,5.66,0,0,0,.05,1.13c.07.8.17,1.87.29,3.2.28,2.81.66,6.73,1.13,11.41l.31-.22-8.68-3.91-.72-.33.42.69a42.28,42.28,0,0,1,3.29,6.19,6.91,6.91,0,0,1,.63,3.09,3.89,3.89,0,0,1-1.7,2.4L348,172l-8.14,6.3-5.47,4.27-1.47,1.19A2.72,2.72,0,0,0,332.39,184.22Z" transform="translate(-6.14 -6.1)"/><path class="cls-6" d="M329.38,184.84a2.3,2.3,0,0,0-.31-.51c-.25-.37-.58-.84-1-1.43-.9-1.28-2.13-3-3.63-5.2s-3.35-4.82-5.33-7.75c-1-1.47-2-3-3.05-4.64-.52-.81-1-1.64-1.51-2.5a5.57,5.57,0,0,1-1-2.68,4.69,4.69,0,0,1,1.87-3.2,14.34,14.34,0,0,1,3.15-2.06l1.21-.59-1.33.12-9.41.89.18.34c2.37-2.82,4.34-5.15,5.75-6.84.65-.79,1.18-1.42,1.57-1.91a3.57,3.57,0,0,0,.52-.7,8.12,8.12,0,0,0-.61.62l-1.65,1.84L309,155.36l-.34.38.51,0,9.42-.81-.13-.47a14.79,14.79,0,0,0-3.29,2.13,7.47,7.47,0,0,0-1.36,1.54,3.91,3.91,0,0,0-.68,2,2.25,2.25,0,0,0,.09.82l.1.4.16.36c.21.48.46.92.7,1.36.5.87,1,1.71,1.54,2.52,1,1.63,2.08,3.17,3.08,4.63,2,2.93,3.86,5.52,5.42,7.7s2.86,3.91,3.77,5.11l1.05,1.37A2.51,2.51,0,0,0,329.38,184.84Z" transform="translate(-6.14 -6.1)"/><path class="cls-6" d="M328.31,340.54c.14,0,.66-35,1.16-78.12s.79-78.14.65-78.14-.66,35-1.16,78.13S328.17,340.54,328.31,340.54Z" transform="translate(-6.14 -6.1)"/><path class="cls-6" d="M398.53,215.56s-.23-.24-.7-.61a15.07,15.07,0,0,0-2.12-1.38,21.31,21.31,0,0,0-3.44-1.52,22.15,22.15,0,0,0-9.1-1.05,21.56,21.56,0,0,0-3.69.69,16.26,16.26,0,0,0-2.38.86,3.4,3.4,0,0,0-.82.44c0,.09,1.24-.45,3.29-1a23.25,23.25,0,0,1,3.64-.57,26.47,26.47,0,0,1,4.51.08,26.1,26.1,0,0,1,4.41.95,23.28,23.28,0,0,1,3.41,1.39C397.42,214.84,398.47,215.64,398.53,215.56Z" transform="translate(-6.14 -6.1)"/><path class="cls-6" d="M391.28,205a2,2,0,0,0-.69-.13,10.37,10.37,0,0,0-1.93,0,15.45,15.45,0,0,0-11,5.71,11.51,11.51,0,0,0-1.08,1.59c-.21.4-.32.63-.29.65s.59-.82,1.64-2a16.91,16.91,0,0,1,10.77-5.58C390.28,205,391.27,205.13,391.28,205Z" transform="translate(-6.14 -6.1)"/><path class="cls-6" d="M358.77,215.11a7.78,7.78,0,0,0,1.33-.08l3.67-.36,12.54-1.39.24,0,0-.24c-.16-1.8-.34-3.72-.57-5.69-.74-6.41-1.58-12.19-2.23-16.37-.33-2.08-.61-3.77-.82-4.93-.1-.54-.18-1-.25-1.34s-.11-.47-.13-.46a2.77,2.77,0,0,0,0,.47c0,.37.09.82.16,1.36.16,1.25.38,2.92.65,5,.56,4.18,1.35,10,2.08,16.37.23,2,.42,3.88.59,5.67l.22-.26-12.53,1.57-3.65.51A7.06,7.06,0,0,0,358.77,215.11Z" transform="translate(-6.14 -6.1)"/><path class="cls-6" d="M378.51,152.71a2,2,0,0,0,.4.13l1.18.36a13.59,13.59,0,0,1,4.22,2c1.66,1.21,3,3.4,4.17,6.06s2.12,5.85,3.25,9.34c2.24,7,4.8,15.37,7.54,24.69,2.47,9.35,6.66,19.49,5.88,30.8l0,1v0a13.82,13.82,0,0,1-3.42,6.61,18.24,18.24,0,0,1-6.32,3.66,48.33,48.33,0,0,1-6.94,1.83c-2.31.46-4.59.86-6.83,1.17s-4.43.5-6.58.62l-6.28.4-11.36.74.2.18c-.62-8.18-1.12-14.81-1.47-19.43-.18-2.28-.33-4.05-.43-5.29-.05-.59-.09-1-.12-1.38s-.06-.46-.06-.46,0,.16,0,.47.05.79.08,1.38c.07,1.23.18,3,.32,5.29.31,4.62.76,11.26,1.3,19.44l0,.19h.18l11.37-.69,6.27-.38c2.15-.11,4.38-.29,6.62-.61s4.54-.69,6.86-1.15a49.11,49.11,0,0,0,7-1.84,18.64,18.64,0,0,0,6.51-3.78,14.3,14.3,0,0,0,3.56-6.86v0l0-1c.09-5.6-.15-11.19-1.75-16.27-1.38-5.11-2.81-10-4.19-14.67-2.76-9.32-5.35-17.68-7.64-24.67-1.15-3.49-2.18-6.65-3.33-9.35s-2.59-4.88-4.31-6.1a13.27,13.27,0,0,0-4.31-2c-.52-.15-.93-.25-1.2-.31A2.57,2.57,0,0,0,378.51,152.71Z" transform="translate(-6.14 -6.1)"/><path class="cls-13" d="M362.07,217.3C361.77,217,356,213,356,213s-.33-2.77-1.82-3.26a4.88,4.88,0,0,0-4.65-2.48h-8.61l-7.43,8.32a2.13,2.13,0,0,0,2.28,1.88l-2,3.82s2.34,1.72,4.32.33,4.75-3.76,4.75-3.76l-4,6.24s.34,1.39,2.54.4a14.92,14.92,0,0,0,4.39-3.76l6.63-.7-5.64,1.88-4.36,4s.4,1.39,2.38.89a15.71,15.71,0,0,0,4.25-2.08l3,.2a4.52,4.52,0,0,0,2.48,3.27,11,11,0,0,0,5,1L366,231.4C366.12,227.59,364.07,221.78,362.07,217.3Z" transform="translate(-6.14 -6.1)"/><path class="cls-14" d="M335.76,217.45a17.71,17.71,0,0,0,1.54-1.79,20,20,0,0,1,1.73-1.84,6.21,6.21,0,0,1,2.55-1.56,24.85,24.85,0,0,1,5.51-1.12,13.9,13.9,0,0,0,2.34-.27,8.73,8.73,0,0,0-2.37-.08,19.74,19.74,0,0,0-5.64,1,6,6,0,0,0-1.52.71,8,8,0,0,0-1.2,1,17,17,0,0,0-1.69,2A8.26,8.26,0,0,0,335.76,217.45Z" transform="translate(-6.14 -6.1)"/><path class="cls-14" d="M342.79,217.84c.06.06.39-.3,1-.76a6.73,6.73,0,0,1,2.62-1.19,15.6,15.6,0,0,1,2.93-.3c.77,0,1.25-.08,1.25-.16a3.47,3.47,0,0,0-1.25-.2,10.1,10.1,0,0,0-3.05.17,5.8,5.8,0,0,0-2.74,1.41C343,217.37,342.74,217.81,342.79,217.84Z" transform="translate(-6.14 -6.1)"/><path class="cls-14" d="M357.42,219.49s.31-.15.54-.61a2.79,2.79,0,0,0,.18-1.95,2.81,2.81,0,0,0-1.17-1.59c-.43-.27-.76-.29-.78-.23s1.09.63,1.46,1.95A4.82,4.82,0,0,1,357.42,219.49Z" transform="translate(-6.14 -6.1)"/><path class="cls-14" d="M362.67,227.69c-.09-.11-.77.3-1.67.63s-1.69.48-1.68.63.87.22,1.85-.15S362.76,227.79,362.67,227.69Z" transform="translate(-6.14 -6.1)"/><path class="cls-6" d="M358.87,215.15s.46.16,1.17.61a7.26,7.26,0,0,1,2.3,2.65,40.11,40.11,0,0,1,2,5,26.22,26.22,0,0,1,1.43,6.33,14.31,14.31,0,0,1-.54,5.33,9.81,9.81,0,0,1-2.3,3.95,8.59,8.59,0,0,1-2.94,2,7.74,7.74,0,0,1-2.16.53l-.31,0,.28.1a2.62,2.62,0,0,0,.72.22,3.17,3.17,0,0,0-.66-.35l0,.14a6.75,6.75,0,0,0,2.26-.4,8.35,8.35,0,0,0,3.12-2,9.79,9.79,0,0,0,2.48-4.09,14.25,14.25,0,0,0,.58-5.51,25.24,25.24,0,0,0-1.49-6.44,34.73,34.73,0,0,0-2.1-5,6.82,6.82,0,0,0-2.51-2.64,3.84,3.84,0,0,0-.92-.39A1,1,0,0,0,358.87,215.15Z" transform="translate(-6.14 -6.1)"/><path class="cls-6" d="M375,171.57a15.79,15.79,0,0,0-1.6,3.66,16.1,16.1,0,0,0-1.12,3.85,16.26,16.26,0,0,0,1.6-3.67A16,16,0,0,0,375,171.57Z" transform="translate(-6.14 -6.1)"/><path class="cls-6" d="M294.53,237.66a2.88,2.88,0,0,1,0-.69c0-.49,0-1.14.06-1.94.06-1.75.13-4.18.23-7.16.17-6,.28-14.38.26-23.61s-.14-17.52-.18-23.62c0-3,0-5.41,0-7.16q0-1.2,0-1.95a3.16,3.16,0,0,1,0-.67,2.94,2.94,0,0,1,.06.67c0,.5,0,1.15.08,1.95,0,1.75.11,4.18.19,7.16.13,6,.3,14.39.33,23.62s-.15,17.58-.41,23.63c-.14,3-.27,5.46-.4,7.15-.06.8-.11,1.44-.15,1.94A6.66,6.66,0,0,1,294.53,237.66Z" transform="translate(-6.14 -6.1)"/><path class="cls-6" d="M293.4,207.65a4.57,4.57,0,0,1-2.09-.31c-1.11-.3-2-.66-1.95-.8a4.33,4.33,0,0,1,2.09.3C292.56,207.15,293.43,207.51,293.4,207.65Z" transform="translate(-6.14 -6.1)"/><path class="cls-13" d="M279.32,182.72s-2.09-4.16-4.3-4.11c-1.48,0-2.48,3.45-2.48,3.45s-2.9-2.07-4,0,1,5.24,1,5.24-2.2,1.24-2.48,3a12.54,12.54,0,0,0,0,3.45,5.33,5.33,0,0,0-.69,3.86c.55,1.93,5.66,9.79,5.66,9.79l5.65,3.17,1.24,4.25c5.4-1.07,8.12-3.35,8.72-9.83,0,0,3.69-11,3-13s-4.13-4.83-4.13-4.83l-2.74-2a4.55,4.55,0,0,0-1.08,2.83c0,1.65-.32,1.53-.32,1.53Z" transform="translate(-6.14 -6.1)"/><path class="cls-1" d="M282.88,186.66a5.11,5.11,0,1,1-5.1-5.11A5.1,5.1,0,0,1,282.88,186.66Z" transform="translate(-6.14 -6.1)"/><path class="cls-6" d="M282.88,186.66c-.05,0,0-.46-.26-1.23a5,5,0,0,0-1.87-2.68,4.88,4.88,0,1,0,0,7.82,5.07,5.07,0,0,0,1.87-2.69c.22-.77.21-1.23.26-1.22s0,.11,0,.32a3.75,3.75,0,0,1-.1,1,5.08,5.08,0,0,1-1.84,2.93,5.28,5.28,0,0,1-7.52-1,5.3,5.3,0,0,1,0-6.33,5.31,5.31,0,0,1,7.52-1,5.07,5.07,0,0,1,1.84,2.94,3.64,3.64,0,0,1,.1.94C282.91,186.54,282.9,186.66,282.88,186.66Z" transform="translate(-6.14 -6.1)"/><path class="cls-3" d="M277.78,191.47a4.76,4.76,0,1,1,4.75-4.75A4.76,4.76,0,0,1,277.78,191.47Zm0-8.51a3.76,3.76,0,1,0,3.75,3.76A3.77,3.77,0,0,0,277.78,183Z" transform="translate(-6.14 -6.1)"/><path class="cls-9" d="M303.74,230.62a10.78,10.78,0,0,1-1.51-.08c-8.56-.87-15.49-7.72-20-19.79A78.68,78.68,0,0,1,278,192.88l2-.2c0,.34,3.51,33.94,22.49,35.88.56.07,13,1.57,16.47-12.29a147,147,0,0,0,3.54-24.56c.26-3.92,1.73-16.47,2.43-21.15l.69-4.19,2,.32-.68,4.19c-.7,4.62-2.16,17.08-2.42,21a147.69,147.69,0,0,1-3.59,24.93C317.71,229.37,307.59,230.62,303.74,230.62Z" transform="translate(-6.14 -6.1)"/><path class="cls-14" d="M269.34,187.3s.33-.2,1-.12a2.75,2.75,0,0,1,1.11.42c.37.24.79.54,1.23.88.88.7,1.89,1.58,3,2.6a22,22,0,0,1,1.61,1.7,5.53,5.53,0,0,1,.71,1.07,1.5,1.5,0,0,1,.07,1.45,1.94,1.94,0,0,1-1.32.78,4.74,4.74,0,0,1-1.4.07l.26-.36a1.7,1.7,0,0,1-.29,1.42,4.1,4.1,0,0,1-.85.95,1.86,1.86,0,0,1-1.2.38,4.87,4.87,0,0,1-1.1-.13,12,12,0,0,1-3.1-1.28h.13a7.58,7.58,0,0,1-1.47.81,7.72,7.72,0,0,1,1.33-1l.06,0,.08,0a13.19,13.19,0,0,0,3.06,1.1,2.42,2.42,0,0,0,1.91-.2,4,4,0,0,0,.73-.85,1.42,1.42,0,0,0,.25-.95l-.13-.39.39,0c.76.05,1.8,0,2.22-.62a1,1,0,0,0-.1-1,5.42,5.42,0,0,0-.64-1,19.23,19.23,0,0,0-1.55-1.67c-1-1-2-1.94-2.85-2.66a3.62,3.62,0,0,0-3.09-1.47Z" transform="translate(-6.14 -6.1)"/><path class="cls-14" d="M286.78,196.66c-.09,0-.27-.67-.94-1.6s-1.81-2-2.79-3.57a5.2,5.2,0,0,1-.79-2.47,5.49,5.49,0,0,1,.35-2.07,4.37,4.37,0,0,1,.9-1.67,17.42,17.42,0,0,1-.55,1.78,5.82,5.82,0,0,0-.22,1.94,5.06,5.06,0,0,0,.75,2.22c.91,1.45,2.08,2.6,2.66,3.65A3.26,3.26,0,0,1,286.78,196.66Z" transform="translate(-6.14 -6.1)"/><path class="cls-14" d="M275.32,195.89c-.05.06-.55-.3-1.26-1-.18-.16-.37-.34-.59-.52l-.74-.52c-.53-.4-1.08-.8-1.66-1.22a3.28,3.28,0,0,0-1.82-.56,2.71,2.71,0,0,0-1.45.52,2.81,2.81,0,0,0-.94,1.15s-.07-.16,0-.45a2.24,2.24,0,0,1,.7-1,2.9,2.9,0,0,1,1.66-.71,3.58,3.58,0,0,1,2.12.6c.64.45,1.18.89,1.69,1.29l.72.57c.21.2.4.39.56.57A6.63,6.63,0,0,1,275.32,195.89Z" transform="translate(-6.14 -6.1)"/><path class="cls-14" d="M273.64,183.65c-.14,0-.37-.34-.63-.81s-.47-.87-.36-1,.52.19.81.72S273.77,183.62,273.64,183.65Z" transform="translate(-6.14 -6.1)"/><path class="cls-6" d="M294,213.44a32.28,32.28,0,0,1-3.31-4.67,31.45,31.45,0,0,1-2.86-4.94,31.36,31.36,0,0,1,3.3,4.66A31.4,31.4,0,0,1,294,213.44Z" transform="translate(-6.14 -6.1)"/><path class="cls-9" d="M327.57,168l-.3-.15c-.23-.12-5.68-2.92-8.23-6.72s3-20.67,4.12-24l1.89.65c-2.7,7.89-5.84,20-4.35,22.23,1.95,2.92,6.06,5.29,7.18,5.9,3-.55,10-2.11,12-3.61,2.77-2.12,10.92-16.55,13.82-21.93l1.76,1c-1.09,2-10.75,19.81-14.37,22.57-2.81,2.14-12.1,3.86-13.15,4.05Z" transform="translate(-6.14 -6.1)"/><path class="cls-6" d="M347.27,77c3.39-3.27,11.16-2.23,12.86.18a6,6,0,0,1,7.62,3.1l8.18,2.36a8.68,8.68,0,0,1,3.88,1.87c1,1,1.41,2.84.44,3.92,2.88,1,3.74,5.38,1.43,7.34a3.15,3.15,0,0,1-.77,4.52,31.47,31.47,0,0,1,4.74,9.59,6.42,6.42,0,0,1,.13,4.4c-.61,1.37-2.52,2.22-3.68,1.26a3.68,3.68,0,0,1-.09,4c1.41.12,1.68,2.32.65,3.28s-2.61,1-4,.84-2.92-.3-4.12.42a1.24,1.24,0,0,0,.4.92,5.79,5.79,0,0,1,.77,7.95l-.5.62c-.89,1.1-3,2-4.27,2.6-3.28,1.44-5.15,1-8.73,1.28.81,2.35-5.27,7-11.53,1.63a127.15,127.15,0,0,1-36.55,2.53c-1.95-.12-4.26-.54-5-2.34a4.83,4.83,0,0,1-4.34-1.74,14.36,14.36,0,0,1-2.34-4.28,8.45,8.45,0,0,1-5.58-8,10.48,10.48,0,0,1-3.46-7.7,6.14,6.14,0,0,1-3-8.51,36.88,36.88,0,0,1,4.79-11.19c-2.2-.63-2.84-3.69-1.79-5.71s3.17-3.24,5.17-4.33c-1.69.33-3-1.85-2.5-3.5s2.09-2.71,3.63-3.5a31.07,31.07,0,0,1,7.1-2.62c1-2.88,4.95-6,7.77-7.09C326,66.57,333.85,65.75,347.27,77" transform="translate(-6.14 -6.1)"/><path class="cls-9" d="M314.83,117.74a4.2,4.2,0,0,0-1.5-1.19h.12a2,2,0,0,0-.33-.09,1.62,1.62,0,0,0-1.26,0h0a3,3,0,0,0-1.73,1.26,3.47,3.47,0,0,0,.08,3.62,3,3,0,0,0,2.79,1.46,3,3,0,0,0,2.18-1.93A3.33,3.33,0,0,0,314.83,117.74Z" transform="translate(-6.14 -6.1)"/><path class="cls-13" d="M315.07,96.08c1.38-7.56,7.54-16.31,15-14.61l23,8.8a4.5,4.5,0,0,1,3.46,5l-7.09,49.39-18.3,13.46h0c-.14-1-8-13.46-8-13.46-.41-3.67-.83-7.74-.83-7.72s-9.54-2.77-10.05-15.71C312,114.8,313.53,104.48,315.07,96.08Z" transform="translate(-6.14 -6.1)"/><path class="cls-6" d="M316.37,106.78a1.64,1.64,0,0,0,1.37,1.83,1.57,1.57,0,0,0,1.85-1.27,1.63,1.63,0,0,0-1.37-1.83A1.56,1.56,0,0,0,316.37,106.78Z" transform="translate(-6.14 -6.1)"/><path class="cls-6" d="M316.68,101.73c.17.24,1.52-.53,3.27-.32s2.93,1.24,3.15,1-.06-.49-.57-1a4.48,4.48,0,0,0-2.49-1.11,4.31,4.31,0,0,0-2.63.52C316.82,101.26,316.59,101.62,316.68,101.73Z" transform="translate(-6.14 -6.1)"/><path class="cls-6" d="M332.33,108.3a1.63,1.63,0,0,0,1.37,1.82,1.57,1.57,0,0,0,1.86-1.26,1.64,1.64,0,0,0-1.38-1.83A1.56,1.56,0,0,0,332.33,108.3Z" transform="translate(-6.14 -6.1)"/><path class="cls-6" d="M333.87,104.1c.17.23,1.52-.53,3.27-.32s2.93,1.24,3.14,1,0-.49-.56-1a4.58,4.58,0,0,0-2.49-1.1,4.36,4.36,0,0,0-2.64.52C334,103.63,333.78,104,333.87,104.1Z" transform="translate(-6.14 -6.1)"/><path class="cls-6" d="M326,116.34a12,12,0,0,0-2.79-.85c-.44-.1-.85-.24-.89-.55a2.22,2.22,0,0,1,.45-1.29l1.73-3.25c2.41-4.64,4.21-8.47,4-8.56s-2.3,3.58-4.71,8.21c-.58,1.15-1.14,2.24-1.67,3.28a2.6,2.6,0,0,0-.44,1.73,1.13,1.13,0,0,0,.65.74,3.24,3.24,0,0,0,.75.2A11.6,11.6,0,0,0,326,116.34Z" transform="translate(-6.14 -6.1)"/><path class="cls-14" d="M322.3,136.94a32.51,32.51,0,0,0,17.54-2.53s-3.92,8.87-17.11,6.62Z" transform="translate(-6.14 -6.1)"/><path class="cls-14" d="M325.73,120.54a4.33,4.33,0,0,1,3.78-1.46,2.82,2.82,0,0,1,2.15,1.52,2.59,2.59,0,0,1-3.34,3.52,6.45,6.45,0,0,1-2.39-1.9,2.11,2.11,0,0,1-.48-.73.89.89,0,0,1,.18-.88" transform="translate(-6.14 -6.1)"/><path class="cls-6" d="M331,118.16c-.28,0-.51,1.86-2.3,3s-3.79.71-3.83,1c-.05.11.4.42,1.26.54a4.72,4.72,0,0,0,3.18-.7,4.15,4.15,0,0,0,1.81-2.54C331.27,118.67,331.11,118.17,331,118.16Z" transform="translate(-6.14 -6.1)"/><path class="cls-6" d="M334,96.79c.11.5,1.89.48,3.92,1s3.62,1.25,3.94.85c.15-.19-.09-.67-.7-1.21a7.09,7.09,0,0,0-6-1.39C334.32,96.23,333.9,96.56,334,96.79Z" transform="translate(-6.14 -6.1)"/><path class="cls-6" d="M318,95.77c.26.44,1.52.17,3,.32s2.65.58,3,.2c.15-.19,0-.61-.49-1.05a4.11,4.11,0,0,0-2.33-.94,4.23,4.23,0,0,0-2.46.52C318.11,95.17,317.9,95.56,318,95.77Z" transform="translate(-6.14 -6.1)"/><path class="cls-6" d="M308.89,101.78a8.81,8.81,0,0,1,2.52-5.33c.81-.75,1.8-1.29,2.53-2.11,1.57-1.78,1.56-4.41,2.34-6.65a9.67,9.67,0,0,1,6.44-6c2.45-.68,5.15-.36,7.48-1.39,1.72-.76,3.1-2.19,4.86-2.85,3.44-1.27,7.17.72,10.17,2.82.44,2.54-1.3,4.58-3,6.54a9,9,0,0,1-6.82,3.09c-2,0-4.29-.65-5.79.67s-1.2,4.06-2.54,5.69c-1.91,2.32-5.78,1.1-8.48,2.42-2.08,1-3.09,3.35-4.25,5.36s-3.06,4.06-5.37,3.78A26.77,26.77,0,0,1,308.89,101.78Z" transform="translate(-6.14 -6.1)"/><path class="cls-6" d="M339.93,84.4a45.39,45.39,0,0,1,16.84,4.33,8.34,8.34,0,0,1,4,3.21,8.16,8.16,0,0,1,.56,4.49c-.41,4.77-2.76,10.47-4.9,14.75l-6.23,3.13c-4.51-1.42-1.82-9.19-1.3-13.15A9.4,9.4,0,0,1,344,92.47,10.4,10.4,0,0,1,339.93,84.4Z" transform="translate(-6.14 -6.1)"/><path class="cls-13" d="M350.41,112.6c.38-2.71,3.78-3,6-1.42,1.23.87,2.09,2.47,1.71,5.35-1,7.7-8.53,5.1-8.52,4.87S350,115.78,350.41,112.6Z" transform="translate(-6.14 -6.1)"/><path class="cls-14" d="M352.36,118.8s.12.11.33.24a1.35,1.35,0,0,0,1,.15c.85-.19,1.71-1.39,1.93-2.77a4.42,4.42,0,0,0-.13-2,1.55,1.55,0,0,0-.87-1.16.69.69,0,0,0-.84.26c-.13.2-.1.36-.14.37s-.15-.15-.05-.46A.84.84,0,0,1,354,113a1,1,0,0,1,.77-.1A1.91,1.91,0,0,1,356,114.3a4.58,4.58,0,0,1,.18,2.2c-.25,1.55-1.24,2.89-2.39,3.07a1.46,1.46,0,0,1-1.2-.36C352.35,119,352.33,118.81,352.36,118.8Z" transform="translate(-6.14 -6.1)"/><path class="cls-9" d="M356.55,120.84a4,4,0,0,0-1.49-1.19h.12a1.89,1.89,0,0,0-.34-.09,1.59,1.59,0,0,0-1.25,0h0a3,3,0,0,0-1.74,1.26,3.49,3.49,0,0,0,.09,3.62,2.68,2.68,0,0,0,5-.47A3.31,3.31,0,0,0,356.55,120.84Z" transform="translate(-6.14 -6.1)"/><path class="cls-9" d="M353,122.11s0,0,0,.1a1.23,1.23,0,0,0,.08.3,1.8,1.8,0,0,0,.84.87,4.65,4.65,0,0,0,1.88.54,5.77,5.77,0,0,0,1.25,0,4.16,4.16,0,0,0,1.38-.31l-.09-.05a3.85,3.85,0,0,0,5.95,2.89l-.13,0a1.58,1.58,0,0,0,1,.75,2.16,2.16,0,0,0,1.26,0,2,2,0,0,0,1.07-.75,2.69,2.69,0,0,0,.48-1.24,4,4,0,0,0-.65-2.64,11.19,11.19,0,0,0-1.89-2.13l0,.17a2.7,2.7,0,0,0,1.36-1.74,3.89,3.89,0,0,0,0-2.29,6.09,6.09,0,0,0-1.21-2,17,17,0,0,0-1.71-1.68V113a2.91,2.91,0,0,0,.92-2.18,4.16,4.16,0,0,0-.7-2.36,10.41,10.41,0,0,0-3.58-2.91l.05.13a5.15,5.15,0,0,0-5.1-6.74l.1.14a4.45,4.45,0,0,0-.76-3.84,4.38,4.38,0,0,0-3.15-1.84l.09.1A4.36,4.36,0,0,0,350.1,90a4.25,4.25,0,0,0-3.16-1.13L347,89a4.34,4.34,0,0,0-.48-2,5.47,5.47,0,0,0-1.07-1.5,4.34,4.34,0,0,0-2.56-1.33l-.29,0h-.27a3.68,3.68,0,0,0-.49,0,5.1,5.1,0,0,0-.76.15l-.44.15-.15.06.15,0,.45-.13a5.47,5.47,0,0,1,.75-.13,2.62,2.62,0,0,1,.49,0h.27l.28.05a4.36,4.36,0,0,1,2.48,1.33,5.38,5.38,0,0,1,1,1.48,4.25,4.25,0,0,1,.45,2V89H347a4.14,4.14,0,0,1,3,1.11,4.21,4.21,0,0,1,1.43,3.35v.1h.1a4.17,4.17,0,0,1,3,1.77,4.27,4.27,0,0,1,.73,3.66l-.05.14h.15a5,5,0,0,1,4.06,1.85,5,5,0,0,1,.82,4.6l0,.09.08.05a10.16,10.16,0,0,1,3.5,2.84,4,4,0,0,1,.67,2.22,2.7,2.7,0,0,1-.85,2l-.1.08.1.09a9.07,9.07,0,0,1,2.86,3.61,3.7,3.7,0,0,1,.06,2.16,2.54,2.54,0,0,1-1.24,1.61l-.15.07.12.11a11.29,11.29,0,0,1,1.86,2.08,3.74,3.74,0,0,1,.63,2.5,2.06,2.06,0,0,1-1.41,1.83,1.69,1.69,0,0,1-2-.64l-.05-.08-.08,0a3.74,3.74,0,0,1-3.92.08,3.8,3.8,0,0,1-1.8-2.83v-.09l-.08,0a4.41,4.41,0,0,1-1.34.31,6.31,6.31,0,0,1-1.23,0,4.58,4.58,0,0,1-1.86-.5,1.75,1.75,0,0,1-.83-.82A3.31,3.31,0,0,1,353,122.11Z" transform="translate(-6.14 -6.1)"/><path class="cls-9" d="M383,116a2.64,2.64,0,0,0,.33-.45,4.06,4.06,0,0,0,.52-1.5,3.94,3.94,0,0,0-.46-2.47,4.13,4.13,0,0,0-2.67-2l.06.1a5.29,5.29,0,0,0-.42-3.86A5.18,5.18,0,0,0,379,104.1,11.73,11.73,0,0,0,377,103a4.29,4.29,0,0,1-1-.68,2.57,2.57,0,0,1-.64-1c-.29-.77-.34-1.65-.71-2.48a4.72,4.72,0,0,0-4.54-2.68l.13.14A6.33,6.33,0,0,0,369,91a6.27,6.27,0,0,0-5.1-2.29l.12.14a5.45,5.45,0,0,0-8.09-5.71l.13,0a7.57,7.57,0,0,0-2.58-1.85,11,11,0,0,0-2.73-.84,13.21,13.21,0,0,0-4.61,0,9.1,9.1,0,0,0-2.8.94,4.69,4.69,0,0,0-.66.41l-.22.15s.31-.2.91-.51a9.38,9.38,0,0,1,2.79-.87,12.8,12.8,0,0,1,4.56.07,11.49,11.49,0,0,1,2.68.84,7.41,7.41,0,0,1,2.51,1.81l.05.07.07,0a5.24,5.24,0,0,1,7.76,5.48l0,.15h.15A6,6,0,0,1,370,96.2l0,.15h.15a4.5,4.5,0,0,1,4.32,2.54c.36.78.41,1.66.71,2.46a2.78,2.78,0,0,0,.69,1.08,4.35,4.35,0,0,0,1,.71,12,12,0,0,1,2,1.12,5,5,0,0,1,1.36,1.65,5.13,5.13,0,0,1,.43,3.74l0,.08.08,0a4,4,0,0,1,2.6,1.89,3.8,3.8,0,0,1,.47,2.4,4.07,4.07,0,0,1-.47,1.49C383.14,115.83,383,116,383,116Z" transform="translate(-6.14 -6.1)"/><path class="cls-9" d="M309,112.7a.85.85,0,0,0,.07-.64,1.51,1.51,0,0,0-.4-.67,2.65,2.65,0,0,0-.92-.55,4.6,4.6,0,0,1-1.17-.59,2.38,2.38,0,0,1-.78-1.31,4.76,4.76,0,0,1-.07-1.78c.08-.63.23-1.3.28-2a20.94,20.94,0,0,0-.65-4.64,6.29,6.29,0,0,1,.08-2.55A3.14,3.14,0,0,1,307,95.87a11.8,11.8,0,0,1,2.78-.72,4.89,4.89,0,0,0,1.43-.54,3.28,3.28,0,0,0,1.07-1.15,15.77,15.77,0,0,0,1-3,5.37,5.37,0,0,1,.64-1.42,2.34,2.34,0,0,1,1.22-.92,9,9,0,0,1,2.16-.14,3.27,3.27,0,0,0,1.1-.19,2.21,2.21,0,0,0,.91-.66,7.57,7.57,0,0,0,.95-1.91,4.74,4.74,0,0,1,4.58-3,4.84,4.84,0,0,1,3.2,1.42l.09.1.07-.12A7.42,7.42,0,0,1,333.06,80a6.91,6.91,0,0,1,2.6,0,6.1,6.1,0,0,1,2.08.75,5.37,5.37,0,0,1,2.1,2.24,3.81,3.81,0,0,1,.33.75l.08.2,0,.06s0,0,0-.07l-.07-.2a4.31,4.31,0,0,0-.3-.77,5.45,5.45,0,0,0-2.1-2.32,6.49,6.49,0,0,0-2.12-.78,7,7,0,0,0-2.66,0,7.55,7.55,0,0,0-5,3.7l.16,0a5,5,0,0,0-3.33-1.5,4.88,4.88,0,0,0-3.65,1.42A4.81,4.81,0,0,0,320,85.14a7.8,7.8,0,0,1-.92,1.85,2.3,2.3,0,0,1-1.84.77,8.4,8.4,0,0,0-2.22.14,2.62,2.62,0,0,0-1.34,1A5.1,5.1,0,0,0,313,90.4a15.65,15.65,0,0,1-1,2.94,2.91,2.91,0,0,1-1,1.07,4.5,4.5,0,0,1-1.36.52,11.48,11.48,0,0,0-2.83.75,2.91,2.91,0,0,0-1.09.94,4.14,4.14,0,0,0-.57,1.27,6.5,6.5,0,0,0-.07,2.63,21.2,21.2,0,0,1,.67,4.6c0,.71-.19,1.38-.26,2a5.08,5.08,0,0,0,.09,1.84,2.54,2.54,0,0,0,.84,1.36,4.74,4.74,0,0,0,1.2.59,2.62,2.62,0,0,1,.91.51,1.5,1.5,0,0,1,.41.64A1,1,0,0,1,309,112.7Z" transform="translate(-6.14 -6.1)"/><path class="cls-9" d="M294.82,99.63l.09-.14.24-.42c.22-.38.53-.92.92-1.62s.86-1.57,1.49-2.53a7,7,0,0,1,2.79-2.58c.65-.3,1.39-.47,2.14-.74a4.32,4.32,0,0,0,1.1-.54,2.66,2.66,0,0,0,.87-1c.42-.77.5-1.68.85-2.49a2.17,2.17,0,0,1,.82-1,4.26,4.26,0,0,1,1.29-.49,7.45,7.45,0,0,0,1.4-.42,2.5,2.5,0,0,0,1.14-1,11.54,11.54,0,0,0,.88-3,3.81,3.81,0,0,1,.61-1.38,2,2,0,0,1,1.29-.72c1-.13,2.1.3,3.24.2a2.73,2.73,0,0,0,1.55-.67,7.44,7.44,0,0,0,1.06-1.27,15.46,15.46,0,0,1,.94-1.27,3,3,0,0,1,1.21-.89,4.6,4.6,0,0,1,2.92.24,6.82,6.82,0,0,0,2.92.47,7.75,7.75,0,0,0,2.64-1,13.81,13.81,0,0,1,2.36-1.09,8,8,0,0,1,4.6.18,8.65,8.65,0,0,1,3.27,2,9.5,9.5,0,0,1,1.71,2.36,10.44,10.44,0,0,1,.69,1.72c.06.19.11.34.14.46s.06.16.06.15l0-.16c0-.11-.08-.27-.13-.46a9.81,9.81,0,0,0-.64-1.75,9.4,9.4,0,0,0-1.71-2.41,8.55,8.55,0,0,0-3.31-2.06,8.07,8.07,0,0,0-4.7-.22,13.69,13.69,0,0,0-2.41,1.1,7.71,7.71,0,0,1-2.57.94,6.69,6.69,0,0,1-2.82-.46,10.16,10.16,0,0,0-1.49-.38,3.28,3.28,0,0,0-1.58.14,3.14,3.14,0,0,0-1.3,1,12,12,0,0,0-1,1.29,6.72,6.72,0,0,1-1,1.22,2.45,2.45,0,0,1-1.41.62c-1.07.1-2.13-.34-3.25-.2a2.2,2.2,0,0,0-1.44.81,4.09,4.09,0,0,0-.66,1.46,11.37,11.37,0,0,1-.84,2.9,2.29,2.29,0,0,1-1,.93,7.75,7.75,0,0,1-1.37.41,4.39,4.39,0,0,0-1.34.52,2.41,2.41,0,0,0-.9,1.1c-.36.85-.44,1.75-.84,2.48a3.15,3.15,0,0,1-1.85,1.41c-.73.27-1.48.45-2.14.76a7,7,0,0,0-2.84,2.66c-.62,1-1.07,1.85-1.46,2.56l-.88,1.64-.23.43C294.84,99.58,294.81,99.63,294.82,99.63Z" transform="translate(-6.14 -6.1)"/><path class="cls-9" d="M303.63,92.14a.45.45,0,0,0-.14,0,.73.73,0,0,0-.41.06,1.64,1.64,0,0,0-.87,1.31,4,4,0,0,0,.08,1.17,4.94,4.94,0,0,1,.1,1.35,3,3,0,0,1-.65,1.39c-.33.44-.75.87-1.1,1.4a2.23,2.23,0,0,0-.33,1.94c.2.67.63,1.26.82,1.94a2.94,2.94,0,0,1-.37,2.12c-.35.68-.83,1.33-1.18,2.1a3.46,3.46,0,0,0-.34,1.24,3.08,3.08,0,0,0,.2,1.3,14.28,14.28,0,0,0,1.31,2.31,3.58,3.58,0,0,1,.63,2.51,11.73,11.73,0,0,1-1.12,2.54,3.89,3.89,0,0,0-.39,1.4,3.08,3.08,0,0,0,.26,1.41,11.5,11.5,0,0,0,1.51,2.31,6.28,6.28,0,0,1,1.19,2.29,20.12,20.12,0,0,0,.62,2.46,2.9,2.9,0,0,0,.72,1,3.57,3.57,0,0,0,1.05.6,9.22,9.22,0,0,1,1,.46,4.3,4.3,0,0,1,.85.68,8,8,0,0,1,1.14,1.74c.31.61.6,1.2.94,1.73a5.3,5.3,0,0,0,2.54,2.18,5.62,5.62,0,0,0,2.51.42,4.9,4.9,0,0,0,1.57-.33,2.87,2.87,0,0,0,.51-.25,5.92,5.92,0,0,1-2.08.49,5.76,5.76,0,0,1-2.46-.45,5.2,5.2,0,0,1-2.45-2.15c-.33-.52-.61-1.11-.92-1.72a8.46,8.46,0,0,0-1.16-1.8,4.41,4.41,0,0,0-.89-.71,10.27,10.27,0,0,0-1.07-.48,3.36,3.36,0,0,1-1-.57,2.56,2.56,0,0,1-.65-1,19.33,19.33,0,0,1-.61-2.44,6.56,6.56,0,0,0-1.23-2.37,11.24,11.24,0,0,1-1.47-2.26,3,3,0,0,1-.25-1.31,4,4,0,0,1,.37-1.32,11.33,11.33,0,0,0,1.14-2.59,3,3,0,0,0-.08-1.42,5.94,5.94,0,0,0-.58-1.25,14.51,14.51,0,0,1-1.3-2.27,2.82,2.82,0,0,1-.19-1.21,3.34,3.34,0,0,1,.32-1.16c.33-.74.81-1.39,1.17-2.1a3.11,3.11,0,0,0,.37-2.26c-.21-.73-.65-1.31-.84-2a2.09,2.09,0,0,1,.3-1.79c.33-.51.74-.94,1.08-1.4a3.11,3.11,0,0,0,.66-1.46,5.08,5.08,0,0,0-.12-1.39,3.89,3.89,0,0,1-.1-1.14,1.64,1.64,0,0,1,.79-1.28A1,1,0,0,1,303.63,92.14Z" transform="translate(-6.14 -6.1)"/><path class="cls-6" d="M382.85,115.72a2.93,2.93,0,0,0,.62,0,4.28,4.28,0,0,0,1.68-.58A4.14,4.14,0,0,0,387,113a4.36,4.36,0,0,0-.36-3.7,10.66,10.66,0,0,0-1.43-1.7,5.21,5.21,0,0,1-1.31-1.94,3.47,3.47,0,0,1,.3-2.45c.36-.81.87-1.58,1.22-2.48a7.6,7.6,0,0,0-5-10.08l.06.19a3.85,3.85,0,0,0,.79-1.64,4.79,4.79,0,0,0,0-1.85,5.52,5.52,0,0,0-.65-1.75,6.32,6.32,0,0,0-1.21-1.46,12,12,0,0,0-4.94-2.43,18.26,18.26,0,0,0-5.18-.62l.12.12a5.49,5.49,0,0,0-2.76-5,5.58,5.58,0,0,0-2.67-.73,9.08,9.08,0,0,0-2.59.48,4.62,4.62,0,0,1-1.21.19,3,3,0,0,1-1.15-.21,9.23,9.23,0,0,1-2-1.15,8.27,8.27,0,0,0-1.88-1,6.87,6.87,0,0,0-1.94-.41A6.43,6.43,0,0,0,350,74a6.82,6.82,0,0,0-2,1.49,6.37,6.37,0,0,0-.91,1.27,3.36,3.36,0,0,0-.23.49s.09-.17.27-.47a6.33,6.33,0,0,1,.93-1.24,6.66,6.66,0,0,1,2-1.44,6.35,6.35,0,0,1,3.21-.6,6.48,6.48,0,0,1,1.89.41,8.36,8.36,0,0,1,1.85,1,10,10,0,0,0,2,1.17,3.15,3.15,0,0,0,1.22.23,4.86,4.86,0,0,0,1.26-.19,9,9,0,0,1,2.54-.46,5.42,5.42,0,0,1,2.57.7,5.31,5.31,0,0,1,2.63,4.79v.12h.12a18.13,18.13,0,0,1,5.11.61,11.87,11.87,0,0,1,4.84,2.38,6,6,0,0,1,1.16,1.41,5,5,0,0,1,.62,1.67,4.73,4.73,0,0,1,0,1.76,3.64,3.64,0,0,1-.75,1.54l-.11.14.17,0a7.39,7.39,0,0,1,4.87,9.78c-.34.87-.85,1.65-1.21,2.47a3.59,3.59,0,0,0-.3,2.58,5.42,5.42,0,0,0,1.36,2,10.27,10.27,0,0,1,1.42,1.66,4.24,4.24,0,0,1,.38,3.58,4.13,4.13,0,0,1-1.73,2.13,4.42,4.42,0,0,1-1.64.6C383.07,115.72,382.85,115.71,382.85,115.72Z" transform="translate(-6.14 -6.1)"/><path class="cls-6" d="M301.3,86.63s0,0,0-.15l.08-.43c.06-.4.16-1,.28-1.66s.29-1.59.56-2.59a15.34,15.34,0,0,1,1.27-3.26,9.93,9.93,0,0,1,2.72-3.21,7.25,7.25,0,0,1,2.07-1.07,20,20,0,0,1,2.45-.52,7,7,0,0,0,2.52-.9A11.36,11.36,0,0,0,315.4,71c.65-.68,1.28-1.4,2-2a7.91,7.91,0,0,1,2.45-1.55,14,14,0,0,1,5.67-.77,37.51,37.51,0,0,1,5.36.61,27.7,27.7,0,0,1,8.56,3.09,19.75,19.75,0,0,1,4.79,3.83l.64.73.43.57.26.35.1.11s0,0-.08-.13l-.25-.36-.41-.58c-.17-.22-.38-.46-.62-.75a19,19,0,0,0-4.77-3.91,27.17,27.17,0,0,0-8.61-3.16,36.18,36.18,0,0,0-5.39-.63,14.1,14.1,0,0,0-5.77.78,8.18,8.18,0,0,0-2.51,1.59c-.73.66-1.36,1.38-2,2.06a10.51,10.51,0,0,1-2.07,1.78,6.76,6.76,0,0,1-2.44.88,19.67,19.67,0,0,0-2.47.53,7.33,7.33,0,0,0-2.13,1.12,9.85,9.85,0,0,0-2.74,3.28,14.83,14.83,0,0,0-1.25,3.3,25.86,25.86,0,0,0-.53,2.62c-.12.72-.19,1.28-.24,1.66,0,.18,0,.33-.05.44S301.3,86.63,301.3,86.63Z" transform="translate(-6.14 -6.1)"/></g><g id="Character_1" data-name="Character 1"><path class="cls-15" d="M108.34,433.83s1,6.44,1,7.57l4.55,3.9,11.56-2.58,1-9.45Z" transform="translate(-6.14 -6.1)"/><path class="cls-11" d="M125.66,441.3v1s17.48,6.77,17.7,10.07l-34.53.24.39-11.49A19.75,19.75,0,0,0,125.66,441.3Z" transform="translate(-6.14 -6.1)"/><g class="cls-10"><path class="cls-3" d="M108.84,452.64l.09-2.76,33.07.78s1.54.66,1.37,1.74Z" transform="translate(-6.14 -6.1)"/></g><path class="cls-6" d="M125.79,442.43c0,.16-.84.25-1.67.79s-1.26,1.26-1.42,1.2.09-1,1.1-1.69S125.83,442.27,125.79,442.43Z" transform="translate(-6.14 -6.1)"/><path class="cls-6" d="M129.43,443.9c0,.16-.69.45-1.26,1.17s-.73,1.47-.9,1.47-.28-1,.45-1.84S129.42,443.74,129.43,443.9Z" transform="translate(-6.14 -6.1)"/><path class="cls-6" d="M131.51,448.22c-.15,0-.39-.8,0-1.73s1.21-1.3,1.28-1.16-.41.64-.75,1.4S131.68,448.2,131.51,448.22Z" transform="translate(-6.14 -6.1)"/><path class="cls-15" d="M145.94,433.83s1,6.44,1,7.57l4.56,3.9L163,442.72l1-9.45Z" transform="translate(-6.14 -6.1)"/><path class="cls-11" d="M163.26,441.3l0,1S180.75,449.1,181,452.4l-34.53.24.39-11.49A19.75,19.75,0,0,0,163.26,441.3Z" transform="translate(-6.14 -6.1)"/><g class="cls-10"><path class="cls-3" d="M146.44,452.64l.1-2.76,33.06.78s1.54.66,1.37,1.74Z" transform="translate(-6.14 -6.1)"/></g><path class="cls-6" d="M163.4,442.43c0,.16-.85.25-1.68.79s-1.26,1.26-1.41,1.2.08-1,1.1-1.69S163.43,442.27,163.4,442.43Z" transform="translate(-6.14 -6.1)"/><path class="cls-6" d="M167,443.9c0,.16-.69.45-1.26,1.17s-.73,1.47-.89,1.47-.28-1,.44-1.84S167,443.74,167,443.9Z" transform="translate(-6.14 -6.1)"/><path class="cls-6" d="M169.12,448.22c-.16,0-.4-.8,0-1.73s1.21-1.3,1.28-1.16-.41.64-.75,1.4S169.28,448.2,169.12,448.22Z" transform="translate(-6.14 -6.1)"/><polygon class="cls-6" points="168.85 266.5 92.95 266.5 85.09 302.44 100.78 430.23 125.05 430.23 130.6 317.68 136.45 430.23 162.47 430.23 173.41 303.86 168.85 266.5"/><path class="cls-9" d="M117,434.54c-.13,0-.46-22.52-.74-50.3s-.39-50.3-.26-50.31.46,22.52.74,50.31S117.09,434.54,117,434.54Z" transform="translate(-6.14 -6.1)"/><path class="cls-9" d="M155.84,434.11a.86.86,0,0,1,0-.28c0-.21,0-.48.07-.82.08-.76.2-1.82.34-3.16.32-2.75.74-6.72,1.2-11.63s.95-10.76,1.39-17.27.77-13.67,1-21.19.24-14.7.19-21.22-.22-12.39-.42-17.32-.39-8.92-.55-11.67c-.07-1.35-.12-2.42-.16-3.17,0-.35,0-.62,0-.83a1,1,0,0,1,0-.28,1.18,1.18,0,0,1,0,.28c0,.21.05.48.08.82.06.76.15,1.82.26,3.17.21,2.75.46,6.74.7,11.67s.42,10.8.52,17.33,0,13.7-.16,21.23-.59,14.7-1,21.21-1,12.37-1.48,17.28-1,8.87-1.35,11.61c-.19,1.34-.33,2.4-.43,3.15-.05.34-.09.6-.13.81S155.84,434.11,155.84,434.11Z" transform="translate(-6.14 -6.1)"/><path class="cls-15" d="M133.92,157.29l-29,1.57-2.37,10.92s8,6.42,8.79,6.69,19,2.81,19,2.81,19.61-9.15,19.35-9.06S133.92,157.29,133.92,157.29Z" transform="translate(-6.14 -6.1)"/><path class="cls-9" d="M140.65,157.19c1.15,0,13.37-1.63,20.85,3.29s27.53,43,27.53,43,6.11,20.27-2.49,24.28S155.19,244,155.19,244l-5.55-20.07,15.68-7.27V197.32Z" transform="translate(-6.14 -6.1)"/><path class="cls-3" d="M106.92,170.44s11,6.38,19.42,4.52a32.79,32.79,0,0,0,14.31-7.71l14.82,33.91-8.78,68-26.47,3.45-8.78-64.45Z" transform="translate(-6.14 -6.1)"/><path class="cls-9" d="M106.1,158.46c-.38.12-5.75,2-5.75,2L89.71,229.84s-8.24,28.89-7.49,41.37,7.46,51.14,7.46,51.14l48.51-5.11-2-75.9s3.49-21.84-6.87-35.07S106.1,158.46,106.1,158.46Z" transform="translate(-6.14 -6.1)"/><path class="cls-9" d="M133.92,156.93c.67,1,11.28,41.27,10.14,49.75S136.74,233,136.74,233v84l42.81-3.92s3.5-30.68,0-45.36-8.61-32.1-8.61-32.1l-3.38-51.3L146,156.93Z" transform="translate(-6.14 -6.1)"/><path class="cls-15" d="M124,229.82c.23-.07,7.62-4.12,9.48-4.35s16.38-.94,16.38-.94l3.88,14s-12.1,5.87-14,6.33-9.8,3.35-11.12,3.35-5.05-1.25-5.05-2.1a1.32,1.32,0,0,1,.54-1.17,26.19,26.19,0,0,0,5.06-.31,24.1,24.1,0,0,0,2.56-1.09s-13.29,2-14.22,1.71-1.64-2.26-1.64-2.26-1.55-1.08-1.71-2.09.39-1.48,1.25-1.87,6.61-2.95,8.32-3.42,6.21-1.24,6.21-1.24-13.68,1.48-14.53,1.09-1.79-1.87-.39-2.72a19,19,0,0,1,5.52-2.41C122.09,230.14,124,229.82,124,229.82Z" transform="translate(-6.14 -6.1)"/><path class="cls-16" d="M133.69,238.19a13.68,13.68,0,0,1-2.57,1.05c-1.61.57-3.87,1.28-6.4,1.92s-4.85,1.08-6.54,1.34a14.22,14.22,0,0,1-2.76.29,21.61,21.61,0,0,1,2.7-.62c1.67-.34,4-.84,6.49-1.47s4.78-1.29,6.41-1.78A18.63,18.63,0,0,1,133.69,238.19Z" transform="translate(-6.14 -6.1)"/><path class="cls-16" d="M132.41,227.73a19.86,19.86,0,0,1-4.13,1.16,19.3,19.3,0,0,1-4.23.71,19.49,19.49,0,0,1,4.13-1.17A19.7,19.7,0,0,1,132.41,227.73Z" transform="translate(-6.14 -6.1)"/><path class="cls-16" d="M150.11,230.14s-.21,0-.55.08a4.84,4.84,0,0,0-1.39.55,4.56,4.56,0,0,1-2.24.71c-.92,0-1.83-.56-2.54.06a7.09,7.09,0,0,1-1.19.89,2.46,2.46,0,0,1-1.45.14c-.89-.17-1.58-.52-2.19-.56a1.79,1.79,0,0,0-1.34.38c-.26.23-.31.44-.35.42s0-.23.22-.54a1.83,1.83,0,0,1,1.48-.59,16.37,16.37,0,0,1,2.25.46A2,2,0,0,0,142,232a7.83,7.83,0,0,0,1.1-.85,1.79,1.79,0,0,1,.75-.35,2.33,2.33,0,0,1,.79,0c.49.08.91.22,1.3.25a4.63,4.63,0,0,0,2.08-.58,4,4,0,0,1,1.51-.43C149.92,230,150.12,230.12,150.11,230.14Z" transform="translate(-6.14 -6.1)"/><path class="cls-16" d="M150.25,233a2.77,2.77,0,0,1-1.54,1,4.44,4.44,0,0,1-2.05.2,4.71,4.71,0,0,0-1.1-.09c-.35,0-.58.26-.83.62a2,2,0,0,1-1.1.83,2.81,2.81,0,0,1-1.25,0,9.43,9.43,0,0,0-1.92-.29,1.75,1.75,0,0,0-1.12.46c-.2.22-.25.39-.29.38s0-.2.15-.49a1.73,1.73,0,0,1,1.23-.68,7.94,7.94,0,0,1,2,.19,1.77,1.77,0,0,0,1.92-.74,2.47,2.47,0,0,1,.47-.51,1.39,1.39,0,0,1,.68-.28,4.58,4.58,0,0,1,1.23.12,4.28,4.28,0,0,0,1.88-.09A11.21,11.21,0,0,0,150.25,233Z" transform="translate(-6.14 -6.1)"/><path class="cls-6" d="M109.65,239.06a4,4,0,0,1-1,0,10.48,10.48,0,0,1-1.18,0c-.45,0-1-.08-1.55-.18a27.09,27.09,0,0,1-4-.88,39.32,39.32,0,0,1-4.65-1.75,54.34,54.34,0,0,1-7.83-4.43c-1-.64-1.72-1.18-2.23-1.57a4.18,4.18,0,0,1-.77-.64,3.84,3.84,0,0,1,.87.49l2.31,1.44a68.27,68.27,0,0,0,7.85,4.28,44.84,44.84,0,0,0,4.58,1.77,31.66,31.66,0,0,0,3.89,1C108.23,239,109.65,239,109.65,239.06Z" transform="translate(-6.14 -6.1)"/><path class="cls-6" d="M119,251.09a9.83,9.83,0,0,1-1.52-.31,16,16,0,0,1-1.75-.48c-.68-.21-1.45-.43-2.28-.76a47.24,47.24,0,0,1-5.73-2.51,66.19,66.19,0,0,1-6.58-3.93,84.09,84.09,0,0,1-10.75-8.81c-1.27-1.24-2.28-2.27-3-3a9.51,9.51,0,0,1-1-1.17,10.28,10.28,0,0,1,1.14,1c.71.7,1.75,1.69,3.05,2.89a95.71,95.71,0,0,0,10.78,8.67,73.52,73.52,0,0,0,6.52,3.94,56.73,56.73,0,0,0,5.65,2.58c.81.35,1.58.59,2.24.82s1.24.42,1.72.55A9.82,9.82,0,0,1,119,251.09Z" transform="translate(-6.14 -6.1)"/><path class="cls-6" d="M169.55,214.58a21.2,21.2,0,0,1-2.83,1.43c-1.78.82-4.24,1.92-7,3.09s-5.25,2.19-7.08,2.88c-.92.35-1.66.62-2.18.79a3,3,0,0,1-.83.22,25.26,25.26,0,0,1,2.89-1.31c1.91-.83,4.34-1.86,7-3l7-3A21.65,21.65,0,0,1,169.55,214.58Z" transform="translate(-6.14 -6.1)"/><path class="cls-6" d="M151.36,176.58s.13.1.32.32.52.57.85,1c.75.82,1.85,2,3.26,3.41s3.13,3,5,4.95a38.17,38.17,0,0,1,5.33,6.76,22.14,22.14,0,0,1,2.85,8.14c.34,2.63.45,5,.54,7s.11,3.61.12,4.73v1.28a1.42,1.42,0,0,1,0,.45,1.33,1.33,0,0,1-.06-.45c0-.34,0-.77-.08-1.28-.06-1.18-.15-2.78-.26-4.71s-.28-4.37-.64-7a22.2,22.2,0,0,0-2.83-8,38.74,38.74,0,0,0-5.24-6.7c-1.8-1.91-3.51-3.57-4.89-5s-2.45-2.66-3.16-3.52l-.78-1A2.22,2.22,0,0,1,151.36,176.58Z" transform="translate(-6.14 -6.1)"/><path class="cls-6" d="M185.68,228.13a10.7,10.7,0,0,1-1.36.8l-3.76,2c-3.19,1.7-7.61,4-12.5,6.57s-9.57,4.94-12.8,6.57l-.18.09L155,244c-.42-1.62-.76-3-1-4a9.27,9.27,0,0,1-.31-1.47,10,10,0,0,1,.48,1.42c.3,1,.69,2.33,1.17,3.94l-.24-.1c3.19-1.71,7.71-4.09,12.73-6.7s9.34-4.82,12.57-6.45l3.83-1.91A9.41,9.41,0,0,1,185.68,228.13Z" transform="translate(-6.14 -6.1)"/><path class="cls-6" d="M138,245.55a6.56,6.56,0,0,1,0,.73c0,.52-.09,1.22-.15,2.09-.18,1.8-.3,4.43-.47,7.67-.29,6.48-.37,15.45-.22,25.35s.47,18.86.73,25.35c.13,3.21.23,5.82.31,7.68,0,.87,0,1.57.07,2.09a6.73,6.73,0,0,1,0,.73,3.5,3.5,0,0,1-.09-.72c0-.52-.1-1.22-.17-2.09-.12-1.81-.29-4.43-.46-7.67-.34-6.49-.71-15.45-.86-25.37s0-18.88.36-25.37c.21-3.24.38-5.87.61-7.67.11-.87.19-1.56.25-2.08A3.61,3.61,0,0,1,138,245.55Z" transform="translate(-6.14 -6.1)"/><path class="cls-9" d="M100.35,160.48s-16,6.83-20.95,17.65-15.06,45.19-15.3,51.54S75.64,255.8,75.64,255.8L94.23,244l-3.53-8.71,5.65-37.42Z" transform="translate(-6.14 -6.1)"/><path class="cls-6" d="M92.71,451h0a2.27,2.27,0,0,1-2.26-2.27c0-1.82.28-182.68.2-185.6-.17-6.24-4-9.09-4.13-9.21a2.29,2.29,0,0,1-.51-3.16,2.26,2.26,0,0,1,3.14-.53c.24.17,5.79,4.19,6,12.77.08,3-.19,178.28-.2,185.74A2.26,2.26,0,0,1,92.71,451Z" transform="translate(-6.14 -6.1)"/><path class="cls-6" d="M79.85,276.56h0a2.27,2.27,0,0,1-2.26-2.27c0-6.71,0-16.93,0-17.53a2.23,2.23,0,0,1,2.1-2.38,2.29,2.29,0,0,1,2.42,2.13c0,.1,0,.42,0,17.79A2.27,2.27,0,0,1,79.85,276.56Z" transform="translate(-6.14 -6.1)"/><path class="cls-15" d="M83.35,244.39,79,248.23c-1.1,1-2.47,9.46-2.47,9.46s4.8,5.14,6.85,5.34a5.51,5.51,0,0,0,3.7-1.16s2.06,1.16,3.29.14-1.71-7.68-1.71-7.68-1.11-3.22,2-3l1.35,2.4,3.35,5.75s2.06-.27,2.4-1.3-.89-4.45-.89-4.45a5,5,0,0,0,.62-4.05c-.76-2-2-5.62-5.62-6.44S83.35,244.39,83.35,244.39Z" transform="translate(-6.14 -6.1)"/><path class="cls-16" d="M86.85,261c-.06,0-.62-.68-1.64-1.74a26.15,26.15,0,0,0-4.38-3.66,4.17,4.17,0,0,1-1.2-1.24,2.55,2.55,0,0,1-.28-1.62,5,5,0,0,1,1.18-2.39c.47-.58.87-1,1.12-1.34s.38-.51.41-.49a6.38,6.38,0,0,1-1.26,2,4.83,4.83,0,0,0-1,2.24,2.11,2.11,0,0,0,.25,1.34,3.73,3.73,0,0,0,1.08,1.09,21.5,21.5,0,0,1,4.35,3.82A8.12,8.12,0,0,1,86.85,261Z" transform="translate(-6.14 -6.1)"/><path class="cls-16" d="M92.92,250.25c.1.09-.43.77-.67,1.76s-.08,1.84-.21,1.88-.53-.85-.24-2S92.85,250.15,92.92,250.25Z" transform="translate(-6.14 -6.1)"/><path class="cls-6" d="M68.44,226.4a5.53,5.53,0,0,1,1.28,0c.42,0,.93,0,1.52,0l2,.24c.74.11,1.52.34,2.38.53.42.11.84.29,1.29.43a13.17,13.17,0,0,1,1.34.52,22.2,22.2,0,0,1,5.41,3.42,34,34,0,0,1,4.45,4.59c1.26,1.51,2.31,2.93,3.21,4.1s1.63,2.12,2.15,2.76a8,8,0,0,1,.77,1,6,6,0,0,1-.91-.91c-.57-.61-1.34-1.52-2.27-2.68s-2-2.53-3.28-4a35.89,35.89,0,0,0-4.42-4.51,22.73,22.73,0,0,0-5.29-3.38,13.3,13.3,0,0,0-1.31-.53c-.43-.15-.84-.33-1.25-.44-.84-.2-1.61-.45-2.33-.58l-2-.31c-.58-.07-1.08-.08-1.5-.12A7.44,7.44,0,0,1,68.44,226.4Z" transform="translate(-6.14 -6.1)"/><path class="cls-6" d="M92.92,194.32a10.56,10.56,0,0,1-.2,1.59c-.16,1-.42,2.49-.75,4.3-.7,3.69-1.65,8.65-2.69,14.14s-1.88,10.54-2.41,14.18c-.25,1.76-.45,3.22-.61,4.31a10.8,10.8,0,0,1-.26,1.58,9.59,9.59,0,0,1,.08-1.6c.08-1,.24-2.51.46-4.34.45-3.66,1.23-8.69,2.28-14.22s2.08-10.5,2.83-14.11c.36-1.75.66-3.19.89-4.27A12.18,12.18,0,0,1,92.92,194.32Z" transform="translate(-6.14 -6.1)"/><polygon class="cls-9" points="91.19 446.55 82.69 446.55 84.28 439.79 89.3 439.79 91.19 446.55"/><path class="cls-6" d="M88.38,168.4a2.65,2.65,0,0,1,.68.49,13,13,0,0,1,1.63,1.6,18.41,18.41,0,0,1,2,2.74,20.36,20.36,0,0,1,1.7,3.79,20.9,20.9,0,0,1,.85,4.06,18.27,18.27,0,0,1,0,3.39,12.88,12.88,0,0,1-.38,2.25,2.52,2.52,0,0,1-.26.79c-.09,0,.19-1.17.28-3.06a21.52,21.52,0,0,0-.12-3.31,22.33,22.33,0,0,0-.87-4,21.91,21.91,0,0,0-1.62-3.71,20.42,20.42,0,0,0-1.85-2.75C89.23,169.25,88.32,168.48,88.38,168.4Z" transform="translate(-6.14 -6.1)"/><path class="cls-1" d="M99.73,105.21c1.32-2.36,4-4.15,6.64-3.74a9.17,9.17,0,0,1,7.87-10.25c2.58-.23,5.35.65,7.69-.46,1.46-.69,2.47-2,3.66-3.13,5-4.6,13.5-4.15,18.63.3s6.9,12.07,5.22,18.65c-.78,3.06-2.23,6-2.23,9.17,0,3,1.29,5.79,1.56,8.74s-1,6.5-3.94,7.06l-29.2,8a11.58,11.58,0,0,1-12.75-4.21c-1.9-2.71-2.51-6.1-3.07-9.36a86.25,86.25,0,0,1-1.56-12.89A15.33,15.33,0,0,1,99.73,105.21Z" transform="translate(-6.14 -6.1)"/><path class="cls-1" d="M93.28,116.59a4.48,4.48,0,0,1,5.76-1c5.11.07,9.72-.19,13.49,3.26a17.43,17.43,0,0,1,5.76,13.66,14.8,14.8,0,0,1-8,12.26,12.86,12.86,0,0,1-14.24-2.1,11.39,11.39,0,0,1-1.65-14A21.53,21.53,0,0,1,92,122.67,7.34,7.34,0,0,1,93.28,116.59Z" transform="translate(-6.14 -6.1)"/><path class="cls-15" d="M121,171.42a12.88,12.88,0,0,1-13-12.49l-1.27-42.14c-.7-11.31,5.3-21.15,16.63-21.54l1,0a20.25,20.25,0,0,1,19.74,19.1c.55,9.81,1,20.65.85,25.9-.4,10.87-11.31,12.3-11.31,12.3s0,2.52.07,5.71A12.88,12.88,0,0,1,121,171.42Z" transform="translate(-6.14 -6.1)"/><path class="cls-16" d="M133.72,152.71a26.25,26.25,0,0,1-14-4.52s3.26,8,14.13,7.27Z" transform="translate(-6.14 -6.1)"/><path class="cls-16" d="M126.1,135.14a2.34,2.34,0,1,1,2.58,3.77,3,3,0,0,1-1.88.06,2.38,2.38,0,0,1-1.22-.75,2.12,2.12,0,0,1-.18-2,3.13,3.13,0,0,1,1-1.36" transform="translate(-6.14 -6.1)"/><path class="cls-6" d="M141.43,122.52a1.55,1.55,0,0,1-1.54,1.53,1.48,1.48,0,0,1-1.56-1.44,1.55,1.55,0,0,1,1.53-1.53A1.49,1.49,0,0,1,141.43,122.52Z" transform="translate(-6.14 -6.1)"/><path class="cls-6" d="M141.76,119.68c-.2.2-1.35-.7-3-.74s-2.92.77-3.09.56.11-.45.66-.83a4.35,4.35,0,0,1,2.48-.7,4.2,4.2,0,0,1,2.4.84C141.69,119.22,141.86,119.59,141.76,119.68Z" transform="translate(-6.14 -6.1)"/><path class="cls-6" d="M125.46,122.52a1.55,1.55,0,0,1-1.53,1.53,1.48,1.48,0,0,1-1.57-1.44,1.56,1.56,0,0,1,1.53-1.53A1.49,1.49,0,0,1,125.46,122.52Z" transform="translate(-6.14 -6.1)"/><path class="cls-6" d="M125.68,119.69c-.2.2-1.35-.7-3-.73s-2.92.77-3.09.56.11-.46.66-.83a4.2,4.2,0,0,1,2.48-.7,4.06,4.06,0,0,1,2.4.84C125.61,119.23,125.78,119.6,125.68,119.69Z" transform="translate(-6.14 -6.1)"/><path class="cls-6" d="M131.05,132.23a11.36,11.36,0,0,1,2.73-.42c.42,0,.83-.11.91-.4a2.13,2.13,0,0,0-.26-1.27c-.37-1-.77-2.13-1.18-3.28-1.64-4.67-2.82-8.5-2.63-8.56s1.67,3.66,3.31,8.33c.4,1.15.78,2.25,1.13,3.3a2.48,2.48,0,0,1,.19,1.68,1.09,1.09,0,0,1-.72.6,3,3,0,0,1-.73.09A10.41,10.41,0,0,1,131.05,132.23Z" transform="translate(-6.14 -6.1)"/><path class="cls-6" d="M126.11,133.27c.27,0,.23,1.81,1.75,3.13s3.46,1.17,3.46,1.43c0,.11-.43.34-1.25.34a4.55,4.55,0,0,1-2.9-1.09,4,4,0,0,1-1.35-2.62C125.77,133.7,126,133.26,126.11,133.27Z" transform="translate(-6.14 -6.1)"/><path class="cls-1" d="M125.88,113.16c-.18.45-1.84.2-3.81.39s-3.56.68-3.81.27c-.11-.2.17-.62.82-1a6.66,6.66,0,0,1,5.81-.5C125.6,112.58,126,113,125.88,113.16Z" transform="translate(-6.14 -6.1)"/><path class="cls-1" d="M141.22,114.93c-.3.38-1.45-.05-2.83-.1s-2.56.2-2.82-.21c-.12-.19.08-.57.6-.92a4,4,0,0,1,2.31-.56,3.89,3.89,0,0,1,2.24.81C141.2,114.36,141.35,114.75,141.22,114.93Z" transform="translate(-6.14 -6.1)"/><path class="cls-15" d="M107.46,125c-.18-.09-7.42-2.39-7.36,5s7.52,5.84,7.53,5.63S107.46,125,107.46,125Z" transform="translate(-6.14 -6.1)"/><path class="cls-16" d="M105.33,132.87s-.13.09-.34.19a1.31,1.31,0,0,1-1,0,3.21,3.21,0,0,1-1.51-2.87,4.25,4.25,0,0,1,.35-1.85,1.5,1.5,0,0,1,1-1,.66.66,0,0,1,.76.35c.11.21.06.36.1.37s.16-.12.1-.43a.89.89,0,0,0-.3-.46,1,1,0,0,0-.72-.19,1.84,1.84,0,0,0-1.34,1.17,4.47,4.47,0,0,0-.44,2.07c.06,1.5.84,2.9,1.92,3.2a1.38,1.38,0,0,0,1.18-.21C105.32,133.05,105.36,132.88,105.33,132.87Z" transform="translate(-6.14 -6.1)"/><path class="cls-16" d="M143.74,121.23c0,.13-.4.28-.9.45s-.93.3-1,.19.29-.45.85-.64S143.73,121.1,143.74,121.23Z" transform="translate(-6.14 -6.1)"/><path class="cls-16" d="M144.38,122.41c0,.13-.55.16-1.2.16s-1.17,0-1.19-.16.51-.32,1.19-.32S144.4,122.28,144.38,122.41Z" transform="translate(-6.14 -6.1)"/><path class="cls-16" d="M118.48,121.72c0,.14-.75.16-1.64.16s-1.62,0-1.63-.16.71-.31,1.63-.31S118.49,121.6,118.48,121.72Z" transform="translate(-6.14 -6.1)"/><path class="cls-16" d="M118.38,123.23c0,.13-.65.11-1.41.12s-1.39,0-1.42-.11.6-.37,1.41-.37S118.41,123.11,118.38,123.23Z" transform="translate(-6.14 -6.1)"/><path class="cls-16" d="M125.25,125.66s-.21.34-.74.64a4.09,4.09,0,0,1-4.52-.43c-.47-.39-.65-.73-.61-.77a5.21,5.21,0,0,0,5.87.56Z" transform="translate(-6.14 -6.1)"/><path class="cls-16" d="M126,125.3c0,.11-.74.53-1.81.53s-1.86-.41-1.81-.52.83,0,1.81,0S126,125.17,126,125.3Z" transform="translate(-6.14 -6.1)"/><path class="cls-16" d="M142.16,124.26a4.54,4.54,0,0,1-2.66.91,4.45,4.45,0,0,1-2.77-.4c0-.13,1.24.07,2.73-.08S142.1,124.13,142.16,124.26Z" transform="translate(-6.14 -6.1)"/><path class="cls-16" d="M141.35,124.84a3.41,3.41,0,0,1-2.35,1.29,3.28,3.28,0,0,1-2.65-.41,18.91,18.91,0,0,0,2.57-.06A22.08,22.08,0,0,0,141.35,124.84Z" transform="translate(-6.14 -6.1)"/><path class="cls-16" d="M137.88,111.58A6.33,6.33,0,0,1,136,112a25.36,25.36,0,0,1-4.66.25,25,25,0,0,1-4.63-.63,6.55,6.55,0,0,1-1.83-.6c0-.15,2.88.62,6.48.76S137.85,111.44,137.88,111.58Z" transform="translate(-6.14 -6.1)"/><path class="cls-16" d="M139,110.28a22.65,22.65,0,0,1-6,.56,22.82,22.82,0,0,1-6-.6c0-.14,2.7.12,6,.12S139,110.14,139,110.28Z" transform="translate(-6.14 -6.1)"/><path class="cls-16" d="M130.53,115.67c-.13,0-.18-.35-.19-.72s0-.7.14-.74.32.28.33.72S130.65,115.7,130.53,115.67Z" transform="translate(-6.14 -6.1)"/><path class="cls-16" d="M132.82,116c0,.12-.57,0-.8-.62s0-1,.17-1,.11.42.27.82S132.88,115.85,132.82,116Z" transform="translate(-6.14 -6.1)"/><path class="cls-16" d="M125.86,132.79c0,.14-.52.22-1,.61s-.68.87-.81.85-.12-.71.51-1.22S125.89,132.66,125.86,132.79Z" transform="translate(-6.14 -6.1)"/><path class="cls-16" d="M123.91,132.65c0,.13-.31.2-.52.46s-.26.53-.39.58-.15-.07-.18-.25a.81.81,0,0,1,.21-.64.79.79,0,0,1,.61-.29C123.83,132.51,123.92,132.59,123.91,132.65Z" transform="translate(-6.14 -6.1)"/><path class="cls-16" d="M116.85,161.76s-.22,0-.51-.25a2.33,2.33,0,0,1-.71-1.36,5.85,5.85,0,0,1,.09-2.26,4.76,4.76,0,0,0,0-2.54c-.16-.4-.46-.78-.63-1.25a2.33,2.33,0,0,1,0-1.41,1.78,1.78,0,0,0,0-1,4.24,4.24,0,0,0-.46-.87,1.7,1.7,0,0,1-.3-1.51c.15-.38.42-.42.41-.4s-.17.13-.23.45a1.61,1.61,0,0,0,.4,1.28,4.46,4.46,0,0,1,.55.91,2.15,2.15,0,0,1,0,1.28,1.88,1.88,0,0,0,0,1.15c.14.38.44.75.64,1.24a4.89,4.89,0,0,1,0,2.79,6,6,0,0,0-.19,2.12,2.36,2.36,0,0,0,.51,1.29C116.69,161.63,116.87,161.73,116.85,161.76Z" transform="translate(-6.14 -6.1)"/><path class="cls-16" d="M121.57,162.66s-.23,0-.56-.19a2.76,2.76,0,0,1-.89-1.33,24.81,24.81,0,0,1-1.21-5,10.75,10.75,0,0,1,0-1.49,12.53,12.53,0,0,0,0-1.33c0-.82-.83-1.1-1.35-1.58a1.4,1.4,0,0,1-.48-.83.8.8,0,0,1,.26-.7c.33-.3.61-.12.58-.11s-.24,0-.45.23a.68.68,0,0,0-.13.53,1.19,1.19,0,0,0,.45.63c.23.2.55.35.88.6a1.69,1.69,0,0,1,.67,1.18,8.05,8.05,0,0,1,0,1.39,11.64,11.64,0,0,0,.06,1.43,34.84,34.84,0,0,0,1.06,5,3,3,0,0,0,.69,1.3C121.38,162.57,121.59,162.62,121.57,162.66Z" transform="translate(-6.14 -6.1)"/><path class="cls-1" d="M147.88,105.84a13,13,0,0,1-19.82-.86,8.46,8.46,0,0,1-14.17.76,23,23,0,0,1-1.22,15.64,7.24,7.24,0,0,1-1.9,2.71c-.88.68-3.07,1.23-4.06.73s-.49-1.72-.85-2.69a21.88,21.88,0,0,1,40.54-16.4" transform="translate(-6.14 -6.1)"/><path class="cls-2" d="M98.22,110.14c0-.08.89.48,2.39,1a14.77,14.77,0,0,0,6.11.91,13,13,0,0,0,5.88-1.76,5.79,5.79,0,0,0,1.75-1.83c.07,0-.15,1.13-1.54,2.14a12.15,12.15,0,0,1-6.06,2,13.52,13.52,0,0,1-6.28-1.09,12.45,12.45,0,0,1-1.7-.93C98.39,110.33,98.2,110.17,98.22,110.14Z" transform="translate(-6.14 -6.1)"/><path class="cls-2" d="M99.07,113.81a24.78,24.78,0,0,0,7.93,1.13,25.08,25.08,0,0,0,7.77-2,7.41,7.41,0,0,1-2.08,1.19,17,17,0,0,1-11.42.62A7.27,7.27,0,0,1,99.07,113.81Z" transform="translate(-6.14 -6.1)"/><path class="cls-2" d="M148.74,101.27c-.05,0,0-.73-.11-2a10.41,10.41,0,0,0-2.12-5,9.76,9.76,0,0,0-6.94-3.76,15.7,15.7,0,0,0-9.51,2.46,17.6,17.6,0,0,0-2.13,1.55c-.68.54-1.23,1.19-1.94,1.74a3.36,3.36,0,0,1-1.2.63,2.21,2.21,0,0,1-1.37-.09,7.2,7.2,0,0,1-1.93-1.54,6.43,6.43,0,0,0-3.85-1.7,6.35,6.35,0,0,0-3.63.71,6.75,6.75,0,0,0-3.24,4.22,11.15,11.15,0,0,0-.26,2,2.79,2.79,0,0,1-.07-.53,6.25,6.25,0,0,1,.13-1.53,6.83,6.83,0,0,1,3.27-4.49,6.58,6.58,0,0,1,3.83-.82,6.83,6.83,0,0,1,4.14,1.78,6.71,6.71,0,0,0,1.8,1.43,2,2,0,0,0,2.07-.48c.64-.5,1.22-1.17,1.91-1.73a17.57,17.57,0,0,1,2.19-1.6A16,16,0,0,1,139.62,90a10.24,10.24,0,0,1,4.28,1.38A9.91,9.91,0,0,1,146.8,94a10.26,10.26,0,0,1,2,5.23,7,7,0,0,1,0,1.53A1.66,1.66,0,0,1,148.74,101.27Z" transform="translate(-6.14 -6.1)"/><path class="cls-2" d="M98.22,110.14a13.66,13.66,0,0,1,.26,2.36c.14,1.46.38,3.46.78,5.65a48.84,48.84,0,0,0,1.34,5.54c.43,1.39.81,2.21.74,2.25a7,7,0,0,1-1.09-2.13,33,33,0,0,1-1.5-5.56,38.29,38.29,0,0,1-.63-5.72A9.32,9.32,0,0,1,98.22,110.14Z" transform="translate(-6.14 -6.1)"/></g></svg>