<svg xmlns="http://www.w3.org/2000/svg" xmlns:xlink="http://www.w3.org/1999/xlink" viewBox="0 0 981.64 981.64"><defs><style>.cls-1{fill:none;}.cls-2{fill:#fff;}.cls-3{clip-path:url(#clip-path);}.cls-4{fill:url(#Degradado_sin_nombre_2);}.cls-5{fill:#253266;fill-rule:evenodd;}</style><clipPath id="clip-path" transform="translate(-9.18 -9.18)"><path class="cls-1" d="M406.94,234.6V407H234.6a34.53,34.53,0,0,0-34.46,34.42V558.63a34.54,34.54,0,0,0,34.43,34.42H406.94V765.4a34.53,34.53,0,0,0,34.43,34.42H558.61A34.53,34.53,0,0,0,593,765.4V593.05H765.4a34.53,34.53,0,0,0,34.46-34.42V441.37A34.54,34.54,0,0,0,765.43,407H593V234.6a34.53,34.53,0,0,0-34.43-34.45H441.37a34.53,34.53,0,0,0-34.43,34.42M67.61,9.18H500C770,9.18,990.82,230.05,990.82,500V932.39a58.6,58.6,0,0,1-58.43,58.43H500C230,990.82,9.18,770,9.18,500V67.61A58.6,58.6,0,0,1,67.61,9.18Z"/></clipPath><linearGradient id="Degradado_sin_nombre_2" x1="1089.25" y1="-177.67" x2="-38.48" y2="1119.5" gradientTransform="matrix(1, 0, 0, -1, -9.18, 990.93)" gradientUnits="userSpaceOnUse"><stop offset="0" stop-color="#fff"/><stop offset="0.34" stop-color="#7ccce6"/><stop offset="0.5" stop-color="#56c3e6"/><stop offset="1" stop-color="#b0d8bc"/></linearGradient></defs><title>logo</title><g id="Capa_2" data-name="Capa 2"><rect class="cls-2" x="131.23" y="175.29" width="704.09" height="627.35"/></g><g id="Capa_1" data-name="Capa 1"><g class="cls-3"><rect class="cls-4" width="981.64" height="981.64"/></g><path class="cls-5" d="M338,219q35.79,30.27,69,60.58V270q-33.39-25.86-69-51m635.7,754.64-.83.79-.17.16h0l-.18.17-.85.78-.88.79-.17.15h0l-.15.14-.91.78-1.09.89-1.13.85-1.13.84-1.16.78-1.17.79-1.2.78-1.21.72-1.23.7-1.26.65-1.26.64h0l-1.29.6-1.29.58-1.32.53-1.34.51-1.35.48-1.35.45-1.39.41h0L947,989l-1.4.35-1.42.31-1.43.28-1.44.24-1.45.2-1.47.17-1.46.13-1.49.1-1.5,0h-1.5S868.55,819.05,695.52,593h39.65C902.74,801.27,973.65,973.66,973.65,973.66Z" transform="translate(-9.18 -9.18)"/></g></svg>